<?xml version="1.0" standalone="no"?>
<!DOCTYPE svg PUBLIC "-//W3C//DTD SVG 1.1//EN" "http://www.w3.org/Graphics/SVG/1.1/DTD/svg11.dtd" >
<svg>
<metadata>
Created by FontForge 20090914 at Sun Jan 17 11:48:54 2021
 By www-data
Copyright (c) 2014 Indian Type Foundry (info@indiantypefoundry.com)
</metadata>
<defs>
<font id="Rajdhani-Medium" horiz-adv-x="233" >
  <font-face 
    font-family="Rajdhani Medium"
    font-weight="500"
    font-stretch="normal"
    units-per-em="1000"
    panose-1="2 0 0 0 0 0 0 0 0 0"
    ascent="800"
    descent="-200"
    x-height="510"
    cap-height="643"
    bbox="-429 -323.001 2022 900.001"
    underline-thickness="50"
    underline-position="-50"
    unicode-range="U+000D-U+F6C3"
  />
<missing-glyph horiz-adv-x="600" 
d="M170 536v-490h260v490h-260zM120 0v582h360v-582h-360z" />
    <glyph glyph-name=".notdef" horiz-adv-x="600" 
d="M170 536v-490h260v490h-260zM120 0v582h360v-582h-360z" />
    <glyph glyph-name="NULL" horiz-adv-x="0" 
 />
    <glyph glyph-name="NULL" horiz-adv-x="0" 
 />
    <glyph glyph-name="CR" unicode="&#xd;" horiz-adv-x="0" 
 />
    <glyph glyph-name="space" unicode=" " horiz-adv-x="254" 
 />
    <glyph glyph-name="exclam" unicode="!" horiz-adv-x="237" 
d="M78 513v116c0 9.33301 4.66699 14 14 14h53c9.33301 0 14 -4.66699 14 -14v-116c0 -63.333 -2 -125 -6 -185s-6.66699 -94 -8 -102s-5.66602 -12 -12.999 -12h-27c-8.66699 0 -13.334 5 -14.001 15c-2.66699 26 -5.5 71.667 -8.5 137s-4.5 114.333 -4.5 147zM157 135
v-121c0 -9.33301 -4.66699 -14 -14 -14h-48c-8.66699 0 -13 5 -13 15v120c0 8.66699 4.33301 13 13 13h48c9.33301 0 14 -4.33301 14 -13z" />
    <glyph glyph-name="quotedbl" unicode="&#x22;" horiz-adv-x="337" 
d="M94 429h-8c-8.66699 0 -13.667 5.33301 -15 16l-16 184c0 9.33301 4.33301 14 13 14h44c9.33301 0 13.333 -4.66699 12 -14l-15 -185c-0.666992 -10 -5.66699 -15 -15 -15zM251 429h-9c-8 0 -12.667 5.33301 -14 16l-16 184c0 9.33301 4.33301 14 13 14h44
c9.33301 0 13.333 -4.66699 12 -14l-15 -185c-1.33301 -10 -6.33301 -15 -15 -15z" />
    <glyph glyph-name="numbersign" unicode="#" horiz-adv-x="675" 
d="M612 485c9.33301 0 14.001 -4.66699 14.001 -14v-33c0 -9.33301 -4.66699 -14 -14 -14h-100l-55 -205h93c9.33301 0 14 -4.66699 14 -14v-33c0 -9.33301 -4.66699 -14 -14 -14h-110l-38 -143c-2.66699 -10 -8.33398 -15 -17.001 -15h-34
c-9.33301 0 -12.666 6 -9.99902 18l38 140h-168l-38 -143c-2.66699 -10 -8.66699 -15 -18 -15h-32c-10.667 0 -14 6 -10 18l38 140h-88c-9.33301 0 -14 4.66699 -14 14v33c0 9.33301 4.66699 14 14 14h104l55 205h-97c-10 0 -15 4.66699 -15 14v33c0 9.33301 5 14 15 14h114
l38 143c2 10 7.33301 15 16 15h32c12 0 16 -6 12 -18l-38 -140h168l38 143c3.33301 10 9.66602 15 18.999 15h30c10.667 0 14.667 -6 12 -18l-38 -140h84zM395.001 219l55 205h-167l-55 -205h167z" />
    <glyph glyph-name="dollar" unicode="$" horiz-adv-x="511" 
d="M281 -98l-34.001 0.000976562c-9.33301 0 -14 4.66699 -14 14v84h-24c-44.667 0 -80.167 13.333 -106.5 40s-39.5 62.667 -39.5 108v28c0 9.33301 4.33301 14 13 14h46c8.66699 0 13 -4.66699 13 -14v-22c0 -60 29.667 -90 89 -90h63c59.333 0 89 30.667 89 92v47
c0 31.333 -8.66699 53.333 -26 66s-43.666 19.667 -78.999 21l-55 1c-48 2 -85.667 13.667 -113 35s-41 59.666 -41 114.999v55c0 46 13.167 82.167 39.5 108.5s62.166 39.5 107.499 39.5h24v85c0 9.33301 4.66699 14 14 14h34c9.33301 0 14 -4.66699 14 -14v-85h7
c43.333 0 78 -13.333 104 -40s39 -62.667 39 -108v-25c0 -10 -4.66699 -15 -14 -15h-45c-9.33301 0 -14 5 -14 15v19c0 60 -29.667 90 -89 90h-59c-59.333 0 -89 -31.333 -89 -94v-47c0 -30 8.5 -50.833 25.5 -62.5s43.167 -18.167 78.5 -19.5l62 -2
c45.333 -2 81.333 -14 108 -36s40 -59.667 40 -113v-58c0 -46 -13.167 -82.167 -39.5 -108.5s-62.166 -39.5 -107.499 -39.5h-7v-84c0 -9.33301 -4.66699 -14 -14 -14z" />
    <glyph glyph-name="percent" unicode="%" horiz-adv-x="724" 
d="M555 252h-19c-25.333 0 -42.666 -5.16699 -51.999 -15.5s-14 -28.5 -14 -54.5v-65c0 -25.333 4.66699 -43.333 14 -54s26.666 -16 51.999 -16h19c24.667 0 41.667 5.33301 51 16s14 28.667 14 54v65c0 26 -4.66699 44.167 -14 54.5s-26.333 15.5 -51 15.5zM527 299h35
c74.667 0 112 -38 112 -114v-70c0 -76.667 -37.333 -115 -112 -115h-35c-74.667 -0 -112 38.333 -112 115v70c0 76 37.333 114 112 114zM189 599h-19c-24.667 0 -41.667 -5.16699 -51 -15.5s-14 -28.166 -14 -53.499v-66c0 -26 4.66699 -44.167 14 -54.5
s26.333 -15.5 51 -15.5h19c24.667 0 41.667 5.33301 51 16s14 28.667 14 54v66c0 25.333 -4.66699 43.166 -14 53.499s-26.333 15.5 -51 15.5zM162 646h35c74.667 0 112 -38 112 -114v-70c0 -76 -37.333 -114 -112 -114h-35c-74.667 0 -112 38 -112 114v70
c0 76 37.333 114 112 114zM242 0l-29 -0.000976562c-10.667 0 -13.667 5.33301 -9 16c9.33301 24.667 52.5 126.834 129.5 306.501s120.167 281.5 129.5 305.5c4.66699 10 10.667 15 18 15h29c10.667 0 13.667 -5.66699 9 -17l-258 -611c-4 -10 -10.333 -15 -19 -15z" />
    <glyph glyph-name="ampersand" unicode="&#x26;" horiz-adv-x="603" 
d="M218 65l65.999 0.000976562c44.667 0 70.334 20 77.001 60l-157 183c-48 -2.66699 -72 -32.334 -72 -89.001v-70c0 -56 28.667 -84 86 -84zM283.999 0.000976562l-75 0.000976562c-46 0 -82 12.833 -108 38.5s-39 61.5 -39 107.5v77c0 33.333 8.66699 62.5 26 87.5
s43.333 38.5 78 40.5c-29.333 35.333 -44 74.333 -44 117v29c0 46 13.667 81.833 41 107.5s64 38.5 110 38.5h27c46 0 82 -12.833 108 -38.5s39 -61.5 39 -107.5v-42c0 -10 -4.33301 -15 -13 -15h-45c-9.33301 0 -14 5 -14 15v41c0 56.667 -26.667 85 -80 85h-16
c-55.333 0 -83 -28.333 -83 -85v-29c0 -32.667 14.667 -65.334 44 -98.001l58 -67h234c10 0 15 -4.66699 15 -14v-37c0 -8.66699 -5 -13 -15 -13h-180l194 -227c2 -2 2.66699 -4.33301 2 -7s-2.66699 -4 -6 -4h-58c-9.33301 0 -17 3.33301 -23 10l-54 63
c-16.667 -48.667 -57.667 -73 -123 -73z" />
    <glyph glyph-name="quotesingle" unicode="'" horiz-adv-x="186" 
d="M98 445h-9.99707c-8.66699 0 -13.334 4.33301 -14.001 13l-15 157c-0.666992 8.66699 3.66602 13 12.999 13h42c9.33301 0 13.666 -4.33301 12.999 -13l-14 -157c-2.66699 -8.66699 -7.66699 -13 -15 -13z" />
    <glyph glyph-name="parenleft" unicode="(" horiz-adv-x="290" 
d="M213 588h-2.99902c-30.667 0 -54.334 -9.66699 -71.001 -29s-25 -47 -25 -83v-411c0 -36 8.33301 -63.667 25 -83s40.667 -29 72 -29h2c9.33301 0 14 -4.33301 14 -13v-31c0 -7.33301 -4.66699 -11 -14 -11h-3c-48.667 0 -87 14.667 -115 44s-42 72.333 -42 129v399
c0 56.667 14 99.667 42 129s66.333 44 115 44h4c8.66699 0 13 -3.66699 13 -11v-31c0 -8.66699 -4.66699 -13 -14 -13z" />
    <glyph glyph-name="parenright" unicode=")" horiz-adv-x="290" 
d="M53 -91v31c0 8.66699 4.33301 13 13 13h3c30 0 53.5 9.66699 70.5 29s25.5 47 25.5 83v411c0 36 -8.5 63.667 -25.5 83s-40.5 29 -70.5 29h-3c-8.66699 0 -13 4.33301 -13 13v31c0 7.33301 4.33301 11 13 11h3c48.667 0 87.167 -14.667 115.5 -44s42.5 -72.333 42.5 -129
v-399c0 -56.667 -14.167 -99.667 -42.5 -129s-66.833 -44 -115.5 -44h-3c-8.66699 0 -13 3.66699 -13 11z" />
    <glyph glyph-name="asterisk" unicode="*" horiz-adv-x="404" 
d="M173 616l-0.00195312 14.002c0 8.66699 4.33301 13 13 13h30c9.33301 0 14 -4.33301 14 -13v-14c0 -44.667 -9.33301 -83.667 -28 -117c38 33.333 72 54.666 102 63.999l14 4c8.66699 2.66699 14.334 0 17.001 -8l9 -29c3.33301 -8.66699 0.333008 -14.334 -9 -17.001
l-13 -4c-42.667 -14 -82.667 -17.333 -120 -10c0.666992 -0.666992 5 -3.33398 13 -8.00098s16 -9.66699 24 -15c26 -18.667 47.333 -40.667 64 -66c4.66699 -6.66699 3.66699 -12.667 -3 -18l-25 -18c-7.33301 -4 -13.666 -3 -18.999 3l-7 11c-27.333 36 -43 73 -47 111
c0 -3.33301 -2.66699 -13.666 -8 -30.999c-10 -34 -22.333 -61 -37 -81l-8 -12c-4.66699 -6.66699 -11 -7.33398 -19 -2.00098l-24 18c-7.33301 4 -8.33301 10.333 -3 19l8 10c22.667 32 53 58.333 91 79c-52 -3.33301 -92 -0.666016 -120 8.00098l-14 4
c-8.66699 3.33301 -11.334 9 -8.00098 17l10 29c2 8 7.66699 10.667 17 8c48.667 -16.667 87 -38.667 115 -66c0 0.666992 -1.33301 3.83398 -4 9.50098s-5.16699 12.167 -7.5 19.5s-5.16602 15.333 -8.49902 24c-6 19.333 -9 40.666 -9 63.999z" />
    <glyph glyph-name="plus" unicode="+" horiz-adv-x="535" 
d="M300 352h150c10 0 15 -5 15 -15v-32c0 -9.33301 -5 -14 -15 -14h-150v-152c0 -10.667 -5 -16 -15 -16h-34c-10 0 -15 5.33301 -15 16v152h-151c-10 0 -15 4.66699 -15 14v32c0 10 5 15 15 15h151v151c0 10.667 5 16 15 16h34c10 0 15 -5.33301 15 -16v-151z" />
    <glyph glyph-name="comma" unicode="," horiz-adv-x="194" 
d="M136 135v-79c0 -14.667 -5 -34 -15 -58l-40 -94c-3.33301 -5.33301 -7.33301 -8 -12 -8c-6.66699 0 -10 4.33301 -10 13v226c0 8.66699 4.33301 13 13 13h51c8.66699 0 13 -4.33301 13 -13z" />
    <glyph glyph-name="hyphen" unicode="-" horiz-adv-x="312" 
d="M258 289h-204c-9.33301 0 -14 4.66699 -14 14v33c0 9.33301 4.66699 14 14 14h204c9.33301 0 14 -4.66699 14 -14v-33c0 -9.33301 -4.66699 -14 -14 -14z" />
    <glyph glyph-name="period" unicode="." horiz-adv-x="194" 
d="M136 135v-121c0 -9.33301 -4.33301 -14 -13 -14h-51c-8.66699 0 -13 4.66699 -13 14v121c0 8.66699 4.33301 13 13 13h51c8.66699 0 13 -4.33301 13 -13z" />
    <glyph glyph-name="slash" unicode="/" horiz-adv-x="400" 
d="M106 0h-41c-12 -0 -16 5.33301 -12 16c10.667 26.667 48.5 130.167 113.5 310.5s101.5 280.833 109.5 301.5c4 10 10.333 15 19 15h42c11.333 0 14.666 -5.66699 9.99902 -17l-222 -611c-3.33301 -10 -9.66602 -15 -18.999 -15z" />
    <glyph glyph-name="zero" unicode="0" horiz-adv-x="520" 
d="M219 64h82c56 0 84 29 84 87v341c0 58 -28 87 -84 87h-82c-55.333 0 -83 -29 -83 -87v-341c0 -58 27.667 -87 83 -87zM310 0h-100c-45.333 0 -81.166 13 -107.499 39s-39.5 62.333 -39.5 109v347c0 46 13.167 82.167 39.5 108.5s62.166 39.5 107.499 39.5h100
c45.333 0 81.166 -13.167 107.499 -39.5s39.5 -62.5 39.5 -108.5v-347c0 -46.667 -13.167 -83 -39.5 -109s-62.166 -39 -107.499 -39z" />
    <glyph glyph-name="one" unicode="1" horiz-adv-x="322" 
d="M33 505l-0.000976562 40c0 10 4 17.333 12 22l116 67c10.667 6 19.334 9 26.001 9h42c9.33301 0 14 -4.66699 14 -14v-615c0 -9.33301 -4.66699 -14 -14 -14h-45c-9.33301 0 -14 4.66699 -14 14v551l-119 -68c-12 -6.66699 -18 -4 -18 8z" />
    <glyph glyph-name="two" unicode="2" horiz-adv-x="482" 
d="M57 14v90c0 44.667 18.667 81.334 56 110.001l193 152c33.333 25.333 50 56.666 50 93.999v36c0 56.667 -28.667 85 -86 85h-61c-56 0 -84 -28.333 -84 -85v-41c0 -10 -4.66699 -15 -14 -15h-45c-8.66699 0 -13 5 -13 15v42c0 46 13 81.833 39 107.5s62 38.5 108 38.5h80
c46 0 82 -12.833 108 -38.5s39 -61.5 39 -107.5v-41c0 -52 -20.667 -94.333 -62 -127l-196 -155c-22 -17.333 -33 -38.333 -33 -63v-46h279c9.33301 0 14 -4.66699 14 -14v-37c0 -9.33301 -4.66699 -14 -14 -14h-344c-9.33301 0 -14 4.66699 -14 14z" />
    <glyph glyph-name="three" unicode="3" horiz-adv-x="500" 
d="M223 354l58 -0.000976562c56.667 0 85 28.333 85 85v57c0 56.667 -28.333 85 -85 85h-69c-56 0 -84 -28.333 -84 -85v-32c0 -10 -4.66699 -15 -14 -15h-45c-9.33301 0 -14 5 -14 15v33c0 46 13.167 81.833 39.5 107.5s62.5 38.5 108.5 38.5h87
c46 0 82.167 -12.833 108.5 -38.5s39.5 -61.5 39.5 -107.5v-59c0 -59.333 -27.333 -97.666 -82 -114.999c54.667 -14 82 -52 82 -114v-63c0 -46 -13.167 -81.833 -39.5 -107.5s-62.5 -38.5 -108.5 -38.5h-87c-46 -0 -82.167 12.833 -108.5 38.5s-39.5 61.5 -39.5 107.5v40
c0 10 4.66699 15 14 15h45c9.33301 0 14 -5 14 -15v-39c0 -56.667 28 -85 84 -85h69c56.667 0 85 28.333 85 85v61c0 56.667 -28.333 85 -85 85h-58c-9.33301 0 -14 4.66699 -14 14v33c0 9.33301 4.66699 14 14 14z" />
    <glyph glyph-name="four" unicode="4" horiz-adv-x="526" 
d="M342 191v393l-226 -393h226zM397 0h-42c-8.66699 0 -13 4.66699 -13 14v113h-278c-14 0 -21 7 -21 21v24c0 11.333 2.33301 21.333 7 30l244 421c6 13.333 16 20 30 20h65c14.667 0 22 -7 22 -21v-431h74c9.33301 0 14 -4.33301 14 -13v-36c0 -10 -4.66699 -15 -14 -15
h-74v-113c0 -9.33301 -4.66699 -14 -14 -14z" />
    <glyph glyph-name="five" unicode="5" horiz-adv-x="489" 
d="M278 352h-73.999c-28 0 -46.333 -8.16699 -55 -24.5s-17.334 -24.5 -26.001 -24.5h-46c-9.33301 0 -14 4.66699 -14 14v312c0 9.33301 4.66699 14 14 14h331c10 0 15 -4.66699 15 -14v-40c0 -9.33301 -5 -14 -15 -14h-272v-213c12.667 33.333 41 50 85 50h72
c45.333 0 80.5 -12.333 105.5 -37s37.5 -60 37.5 -106v-121c0 -46.667 -13 -83 -39 -109s-62 -39 -108 -39h-82c-46 0 -82.167 13 -108.5 39s-39.5 62.333 -39.5 109v31c0 10 4.66699 15 14 15h45c9.33301 0 14 -5 14 -15v-30c0 -58 27.667 -87 83 -87h65
c56.667 0 85 29 85 87v111c0 31.333 -7 54.5 -21 69.5s-36 22.5 -66 22.5z" />
    <glyph glyph-name="six" unicode="6" horiz-adv-x="505" 
d="M213 64h77c56 0 84 29 84 87v88c0 58 -28 87 -84 87h-161v-175c0 -58 28 -87 84 -87zM299 0h-95c-46 0 -82.167 13.167 -108.5 39.5s-39.5 62.5 -39.5 108.5v347c0 46 13.167 82.167 39.5 108.5s62.5 39.5 108.5 39.5h194c9.33301 0 14 -4.66699 14 -14v-37
c0 -8.66699 -4.66699 -13 -14 -13h-185c-56 0 -84 -29 -84 -87v-102h170c46 0 82 -13 108 -39s39 -62.333 39 -109v-94c0 -46.667 -13 -83 -39 -109s-62 -39 -108 -39z" />
    <glyph glyph-name="seven" unicode="7" horiz-adv-x="395" 
d="M135 0l-46.999 0.000976562c-10.667 0 -13.334 5.66699 -8.00098 17l217 559h-266c-9.33301 0 -14 4.66699 -14 14v39c0 9.33301 4.66699 14 14 14h330c9.33301 0 14 -4.66699 14 -14v-42c0 -10.667 -2.66699 -21.334 -8 -32.001l-209 -542
c-3.33301 -8.66699 -11 -13 -23 -13z" />
    <glyph glyph-name="eight" unicode="8" horiz-adv-x="526" 
d="M219 64h88c56 0 84 28 84 84v60c0 57.333 -28 86 -84 86h-88c-56 0 -84 -28.667 -84 -86v-60c0 -56 28 -84 84 -84zM219 353h88c56 0 84 29 84 87v55c0 56 -28 84 -84 84h-88c-56 0 -84 -28 -84 -84v-55c0 -58 28 -87 84 -87zM316 0l-106 -0.000976562
c-46 0 -82 12.5 -108 37.5s-39 60.167 -39 105.5v61c0 60 23.333 100 70 120c-46.667 18 -70 58 -70 120v56c0 46 13 81.333 39 106s62 37 108 37h106c46 0 82 -12.333 108 -37s39 -60 39 -106v-56c0 -30.667 -6.33301 -56.5 -19 -77.5s-29.667 -35.167 -51 -42.5
c46.667 -19.333 70 -59.666 70 -120.999v-60c0 -45.333 -13 -80.5 -39 -105.5s-62 -37.5 -108 -37.5z" />
    <glyph glyph-name="nine" unicode="9" horiz-adv-x="505" 
d="M209 314h161v178c0 58 -28 87 -84 87h-77c-55.333 0 -83 -29 -83 -87v-92c0 -57.333 27.667 -86 83 -86zM295 0h-197c-10 0 -15 4.66699 -15 14v37c0 8.66699 5 13 15 13h188c56 0 84 29 84 87v99h-170c-45.333 0 -81.166 13 -107.499 39s-39.5 62 -39.5 108v98
c0 46 13.167 82.167 39.5 108.5s62.166 39.5 107.499 39.5h95c46 0 82 -13.167 108 -39.5s39 -62.5 39 -108.5v-347c0 -46.667 -13 -83 -39 -109s-62 -39 -108 -39z" />
    <glyph glyph-name="colon" unicode=":" horiz-adv-x="194" 
d="M136 497v-121c0 -9.33301 -4.33301 -14 -13 -14h-51c-8.66699 0 -13 5 -13 15v119c0 9.33301 4.33301 14 13 14h51c8.66699 0 13 -4.33301 13 -13zM136 135v-121c0 -9.33301 -4.33301 -14 -13 -14h-51c-8.66699 0 -13 5 -13 15v120c0 8.66699 4.33301 13 13 13h51
c8.66699 0 13 -4.33301 13 -13z" />
    <glyph glyph-name="semicolon" unicode=";" horiz-adv-x="194" 
d="M136 135v-79c0 -14.667 -5 -34 -15 -58l-40 -94c-3.33301 -5.33301 -7.33301 -8 -12 -8c-6.66699 0 -10 4.33301 -10 13v226c0 8.66699 4.33301 13 13 13h51c8.66699 0 13 -4.33301 13 -13zM136 497v-121c0 -9.33301 -4.33301 -14 -13 -14h-51c-8.66699 0 -13 5 -13 15
v119c0 9.33301 4.33301 14 13 14h51c8.66699 0 13 -4.33301 13 -13z" />
    <glyph glyph-name="less" unicode="&#x3c;" horiz-adv-x="528" 
d="M462 486v-36c0 -10 -4.33301 -16.333 -13 -19l-321 -107l321 -108c8.66699 -1.33301 13 -7.33301 13 -18v-37c0 -10.667 -5.66699 -14 -17 -10l-362 131c-11.333 4.66699 -17 12.667 -17 24v35c0 12 5.66699 20 17 24l362 131c11.333 4 17 0.666992 17 -10z" />
    <glyph glyph-name="equal" unicode="=" horiz-adv-x="542" 
d="M88 444h365c10.667 0 16 -5 16 -15v-31c0 -10 -5.33301 -15 -16 -15h-365c-10 0 -15 5 -15 15v31c0 10 5 15 15 15zM88 259h365c10.667 0 16 -5 16 -15v-30c0 -10 -5.33301 -15 -16 -15h-365c-10 0 -15 5 -15 15v30c0 10 5 15 15 15z" />
    <glyph glyph-name="greater" unicode="&#x3e;" horiz-adv-x="542" 
d="M73 450v36c0 10.667 5.66699 14 17 10l362 -131c11.333 -4 17 -12 17 -24v-35c0 -11.333 -5.66699 -19.333 -17 -24l-362 -131c-11.333 -4 -17 -0.666992 -17 10v37c0 10.667 4.33301 16.667 13 18l321 108l-321 107c-8.66699 2.66699 -13 9 -13 19z" />
    <glyph glyph-name="question" unicode="?" horiz-adv-x="471" 
d="M276 135v-121c0 -9.33301 -4.33301 -14 -13 -14h-51c-8.66699 0 -13 5 -13 15v120c0 8.66699 4.33301 13 13 13h51c8.66699 0 13 -4.33301 13 -13zM274 262l-0.000976562 -34.001c0 -9.33301 -4.66699 -14 -14 -14h-42c-9.33301 0 -14 4.66699 -14 14v32
c0 26 3.83301 46.167 11.5 60.5s22.167 30.5 43.5 48.5l42 36c24.667 20.667 37 43.667 37 69v21c0 56.667 -28.667 85 -86 85h-34c-56 0 -84 -28.333 -84 -85v-36c0 -9.33301 -4.66699 -14 -14 -14h-45c-8.66699 0 -13 4.66699 -13 14v37c0 46 13 81.833 39 107.5
s62 38.5 108 38.5h52c46 0 82.167 -12.833 108.5 -38.5s39.5 -61.5 39.5 -107.5v-26c0 -34.667 -15.667 -65 -47 -91l-52 -44c-15.333 -13.333 -25.166 -24.666 -29.499 -33.999s-6.5 -22.333 -6.5 -39z" />
    <glyph glyph-name="at" unicode="@" horiz-adv-x="751" 
d="M508 -58l-180.997 0.000976562c-69.333 0 -128.666 22.333 -177.999 67s-74 104.667 -74 180v165c0 74 24 134 72 180s105.333 69 172 69h198c48.667 0 88 -14.5 118 -43.5s45 -66.5 45 -112.5v-230c0 -40 -12.333 -72.333 -37 -97s-57 -37 -97 -37h-39
c-12.667 0 -23.334 3.5 -32.001 10.5s-13 16.5 -13 28.5v15h-4c-16.667 -35.333 -51.334 -53 -104.001 -53c-40.667 0 -73.334 12.667 -98.001 38s-37 60.666 -37 105.999v84c0 46 12.667 82.167 38 108.5s59.333 39.5 102 39.5h151c9.33301 0 14 -4.66699 14 -14v-305
c0 -6.66699 4.66699 -10 14 -10h5c58.667 0 88 30.333 88 91v221c0 36 -10.667 63.833 -32 83.5s-50 29.5 -86 29.5h-191c-56.667 0 -103.834 -18.667 -141.501 -56s-56.5 -87 -56.5 -149v-157c0 -62 19.333 -111.667 58 -149s86.667 -56 144 -56h182
c9.33301 0 14 -4.33301 14 -13v-20c0 -9.33301 -4.66699 -14 -14 -14zM462.003 233.001v160c0 6.66699 -3.33301 10 -10 10h-84c-56 0 -84 -29 -84 -87v-88c0 -58 28 -87 84 -87h2c30 0 52.833 8 68.5 24s23.5 38.667 23.5 68z" />
    <glyph glyph-name="A" unicode="A" horiz-adv-x="540" 
d="M87 0h-50c-8.66699 0 -11.667 4.66699 -9 14l187 615c2.66699 9.33301 9 14 19 14h72c10 0 16.333 -4.66699 19 -14l187 -615c2.66699 -9.33301 -0.333008 -14 -9 -14h-51c-7.33301 0 -12 4.66699 -14 14l-47 146h-242l-47 -146c-2.66699 -9.33301 -7.66699 -14 -15 -14z
M268 568l-103 -346h210l-103 346h-4z" />
    <glyph glyph-name="B" unicode="B" horiz-adv-x="549" 
d="M162 62h164c57.333 0 86 28.333 86 85v65c0 56.667 -30.667 85 -92 85h-158c-6.66699 0 -10 -3 -10 -9v-216c0 -6.66699 3.33301 -10 10 -10zM162 358h154c58.667 0 88 28.333 88 85v53c0 56.667 -28.333 85 -85 85h-157c-6.66699 0 -10 -3.33301 -10 -10v-204
c0 -6 3.33301 -9 10 -9zM79 14v614.998c0 9.33301 4.66699 14 14 14h235c46 0 82 -12.833 108 -38.5s39 -61.5 39 -107.5v-55c0 -59.333 -28 -97.666 -84 -114.999c25.333 -2 47 -13.167 65 -33.5s27 -47.166 27 -80.499v-67c0 -46 -13.167 -81.833 -39.5 -107.5
s-62.5 -38.5 -108.5 -38.5h-242c-9.33301 0 -14 4.66699 -14 14z" />
    <glyph glyph-name="C" unicode="C" horiz-adv-x="541" 
d="M337 0h-120c-46 0 -82.167 13 -108.5 39s-39.5 62.333 -39.5 109v347c0 46.667 13.167 83 39.5 109s62.5 39 108.5 39h120c46 0 82.167 -13 108.5 -39s39.5 -62.333 39.5 -109v-49c0 -9.33301 -4.66699 -14 -14 -14h-45c-9.33301 0 -14 4.66699 -14 14v46
c0 58 -28 87 -84 87h-103c-55.333 0 -83 -29 -83 -87v-341c0 -58 27.667 -87 83 -87h103c56 0 84 29 84 87v46c0 9.33301 4.66699 14 14 14h45c9.33301 0 14 -4.66699 14 -14v-49c0 -46.667 -13.167 -83 -39.5 -109s-62.5 -39 -108.5 -39z" />
    <glyph glyph-name="D" unicode="D" horiz-adv-x="556" 
d="M162 64h168c56 0 84 29 84 87v341c0 58 -28 87 -84 87h-168c-6.66699 0 -10 -3 -10 -9v-497c0 -6 3.33301 -9 10 -9zM79 14v615c0 9.33301 4.66699 14 14 14h246c46 0 82.167 -13.167 108.5 -39.5s39.5 -62.5 39.5 -108.5v-347c0 -46 -13.167 -82.167 -39.5 -108.5
s-62.5 -39.5 -108.5 -39.5h-246c-9.33301 0 -14 4.66699 -14 14z" />
    <glyph glyph-name="E" unicode="E" horiz-adv-x="480" 
d="M407 0h-314c-9.33301 0 -14 4.66699 -14 14v615c0 9.33301 4.66699 14 14 14h314c9.33301 0 14 -4.66699 14 -14v-36c0 -9.33301 -4.66699 -14 -14 -14h-245c-6.66699 0 -10 -3 -10 -9v-202c0 -6 3.33301 -9 10 -9h214c9.33301 0 14 -4.66699 14 -14v-36
c0 -9.33301 -4.66699 -14 -14 -14h-214c-6.66699 0 -10 -3 -10 -9v-213c0 -6 3.33301 -9 10 -9h245c9.33301 0 14 -4.66699 14 -14v-36c0 -9.33301 -4.66699 -14 -14 -14z" />
    <glyph glyph-name="F" unicode="F" horiz-adv-x="457" 
d="M138 0h-45c-9.33301 0 -14 4.66699 -14 14v615c0 9.33301 4.66699 14 14 14h311c9.33301 0 14 -4.66699 14 -14v-36c0 -9.33301 -4.66699 -14 -14 -14h-242c-6.66699 0 -10 -3 -10 -9v-218c0 -6 3.33301 -9 10 -9h214c9.33301 0 14 -4.66699 14 -14v-36
c0 -9.33301 -4.66699 -14 -14 -14h-214c-6.66699 0 -10 -3.33301 -10 -10v-255c0 -9.33301 -4.66699 -14 -14 -14z" />
    <glyph glyph-name="G" unicode="G" horiz-adv-x="541" 
d="M325 0h-108c-46 0 -82.167 13 -108.5 39s-39.5 62.333 -39.5 109v347c0 46.667 13.167 83 39.5 109s62.5 39 108.5 39h108c46 0 82 -13.167 108 -39.5s39 -62.5 39 -108.5v-41c0 -10 -4.66699 -15 -14 -15h-45c-9.33301 0 -14 5 -14 15v38c0 58 -27.667 87 -83 87h-91
c-55.333 0 -83 -29 -83 -87v-341c0 -58 27.667 -87 83 -87h91c55.333 0 83 29 83 87v112c0 6.66699 -3 10 -9 10h-99c-9.33301 0 -14 4.33301 -14 13v37c0 9.33301 4.66699 14 14 14h161c13.333 0 20 -7 20 -21v-168c0 -46.667 -13 -83 -39 -109s-62 -39 -108 -39z" />
    <glyph glyph-name="H" unicode="H" horiz-adv-x="572" 
d="M138 0h-45c-9.33301 0 -14 4.66699 -14 14v615c0 9.33301 4.66699 14 14 14h45c9.33301 0 14 -4.66699 14 -14v-263c0 -6 3.33301 -9 10 -9h248c6.66699 0 10 3 10 9v263c0 9.33301 4.66699 14 14 14h45c9.33301 0 14 -4.66699 14 -14v-615
c0 -9.33301 -4.66699 -14 -14 -14h-45c-9.33301 0 -14 4.66699 -14 14v270c0 6 -3.33301 9 -10 9h-248c-6.66699 0 -10 -3 -10 -9v-270c0 -9.33301 -4.66699 -14 -14 -14z" />
    <glyph glyph-name="I" unicode="I" horiz-adv-x="241" 
d="M157 629v-615c0 -9.33301 -4.66699 -14 -14 -14h-45c-9.33301 0 -14 4.66699 -14 14v615c0 9.33301 4.66699 14 14 14h45c9.33301 0 14 -4.66699 14 -14z" />
    <glyph glyph-name="J" unicode="J" horiz-adv-x="505" 
d="M373 643h44.999c8.66699 0 13 -4.33301 13 -13v-482c0 -46.667 -13.167 -83 -39.5 -109s-62.166 -39 -107.499 -39h-100c-46 0 -82.167 13.167 -108.5 39.5s-39.5 62.5 -39.5 108.5v86c0 9.33301 4.66699 14 14 14h45c9.33301 0 14 -4.66699 14 -14v-83
c0 -58 28 -87 84 -87h82c56 0 84 29 84 87v478c0 9.33301 4.66699 14 14 14z" />
    <glyph glyph-name="K" unicode="K" horiz-adv-x="538" 
d="M138 0h-45c-9.33301 0 -14 4.66699 -14 14v615c0 9.33301 4.66699 14 14 14h45c9.33301 0 14 -4.66699 14 -14v-345h3c4.66699 14 12 27.667 22 41l224 304c6 9.33301 14.667 14 26 14h54c11.333 0 13 -5 5 -15l-198 -268l226 -344c7.33301 -10.667 4.33301 -16 -9 -16
h-41c-14 0 -23.667 4.66699 -29 14l-192 293l-91 -109v-184c0 -9.33301 -4.66699 -14 -14 -14z" />
    <glyph glyph-name="L" unicode="L" horiz-adv-x="451" 
d="M414 0h-321c-9.33301 0 -14 4.66699 -14 14v615c0 9.33301 4.66699 14 14 14h45c9.33301 0 14 -4.66699 14 -14v-554c0 -6 3.33301 -9 10 -9h252c9.33301 0 14 -5 14 -15v-37c0 -9.33301 -4.66699 -14 -14 -14z" />
    <glyph glyph-name="M" unicode="M" horiz-adv-x="705" 
d="M531 643h81.001c9.33301 0 14 -4.66699 14 -14v-615c0 -9.33301 -4.66699 -14 -14 -14h-44c-9.33301 0 -14 4.66699 -14 14v531h-4l-155 -392c-4 -8.66699 -10 -13 -18 -13h-48c-8.66699 0 -14.334 4.33301 -17.001 13l-158 393h-4v-532c0 -9.33301 -4.33301 -14 -13 -14
h-44c-9.33301 0 -14 4.66699 -14 14v615c0 9.33301 4.66699 14 14 14h81c6 0 10 -2.66699 12 -8l164 -414h5l164 414c1.33301 5.33301 5.33301 8 12 8z" />
    <glyph glyph-name="N" unicode="N" horiz-adv-x="581" 
d="M137 0h-44c-9.33301 0 -14 4.66699 -14 14v615c0 9.33301 4.66699 14 14 14h41c8 0 13.333 -2.66699 16 -8l276 -485h4v479c0 9.33301 4.66699 14 14 14h44c9.33301 0 14 -4.66699 14 -14v-615c0 -9.33301 -4.66699 -14 -14 -14h-37c-7.33301 -0 -14.333 4.33301 -21 13
l-275 480h-4v-479c0 -9.33301 -4.66699 -14 -14 -14z" />
    <glyph glyph-name="O" unicode="O" horiz-adv-x="553" 
d="M225 64h102c56 0 84 29 84 87v341c0 58 -28 87 -84 87h-102c-55.333 0 -83 -29 -83 -87v-341c0 -58 27.667 -87 83 -87zM336 0h-119c-46 0 -82.167 13 -108.5 39s-39.5 62.333 -39.5 109v347c0 46.667 13.167 83 39.5 109s62.5 39 108.5 39h119
c46 0 82.167 -13.167 108.5 -39.5s39.5 -62.5 39.5 -108.5v-347c0 -46 -13.167 -82.167 -39.5 -108.5s-62.5 -39.5 -108.5 -39.5z" />
    <glyph glyph-name="P" unicode="P" horiz-adv-x="526" 
d="M138 0h-45c-9.33301 0 -14 4.66699 -14 14v615c0 9.33301 4.66699 14 14 14h234c46 0 82 -13.167 108 -39.5s39 -62.5 39 -108.5v-111c0 -46.667 -13 -83 -39 -109s-62 -39 -108 -39h-165c-6.66699 0 -10 -3 -10 -9v-213c0 -9.33301 -4.66699 -14 -14 -14zM162 301h155
c56 0 84 28.667 84 86v105c0 58 -28 87 -84 87h-155c-6.66699 0 -10 -3 -10 -9v-260c0 -6 3.33301 -9 10 -9z" />
    <glyph glyph-name="Q" unicode="Q" horiz-adv-x="560" 
d="M229 64h102c56 0 84 29 84 87v341c0 58 -28 87 -84 87h-102c-55.333 0 -83 -29 -83 -87v-341c0 -58 27.667 -87 83 -87zM421 -133l-41 0.000976562c-12 0 -20.667 4.66699 -26 14l-72 119h-62c-45.333 0 -81.166 13 -107.499 39s-39.5 62.333 -39.5 109v347
c0 46 13.167 82.167 39.5 108.5s62.166 39.5 107.499 39.5h119c46 0 82.167 -13 108.5 -39s39.5 -62.333 39.5 -109v-347c0 -42.667 -11.333 -76.834 -34 -102.501s-54 -40.167 -94 -43.5l71 -119c2.66699 -4.66699 3 -8.5 1 -11.5s-5.33301 -4.5 -10 -4.5z" />
    <glyph glyph-name="R" unicode="R" horiz-adv-x="537" 
d="M138 0l-45.001 -0.000976562c-9.33301 0 -14 4.66699 -14 14v615c0 9.33301 4.66699 14 14 14h230c46 0 82.333 -13.167 109 -39.5s40 -62.5 40 -108.5v-91c0 -37.333 -9 -68.166 -27 -92.499s-43 -40.5 -75 -48.5v-4l116 -243c6 -10.667 2.66699 -16 -10 -16h-45
c-11.333 0 -19.666 4.66699 -24.999 14l-112 242h-132c-6.66699 0 -10 -3 -10 -9v-233c0 -9.33301 -4.66699 -14 -14 -14zM161.999 316.999h151c57.333 0 86 28.667 86 86v89c0 58 -28.667 87 -86 87h-151c-6.66699 0 -10 -3 -10 -9v-244c0 -6 3.33301 -9 10 -9z" />
    <glyph glyph-name="S" unicode="S" horiz-adv-x="555" 
d="M72 148l-0.00195312 31.999c0 9.33301 4.66699 14 14 14h45c9.33301 0 14 -4.66699 14 -14v-26c0 -60 29.667 -90 89 -90h88c59.333 0 89 30.667 89 92v34c0 48 -39.667 79.333 -119 94c-33.333 6 -66.666 13 -99.999 21s-61.666 23.5 -84.999 46.5s-35 54.5 -35 94.5v49
c0 46 13.167 82.167 39.5 108.5s62.5 39.5 108.5 39.5h111c45.333 0 81.333 -13.167 108 -39.5s40 -62.5 40 -108.5v-25c0 -10 -4.33301 -15 -13 -15h-46c-8.66699 0 -13 5 -13 15v18c0 60.667 -29.667 91 -89 91h-85c-59.333 0 -89 -31.667 -89 -95v-40
c0 -34 22.333 -57.333 67 -70c20 -5.33301 42 -10.166 66 -14.499s48.167 -10 72.5 -17s46.5 -15.667 66.5 -26s36.167 -26 48.5 -47s18.5 -46.5 18.5 -76.5v-45c0 -46 -13.333 -82.167 -40 -108.5s-62.667 -39.5 -108 -39.5h-115c-45.333 0 -81.333 13.167 -108 39.5
s-40 62.5 -40 108.5z" />
    <glyph glyph-name="T" unicode="T" horiz-adv-x="427" 
d="M236 0h-45c-9.33301 0 -14 4.66699 -14 14v556c0 6 -3.33301 9 -10 9h-136c-10 0 -15 4.66699 -15 14v36c0 9.33301 5 14 15 14h365c10 0 15 -4.66699 15 -14v-36c0 -9.33301 -5 -14 -15 -14h-136c-6.66699 0 -10 -3 -10 -9v-556c0 -9.33301 -4.66699 -14 -14 -14z" />
    <glyph glyph-name="U" unicode="U" horiz-adv-x="554" 
d="M421 643h45c9.33301 0 14 -4.33301 14 -13v-482c0 -46.667 -13 -83 -39 -109s-62 -39 -108 -39h-111c-46 0 -82.167 13 -108.5 39s-39.5 62.333 -39.5 109v481c0 9.33301 4.66699 14 14 14h45c9.33301 0 14 -4.66699 14 -14v-478c0 -58 27.667 -87 83 -87h94
c56 0 84 29 84 87v478c0 9.33301 4.33301 14 13 14z" />
    <glyph glyph-name="V" unicode="V" horiz-adv-x="506" 
d="M289 0h-70.999c-8.66699 0 -14.334 4.66699 -17.001 14l-177 614c-2 10 2.33301 15 13 15h49c8.66699 0 14 -4.66699 16 -14l149 -547h4l149 547c2 9.33301 7.33301 14 16 14h50c10 0 14 -5 12 -15l-177 -614c-2.66699 -9.33301 -8 -14 -16 -14z" />
    <glyph glyph-name="W" unicode="W" horiz-adv-x="797" 
d="M249 0h-77c-9.33301 0 -15 4.66699 -17 14l-128 615c-2 9.33301 2.33301 14 13 14h54c10 0 15.333 -4.66699 16 -14l101 -551h6l135 552c2 8.66699 7.33301 13 16 13h60c8.66699 0 14 -4.33301 16 -13l137 -552h6l100 550c2 10 7.66699 15 17 15h54
c10.667 0 15 -5 13 -15l-129 -614c-2 -9.33301 -7.33301 -14 -16 -14h-77c-9.33301 0 -15 4.66699 -17 14l-131 537h-4l-132 -537c-2 -9.33301 -7.33301 -14 -16 -14z" />
    <glyph glyph-name="X" unicode="X" horiz-adv-x="514" 
d="M93 0h-51.998c-4.66699 0 -7.83398 1.5 -9.50098 4.5s-1.5 6.5 0.5 10.5l175 321l-166 292c-2.66699 4 -3 7.5 -1 10.5s5.33301 4.5 10 4.5h50c10.667 0 18 -4.66699 22 -14l134 -246h4l132 246c5.33301 9.33301 12.666 14 21.999 14h52
c4.66699 0 7.83398 -1.5 9.50098 -4.5s1.5 -6.5 -0.5 -10.5l-167 -291l174 -322c2.66699 -4 3.16699 -7.5 1.5 -10.5s-4.83398 -4.5 -9.50098 -4.5h-53c-9.33301 -0 -15.666 4.33301 -18.999 13l-143 268h-4l-142 -268c-4.66699 -8.66699 -11.334 -13 -20.001 -13z" />
    <glyph glyph-name="Y" unicode="Y" horiz-adv-x="500" 
d="M272 0l-45 -0.000976562c-9.33301 0 -14 4.66699 -14 14v227l-190 387c-2 4.66699 -2 8.33398 0 11.001s5 4 9 4h56c7.33301 0 13 -4.66699 17 -14l143 -303h5l142 303c2.66699 9.33301 8 14 16 14h57c11.333 0 14.333 -5 9 -15l-191 -387v-227
c0 -9.33301 -4.66699 -14 -14 -14z" />
    <glyph glyph-name="Z" unicode="Z" horiz-adv-x="493" 
d="M44 14v36c0 12 2 20.667 6 26l310 495v4h-289c-9.33301 0 -14 4.66699 -14 14v40c0 9.33301 4.66699 14 14 14h354c9.33301 0 14 -4.66699 14 -14v-48c0 -10.667 -2.66699 -20 -8 -28l-302 -481v-4h306c9.33301 0 14 -4.33301 14 -13v-40c0 -10 -4.66699 -15 -14 -15
h-377c-9.33301 0 -14 4.66699 -14 14z" />
    <glyph glyph-name="bracketleft" unicode="[" horiz-adv-x="297" 
d="M217 -100h-136c-9.33301 0 -14 4.66699 -14 14v715c0 9.33301 4.66699 14 14 14h136c9.33301 0 14 -4.66699 14 -14v-25c0 -9.33301 -4.66699 -14 -14 -14h-78c-6.66699 0 -10 -3.33301 -10 -10v-617c0 -6.66699 3.33301 -10 10 -10h78c9.33301 0 14 -4.66699 14 -14v-26
c0 -8.66699 -4.66699 -13 -14 -13z" />
    <glyph glyph-name="backslash" unicode="\" horiz-adv-x="400" 
d="M63 643h43c8 0 14.333 -5 19 -15l111 -306.5c64.667 -179.667 101.667 -281.5 111 -305.5c4 -10.667 0.333008 -16 -11 -16h-42c-8 0 -14.333 5 -19 15l-222 611c-4 11.333 -0.666992 17 10 17z" />
    <glyph glyph-name="bracketright" unicode="]" horiz-adv-x="297" 
d="M60 -87v26c0 9.33301 4.66699 14 14 14h78c6.66699 0 10 3.33301 10 10v617c0 6.66699 -3.33301 10 -10 10h-78c-9.33301 0 -14 4.66699 -14 14v25c0 9.33301 4.66699 14 14 14h136c8.66699 0 13 -4.66699 13 -14v-715c0 -9.33301 -4.33301 -14 -13 -14h-136
c-9.33301 0 -14 4.33301 -14 13z" />
    <glyph glyph-name="asciicircum" unicode="^" horiz-adv-x="479" 
d="M105 364h-40c-12.667 0 -16 5.33301 -10 16l128 243c6 13.333 16 20 30 20h52c14 0 24 -6.66699 30 -20l128 -243c6 -10.667 2.66699 -16 -10 -16h-40c-8 0 -14.667 4.66699 -20 14l-114 219l-114 -219c-5.33301 -9.33301 -12 -14 -20 -14z" />
    <glyph glyph-name="underscore" unicode="_" horiz-adv-x="372" 
d="M358 -103h-344c-9.33301 0 -14 4.66699 -14 14v18c0 9.33301 4.66699 14 14 14h344c9.33301 0 14 -4.66699 14 -14v-18c0 -9.33301 -4.66699 -14 -14 -14z" />
    <glyph glyph-name="grave" unicode="`" horiz-adv-x="277" 
d="M206 574h-32.999c-8 0 -14.667 3.33301 -20 10l-87 105c-2.66699 4 -3.33398 7.33301 -2.00098 10s4 4 8 4h61c9.33301 0 16.333 -4.33301 21 -13l58 -102c5.33301 -9.33301 3.33301 -14 -6 -14z" />
    <glyph glyph-name="a" unicode="a" horiz-adv-x="507" 
d="M259 0h-52c-46 0 -82.167 13 -108.5 39s-39.5 62.333 -39.5 109v214c0 46.667 13.167 83 39.5 109s62.5 39 108.5 39h217c9.33301 0 14 -4.66699 14 -14v-482c0 -9.33301 -4.66699 -14 -14 -14h-45c-9.33301 0 -14 4.66699 -14 14v39h-4
c-16.667 -35.333 -50.667 -53 -102 -53zM365 156v281c0 6 -3.33301 9 -10 9h-140c-55.333 0 -83 -29 -83 -87v-208c0 -58 27.667 -87 83 -87h57c30 0 53 8 69 24s24 38.667 24 68z" />
    <glyph glyph-name="b" unicode="b" horiz-adv-x="510" 
d="M152 64h142c56.667 0 85 29 85 87v214c0 58 -28.333 87 -85 87h-59c-30 0 -53 -8 -69 -24s-24 -38.333 -24 -67v-288c0 -6 3.33301 -9 10 -9zM69 14v675c0 9.33301 4.66699 14 14 14h45c9.33301 0 14 -4.66699 14 -14v-226h4c16.667 35.333 50.667 53 102 53h56
c45.333 0 81.166 -13 107.499 -39s39.5 -62 39.5 -108v-221c0 -46.667 -13.167 -83 -39.5 -109s-62.166 -39 -107.499 -39h-221c-9.33301 0 -14 4.66699 -14 14z" />
    <glyph glyph-name="c" unicode="c" horiz-adv-x="399" 
d="M366 50v-37c0 -8.66699 -4.66699 -13 -14 -13h-145c-46 0 -82.167 13 -108.5 39s-39.5 62.333 -39.5 109v214c0 46.667 13.167 83 39.5 109s62.5 39 108.5 39h145c9.33301 0 14 -4.66699 14 -14v-37c0 -8.66699 -4.66699 -13 -14 -13h-137c-55.333 0 -83 -29 -83 -87
v-208c0 -58 27.667 -87 83 -87h137c9.33301 0 14 -4.66699 14 -14z" />
    <glyph glyph-name="d" unicode="d" horiz-adv-x="510" 
d="M262 0h-59c-45.333 0 -80.666 13 -105.999 39s-38 62.333 -38 109v214c0 46.667 12.667 83 38 109s60.666 39 105.999 39h59c52 0 86.333 -17.667 103 -53h4v232c0 9.33301 4.33301 14 13 14h46c8.66699 0 13 -4.66699 13 -14v-675c0 -9.33301 -4.33301 -14 -13 -14h-46
c-8.66699 0 -13 4.66699 -13 14v39h-4c-16.667 -35.333 -51 -53 -103 -53zM369 156v198c0 29.333 -8 52 -24 68s-39 24 -69 24h-61c-55.333 0 -83 -29 -83 -87v-208c0 -58 27.667 -87 83 -87h61c30 0 53 8 69 24s24 38.667 24 68z" />
    <glyph glyph-name="e" unicode="e" horiz-adv-x="492" 
d="M419 0h-212c-46 0 -82.167 13 -108.5 39s-39.5 62.333 -39.5 109v214c0 46.667 13.167 83 39.5 109s62.5 39 108.5 39h84c46 0 82 -13 108 -39s39 -62.333 39 -109v-127c0 -10 -4.66699 -15 -14 -15h-283c-6.66699 0 -10 -3 -10 -9v-61c0 -58 28 -87 84 -87h204
c9.33301 0 14 -4.66699 14 -14v-36c0 -8.66699 -4.66699 -13 -14 -13zM141 273h216c6.66699 0 10 3.33301 10 10v77c0 57.333 -28 86 -84 86h-68c-56 0 -84 -28.667 -84 -86v-77c0 -6.66699 3.33301 -10 10 -10z" />
    <glyph glyph-name="f" unicode="f" horiz-adv-x="318" 
d="M197 510l88 0.000976562c10 0 15 -4.33301 15 -13v-37c0 -9.33301 -5 -14 -15 -14h-88c-6 0 -9 -3 -9 -9v-423c0 -9.33301 -5 -14 -15 -14h-44c-9.33301 0 -14 4.66699 -14 14v423c0 6 -3.33301 9 -10 9h-59c-9.33301 0 -14 4.66699 -14 14v37
c0 8.66699 4.66699 13 14 13h59c6.66699 0 10 3 10 9v37c0 47.333 11.667 83.666 35 108.999s57.333 38 102 38h34c9.33301 0 14 -4.33301 14 -13v-37c0 -9.33301 -4.66699 -14 -14 -14h-25c-27.333 0 -46.333 -6.83301 -57 -20.5s-16 -35.5 -16 -65.5v-34c0 -6 3 -9 9 -9z
" />
    <glyph glyph-name="g" unicode="g" horiz-adv-x="510" 
d="M262 27h-56.001c-45.333 0 -80.666 13 -105.999 39s-38 62.333 -38 109v187c0 46.667 13.167 83 39.5 109s62.5 39 108.5 39h217c9.33301 0 14 -4.66699 14 -14v-496c0 -46 -13.167 -82.167 -39.5 -108.5s-62.5 -39.5 -108.5 -39.5h-184c-10 0 -15 4.66699 -15 14v37
c0 9.33301 5 14 15 14h175c56 0 84 28.667 84 86v77h-4c-17.333 -35.333 -51.333 -53 -102 -53zM367.999 183v254c0 6 -3.33301 9 -10 9h-139c-56 0 -84 -29 -84 -87v-181c0 -58 28 -87 84 -87h56c30 0 53 8 69 24s24 38.667 24 68z" />
    <glyph glyph-name="h" unicode="h" horiz-adv-x="512" 
d="M128 0h-44.999c-9.33301 0 -14 4.66699 -14 14v675c0 9.33301 4.66699 14 14 14h45c9.33301 0 14 -4.66699 14 -14v-232h4c16.667 35.333 50.667 53 102 53h56c45.333 0 80.666 -13 105.999 -39s38 -62.333 38 -109v-348c0 -9.33301 -4.66699 -14 -14 -14h-45
c-9.33301 0 -14 4.66699 -14 14v345c0 58 -28 87 -84 87h-56c-30 0 -53 -8 -69 -24s-24 -38.667 -24 -68v-340c0 -9.33301 -4.66699 -14 -14 -14z" />
    <glyph glyph-name="i" unicode="i" horiz-adv-x="221" 
d="M74 594v94c0 9.33301 4.33301 14 13 14h46c9.33301 0 14 -4.66699 14 -14v-94c0 -9.33301 -4.66699 -14 -14 -14h-46c-8.66699 0 -13 4.66699 -13 14zM74 14v482c0 9.33301 4.33301 14 13 14h46c9.33301 0 14 -4.66699 14 -14v-482c0 -9.33301 -4.66699 -14 -14 -14h-45
c-9.33301 0 -14 4.66699 -14 14z" />
    <glyph glyph-name="j" unicode="j" horiz-adv-x="221" 
d="M74 594v94c0 9.33301 4.33301 14 13 14h46c9.33301 0 14 -4.66699 14 -14v-94c0 -9.33301 -4.66699 -14 -14 -14h-46c-8.66699 0 -13 4.66699 -13 14zM-1 -148h-41c-9.33301 0 -14 4.66699 -14 14v37c0 9.33301 4.66699 14 14 14h23c62 0 93 31.333 93 94v485
c0 9.33301 4.66699 14 14 14h45c9.33301 0 14 -4.66699 14 -14v-495c0 -46 -13.167 -82.333 -39.5 -109s-62.5 -40 -108.5 -40z" />
    <glyph glyph-name="k" unicode="k" horiz-adv-x="443" 
d="M358 510h49.999c5.33301 0 8.83301 -1.5 10.5 -4.5s0.833984 -6.83301 -2.49902 -11.5l-147 -228v-4l162 -246c2.66699 -4.66699 3 -8.5 1 -11.5s-5.66699 -4.5 -11 -4.5h-47c-12.667 0 -22 4.66699 -28 14l-154 238c-4 6.66699 -4 13.667 0 21l142 224
c4 8.66699 12 13 24 13zM127.999 0h-45c-9.33301 0 -14 4.66699 -14 14v675c0 9.33301 4.66699 14 14 14h45c9.33301 0 14 -4.66699 14 -14v-675c0 -9.33301 -4.66699 -14 -14 -14z" />
    <glyph glyph-name="l" unicode="l" horiz-adv-x="221" 
d="M133 0h-45c-9.33301 0 -14 4.66699 -14 14v675c0 9.33301 4.66699 14 14 14h45c9.33301 0 14 -4.66699 14 -14v-675c0 -9.33301 -4.66699 -14 -14 -14z" />
    <glyph glyph-name="m" unicode="m" horiz-adv-x="777" 
d="M128 0h-45c-9.33301 0 -14 4.66699 -14 14v482c0 9.33301 4.66699 14 14 14h45c9.33301 0 14 -4.66699 14 -14v-39h4c18.667 35.333 54 53 106 53h37c58.667 0 99.334 -22.667 122.001 -68c10.667 22 27.5 38.833 50.5 50.5s47.167 17.5 72.5 17.5h35
c45.333 0 80.666 -13 105.999 -39s38 -62.333 38 -109v-348c0 -9.33301 -4.66699 -14 -14 -14h-45c-9.33301 0 -14 4.66699 -14 14v345c0 58 -28 87 -84 87h-33c-30 0 -53.167 -8.5 -69.5 -25.5s-24.5 -40.167 -24.5 -69.5v-337c0 -9.33301 -4.66699 -14 -14 -14h-45
c-9.33301 0 -14 4.66699 -14 14v345c0 58 -28 87 -84 87h-37c-30 0 -53 -8 -69 -24s-24 -38.667 -24 -68v-340c0 -9.33301 -4.66699 -14 -14 -14z" />
    <glyph glyph-name="n" unicode="n" horiz-adv-x="512" 
d="M128 0h-44.999c-9.33301 0 -14 4.66699 -14 14v482c0 9.33301 4.66699 14 14 14h45c9.33301 0 14 -4.66699 14 -14v-39h4c16.667 35.333 50.667 53 102 53h56c45.333 0 80.666 -13 105.999 -39s38 -62.333 38 -109v-348c0 -9.33301 -4.66699 -14 -14 -14h-45
c-9.33301 0 -14 4.66699 -14 14v345c0 58 -28 87 -84 87h-56c-30 0 -53 -8 -69 -24s-24 -38.667 -24 -68v-340c0 -9.33301 -4.66699 -14 -14 -14z" />
    <glyph glyph-name="o" unicode="o" horiz-adv-x="500" 
d="M293 0h-86c-46 0 -82.167 13 -108.5 39s-39.5 62.333 -39.5 109v214c0 46.667 13.167 83 39.5 109s62.5 39 108.5 39h86c46 0 82.167 -13 108.5 -39s39.5 -62.333 39.5 -109v-214c0 -46.667 -13.167 -83 -39.5 -109s-62.5 -39 -108.5 -39zM215 64h70
c56 0 84 28.667 84 86v210c0 57.333 -28 86 -84 86h-70c-56 0 -84 -28.667 -84 -86v-210c0 -57.333 28 -86 84 -86z" />
    <glyph glyph-name="p" unicode="p" horiz-adv-x="510" 
d="M128 -146h-45c-9.33301 0 -14 4.66699 -14 14v628c0 9.33301 4.66699 14 14 14h45c9.33301 0 14 -4.66699 14 -14v-39h4c16.667 35.333 50.667 53 102 53h60c45.333 0 80.5 -13 105.5 -39s37.5 -62.333 37.5 -109v-214c0 -46.667 -12.5 -83 -37.5 -109
s-60.167 -39 -105.5 -39h-60c-51.333 0 -85.333 17.667 -102 53h-4v-185c0 -9.33301 -4.66699 -14 -14 -14zM235 64h59c56.667 0 85 29 85 87v208c0 58 -28.333 87 -85 87h-59c-30 0 -53 -8 -69 -24s-24 -38.667 -24 -68v-198c0 -29.333 8 -52 24 -68s39 -24 69 -24z" />
    <glyph glyph-name="q" unicode="q" horiz-adv-x="507" 
d="M365 159v278c0 6 -3.33301 9 -10 9h-140c-55.333 0 -83 -29 -83 -87v-208c0 -58 27.667 -87 83 -87h55c30.667 0 54.167 8.5 70.5 25.5s24.5 40.167 24.5 69.5zM256 0h-49c-46 0 -82.167 13 -108.5 39s-39.5 62.333 -39.5 109v214c0 46.667 13.167 83 39.5 109
s62.5 39 108.5 39h217c9.33301 0 14 -4.66699 14 -14v-628c0 -9.33301 -4.66699 -14 -14 -14h-45c-9.33301 0 -14 4.66699 -14 14v186h-4c-19.333 -36 -54.333 -54 -105 -54z" />
    <glyph glyph-name="r" unicode="r" horiz-adv-x="323" 
d="M128 0l-45.001 -0.00195312c-9.33301 0 -14 4.66699 -14 14v482c0 9.33301 4.66699 14 14 14h45c9.33301 0 14 -4.66699 14 -14v-40h4c6.66699 14.667 19.334 27.334 38.001 38.001s40.667 16 66 16h39c8.66699 0 13 -4.66699 13 -14v-37
c0 -4.66699 -1 -8.16699 -3 -10.5s-5.33301 -3.16602 -10 -2.49902h-54c-30 0 -53 -9 -69 -27s-24 -42.667 -24 -74v-331c0 -9.33301 -4.66699 -14 -14 -14z" />
    <glyph glyph-name="s" unicode="s" horiz-adv-x="433" 
d="M242 0l-178 0.000976562c-9.33301 0 -14 4.66699 -14 14v35c0 8.66699 4.66699 13 14 13h168c52 0 78 19.333 78 58v19c0 35.333 -17 59.666 -51 72.999l-118 50c-34 14 -58.333 30.5 -73 49.5s-22 44.167 -22 75.5c0 82 45 123 135 123h164
c9.33301 0 14 -4.66699 14 -14v-35c0 -8.66699 -4.66699 -13 -14 -13h-151c-24 0 -42.167 -5 -54.5 -15s-18.5 -21.667 -18.5 -35v-17c0 -28 19 -49.333 57 -64l118 -53c34.667 -13.333 58.167 -31 70.5 -53s18.5 -52.333 18.5 -91c0 -80 -47.667 -120 -143 -120z" />
    <glyph glyph-name="t" unicode="t" horiz-adv-x="349" 
d="M88 446h-55c-9.33301 0 -14 4.33301 -14 13v37c0 9.33301 4.66699 14 14 14h55c6.66699 0 10 3 10 9v86c0 9.33301 4.66699 14 14 14h45c8.66699 0 13 -4.66699 13 -14v-86c0 -6 3.66699 -9 11 -9h106c10 0 15 -4.66699 15 -14v-37c0 -8.66699 -5 -13 -15 -13h-106
c-7.33301 0 -11 -3 -11 -9v-288c0 -56.667 29.333 -85 88 -85h39c10 0 15 -4.66699 15 -14v-37c0 -8.66699 -5 -13 -15 -13h-48c-46 -0 -82.667 12.833 -110 38.5s-41 61.5 -41 107.5v291c0 6 -3.33301 9 -10 9z" />
    <glyph glyph-name="u" unicode="u" horiz-adv-x="512" 
d="M264 0h-56.001c-45.333 0 -80.666 13 -105.999 39s-38 62.333 -38 109v348c0 9.33301 4.66699 14 14 14h45c9.33301 0 14 -4.66699 14 -14v-345c0 -58 27.667 -87 83 -87h57c30 0 53 8 69 24s24 38.667 24 68v340c0 9.33301 4.66699 14 14 14h45
c9.33301 0 14 -4.66699 14 -14v-482c0 -9.33301 -4.66699 -14 -14 -14h-45c-9.33301 0 -14 4.66699 -14 14v39h-4c-16.667 -35.333 -50.667 -53 -102 -53z" />
    <glyph glyph-name="v" unicode="v" horiz-adv-x="431" 
d="M30 510h47.001c8.66699 0 14 -4.66699 16 -14l120 -423h5l119 423c2.66699 9.33301 8.33398 14 17.001 14h47c9.33301 0 12.666 -4.66699 9.99902 -14l-144 -481c-2 -10 -8 -15 -18 -15h-68c-9.33301 0 -15.333 5 -18 15l-143 481
c-2.66699 9.33301 0.666016 14 9.99902 14z" />
    <glyph glyph-name="w" unicode="w" horiz-adv-x="686" 
d="M227 0h-61c-9.33301 0 -15 4.66699 -17 14l-128 482c-2 9.33301 1.33301 14 10 14h51c8.66699 0 14 -4.66699 16 -14l97 -408h6l103 408c2 9.33301 7.33301 14 16 14h46c9.33301 0 15.333 -4.66699 18 -14l100 -408h6l98 408c2 9.33301 7.33301 14 16 14h51
c8.66699 0 12 -4.66699 10 -14l-128 -482c-2 -9.33301 -7.66699 -14 -17 -14h-62c-8.66699 0 -14 4.66699 -16 14l-97 398h-5l-96 -398c-2 -9.33301 -7.66699 -14 -17 -14z" />
    <glyph glyph-name="x" unicode="x" horiz-adv-x="427" 
d="M89 0h-55.999c-10.667 0 -13.334 4.66699 -8.00098 14l140 246l-135 236c-5.33301 9.33301 -3 14 7 14h56c8.66699 0 15.667 -4.66699 21 -14l98 -189h4l93 189c4.66699 9.33301 11.667 14 21 14h55c11.333 0 13.666 -4.66699 6.99902 -14l-131 -235l142 -247
c6 -9.33301 3.66699 -14 -7 -14h-58c-7.33301 0 -13.666 4.66699 -18.999 14l-103 197h-4l-103 -197c-4 -9.33301 -10.667 -14 -20 -14z" />
    <glyph glyph-name="y" unicode="y" horiz-adv-x="463" 
d="M110 -157l-43.998 0.000976562c-9.33301 0 -14 4.66699 -14 14v37c0 9.33301 4.66699 14 14 14h25c42.667 0 72.667 12 90 36c14 19.333 26.667 47 38 83h-29c-8 0 -13.667 4.66699 -17 14l-147 455c-2.66699 9.33301 0.666016 14 9.99902 14h48
c8.66699 0 14.334 -4.66699 17.001 -14l129 -412h4l129 412c2 9.33301 7.33301 14 16 14h46c11.333 0 15.333 -5 12 -15l-149 -475c-16.667 -56.667 -37.834 -100.334 -63.501 -131.001s-63.834 -46 -114.501 -46z" />
    <glyph glyph-name="z" unicode="z" horiz-adv-x="418" 
d="M33 14v19c0 12 3.33301 22.333 10 31l247 378v4h-235c-9.33301 0 -14 5 -14 15v35c0 9.33301 4.66699 14 14 14h307c10 0 15 -4.66699 15 -14v-33c0 -12 -3 -21 -9 -27l-239 -368v-4h242c9.33301 0 14 -5 14 -15v-35c0 -9.33301 -4.66699 -14 -14 -14h-323
c-10 0 -15 4.66699 -15 14z" />
    <glyph glyph-name="braceleft" unicode="{" horiz-adv-x="303" 
d="M227 643h5c9.33301 0 14 -4.66699 14 -14v-27c0 -9.33301 -4.66699 -14 -14 -14h-3c-24.667 0 -41.667 -7 -51 -21s-14 -36 -14 -66v-134c0 -52 -19 -84.333 -57 -97c38 -10.667 57 -42.667 57 -96v-134c0 -30 4.66699 -52 14 -66s26.333 -21 51 -21h3
c9.33301 0 14 -4.66699 14 -14v-27c0 -9.33301 -4.66699 -14 -14 -14h-5c-82.667 0 -124 49.333 -124 148v123c0 46 -18.667 69 -56 69c-9.33301 0 -14 4.66699 -14 14v36c0 9.33301 4.66699 14 14 14c37.333 0 56 23.333 56 70v123c0 98.667 41.333 148 124 148z" />
    <glyph glyph-name="bar" unicode="|" horiz-adv-x="214" 
d="M134 629v-615c0 -9.33301 -4.66699 -14 -14 -14h-27c-8.66699 0 -13 4.66699 -13 14v615c0 9.33301 4.33301 14 13 14h27c9.33301 0 14 -4.66699 14 -14z" />
    <glyph glyph-name="braceright" unicode="}" horiz-adv-x="303" 
d="M176 495v-123c0 -46.667 18.667 -70 56 -70c9.33301 0 14 -4.66699 14 -14v-36c0 -9.33301 -4.66699 -14 -14 -14c-37.333 0 -56 -23 -56 -69v-123c0 -98.667 -41.333 -148 -124 -148h-5c-9.33301 0 -14 4.66699 -14 14v27c0 9.33301 4.66699 14 14 14h3
c24 0 40.833 7 50.5 21s14.5 36 14.5 66v134c0 53.333 19 85.333 57 96c-38 12.667 -57 45 -57 97v134c0 30 -4.83301 52 -14.5 66s-26.5 21 -50.5 21h-3c-9.33301 0 -14 4.66699 -14 14v27c0 9.33301 4.66699 14 14 14h5c82.667 0 124 -49.333 124 -148z" />
    <glyph glyph-name="asciitilde" unicode="~" horiz-adv-x="535" 
d="M264.5 294c-44.333 10 -75.501 15 -93.501 15s-37 -4 -57 -12s-31 -12 -33 -12c-7.33301 0 -11 4 -11 12v30c0 10 7 18.333 21 25c24.667 10 49.5 15 74.5 15s59.167 -5.16699 102.5 -15.5s74.833 -15.5 94.5 -15.5s39.5 4.16699 59.5 12.5s31 12.5 33 12.5
c6.66699 0 10 -4 10 -12v-31c0 -10 -7 -18 -21 -24c-24.667 -10 -49.667 -15 -75 -15s-60.166 5 -104.499 15z" />
    <glyph glyph-name="uni00A0" unicode="&#xa0;" horiz-adv-x="254" 
 />
    <glyph glyph-name="exclamdown" unicode="&#xa1;" horiz-adv-x="237" 
d="M143 495h-48c-8.66699 0 -13 4.33301 -13 13v120c0 10 4.33301 15 13 15h48c9.33301 0 14 -4.66699 14 -14v-121c0 -8.66699 -4.66699 -13 -14 -13zM105 429h27c7.33301 0 11.666 -4 12.999 -12s3 -27 5 -57c6 -90 9 -166.667 9 -230v-116
c0 -9.33301 -4.66699 -14 -14 -14h-53c-9.33301 0 -14 4.66699 -14 14v116c0 63.333 2 125 6 185s6.33301 93 7 99c0.666992 10 5.33398 15 14.001 15z" />
    <glyph glyph-name="cent" unicode="&#xa2;" horiz-adv-x="419" 
d="M276 -91h-36c-8.66699 0 -13 4.66699 -13 14v77h-26c-44 -0 -78.667 13.333 -104 40s-38 62.667 -38 108v214c0 45.333 12.667 81.333 38 108s60 40 104 40h26v87c0 9.33301 4.33301 14 13 14h36c8.66699 0 13 -4.33301 13 -13v-88h71c14.667 0 22 -4.66699 22 -14v-37
c0 -8.66699 -5 -13 -15 -13h-152c-55.333 0 -83 -29 -83 -87v-208c0 -58 27.667 -87 83 -87h152c10 0 15 -4.33301 15 -13v-37c0 -9.33301 -5 -14 -15 -14h-78v-78c0 -8.66699 -4.33301 -13 -13 -13z" />
    <glyph glyph-name="sterling" unicode="&#xa3;" horiz-adv-x="536" 
d="M140 61h316c8.66699 0 13 -4.66699 13 -14v-33c0 -9.33301 -4.33301 -14 -13 -14h-409c-9.33301 0 -14 4.66699 -14 14v33c0 9.33301 4.66699 14 14 14h10c12.667 0 23.667 6.5 33 19.5s14 29.167 14 48.5v137h-57c-9.33301 0 -14 5 -14 15v33
c0 8.66699 4.66699 13 14 13h57v170c0 46 13.167 81.833 39.5 107.5s62.5 38.5 108.5 38.5h65c46 0 82 -12.833 108 -38.5s39 -61.5 39 -107.5v-27c0 -9.33301 -4.66699 -14 -14 -14h-45c-9.33301 0 -14 4.66699 -14 14v26c0 56.667 -28 85 -84 85h-46
c-57.333 0 -86 -28.333 -86 -85v-169h147c9.33301 0 14 -4.33301 14 -13v-33c0 -10 -4.66699 -15 -14 -15h-147v-128c0 -23.333 -3.66699 -41.333 -11 -54s-15.333 -19 -24 -19v-4z" />
    <glyph glyph-name="yen" unicode="&#xa5;" horiz-adv-x="512" 
d="M278 0h-45c-9.33301 0 -14 4.66699 -14 14v151h-165c-10 0 -15 5 -15 15v23c0 10 5 15 15 15h163v27l-31 65h-132c-10 0 -15 4.66699 -15 14v24c0 10 5 15 15 15h106l-132 266c-4 9.33301 -1.33301 14 8 14h59c6 0 11 -4.66699 15 -14l143 -309h4l144 309
c4 9.33301 9.33301 14 16 14h58c10 0 12.667 -4.66699 8 -14l-131 -266h105c10 0 15 -5 15 -15v-24c0 -9.33301 -5 -14 -15 -14h-131l-32 -65v-27h163c10 0 15 -5 15 -15v-23c0 -10 -5 -15 -15 -15h-165v-151c0 -9.33301 -4.66699 -14 -14 -14z" />
    <glyph glyph-name="brokenbar" unicode="&#xa6;" horiz-adv-x="209" 
d="M133 629v-241c0 -9.33301 -4.66699 -14 -14 -14h-29c-9.33301 0 -14 4.66699 -14 14v241c0 9.33301 4.66699 14 14 14h29c9.33301 0 14 -4.66699 14 -14zM133 255v-241c0 -9.33301 -4.66699 -14 -14 -14h-29c-9.33301 0 -14 4.66699 -14 14v241
c0 9.33301 4.66699 14 14 14h29c9.33301 0 14 -4.66699 14 -14z" />
    <glyph glyph-name="section" unicode="&#xa7;" horiz-adv-x="464" 
d="M336 302c0 20 -5.33301 35.167 -16 45.5s-27 17.833 -49 22.5l-80 15c-26.667 6.66699 -47.667 15.667 -63 27v-66c0 -38.667 21.333 -62.667 64 -72l80 -15c28 -5.33301 49.333 -13.333 64 -24v67zM258 0l-174.001 -0.000976562c-9.33301 0 -14 4.66699 -14 14v37
c0 8.66699 4.66699 13 14 13h170c30 0 50.333 6.33301 61 19s16 29.5 16 50.5s-5.66699 36.167 -17 45.5s-29.666 16.666 -54.999 21.999l-100 19c-66 13.333 -99 54 -99 122v173c0 38.667 11.167 69.667 33.5 93s57.5 35 105.5 35h163c9.33301 0 14 -4.66699 14 -14v-37
c0 -8.66699 -4.66699 -13 -14 -13h-161c-45.333 0 -68 -22.333 -68 -67c0 -19.333 5 -34.166 15 -44.499s28.667 -18.166 56 -23.499l100 -19c66.667 -13.333 100 -53 100 -119v-171c0 -90 -48.667 -135 -146 -135z" />
    <glyph glyph-name="dieresis" unicode="&#xa8;" horiz-adv-x="366" 
d="M63 588v101c0 9.33301 4.33301 14 13 14h42c9.33301 0 14 -4.33301 14 -13v-102c0 -9.33301 -4.66699 -14 -14 -14h-42c-8.66699 0 -13 4.66699 -13 14zM233 588v101c0 9.33301 4.66699 14 14 14h42c9.33301 0 14 -4.33301 14 -13v-102c0 -9.33301 -4.66699 -14 -14 -14
h-42c-9.33301 0 -14 4.66699 -14 14z" />
    <glyph glyph-name="copyright" unicode="&#xa9;" horiz-adv-x="717" 
d="M493 402v-22c0 -7.33301 -3.33301 -11 -10 -11h-32c-6.66699 0 -10 3.66699 -10 11v16c0 28.667 -5.33301 47.834 -16 57.501s-30.667 14.5 -60 14.5h-14c-29.333 0 -49.333 -4.83301 -60 -14.5s-16 -28.834 -16 -57.501v-152c0 -28.667 5.33301 -47.834 16 -57.501
s30.667 -14.5 60 -14.5h14c29.333 0 49.333 4.83301 60 14.5s16 28.834 16 57.501v19c0 7.33301 3.33301 11 10 11h32c6.66699 0 10 -3.66699 10 -11v-26c0 -74.667 -39.333 -112 -118 -112h-34c-78.667 0 -118 37.333 -118 112v165c0 74.667 39.333 112 118 112h34
c78.667 0 118 -37.333 118 -112zM211 48h295c59.333 0 89 30 89 90v367c0 60 -29.667 90 -89 90h-295c-59.333 0 -89 -30 -89 -90v-367c0 -60 29.667 -90 89 -90zM200 643h317c40 0 71.833 -11.667 95.5 -35s35.5 -55.333 35.5 -96v-381
c0 -40.667 -11.833 -72.667 -35.5 -96s-55.5 -35 -95.5 -35h-317c-40 0 -71.667 11.667 -95 35s-35 55.333 -35 96v381c0 40 11.667 71.833 35 95.5s55 35.5 95 35.5z" />
    <glyph glyph-name="guillemotleft" unicode="&#xab;" horiz-adv-x="438" 
d="M379 129v-33c0 -6 -1.5 -9.83301 -4.5 -11.5s-6.83301 -0.5 -11.5 3.5l-140 128c-9.33301 8 -14 17 -14 27v26c0 9.33301 4.66699 18 14 26l140 128c4.66699 4 8.5 5.16699 11.5 3.5s4.5 -5.16699 4.5 -10.5v-33c0 -8 -4 -14.667 -12 -20l-115 -107l115 -107
c8 -5.33301 12 -12 12 -20zM228 129v-33c0 -6 -1.33301 -9.83301 -4 -11.5s-6.33398 -0.5 -11.001 3.5l-140 128c-9.33301 7.33301 -14 16.333 -14 27v26c0 9.33301 4.66699 18 14 26l140 128c4.66699 4 8.33398 5.16699 11.001 3.5s4 -5.16699 4 -10.5v-33
c0 -7.33301 -3.66699 -14 -11 -20l-115 -107l115 -107c7.33301 -6 11 -12.667 11 -20z" />
    <glyph glyph-name="registered" unicode="&#xae;" horiz-adv-x="450" 
d="M240 615h-39v-60h39c10.667 0 16 5.66699 16 17v28c0 10 -5.33301 15 -16 15zM168 473v159c0 8.66699 4.33301 13 13 13h61c31.333 0 47 -15 47 -45v-29c0 -21.333 -8 -35 -24 -41l26 -54c4.66699 -10.667 2 -16 -8 -16h-10c-6 0 -10.333 3 -13 9l-27 59h-32v-55
c0 -8.66699 -4.33301 -13 -13 -13h-7c-8.66699 0 -13 4.33301 -13 13zM174 424h102c47.333 0 71 24.667 71 74v108c0 48.667 -23.667 73 -71 73h-102c-48 0 -72 -24.333 -72 -73v-108c0 -49.333 24 -74 72 -74zM281 391h-113.002c-31.333 0 -56.166 9.16699 -74.499 27.5
s-27.5 42.833 -27.5 73.5v119c0 31.333 9.33301 56.166 28 74.499s43.334 27.5 74.001 27.5h113c31.333 0 56.166 -9.16699 74.499 -27.5s27.5 -43.166 27.5 -74.499v-119c0 -31.333 -9.16699 -56 -27.5 -74s-43.166 -27 -74.499 -27z" />
    <glyph glyph-name="macron" unicode="&#xaf;" horiz-adv-x="355" 
d="M278 613h-201c-9.33301 0 -14 4.66699 -14 14v24c0 9.33301 4.66699 14 14 14h201c9.33301 0 14 -4.66699 14 -14v-24c0 -9.33301 -4.66699 -14 -14 -14z" />
    <glyph glyph-name="degree" unicode="&#xb0;" horiz-adv-x="321" 
d="M184 511h-48c-32.667 0 -49 16.333 -49 49v97c0 31.333 16.333 47 49 47h48c15.333 0 27.5 -4.16699 36.5 -12.5s13.5 -19.833 13.5 -34.5v-97c0 -15.333 -4.5 -27.333 -13.5 -36s-21.167 -13 -36.5 -13zM167 545c11.333 0 19 2 23 6s6 11.667 6 23v65
c0 12 -2 19.833 -6 23.5s-11.667 5.5 -23 5.5h-13c-12 0 -19.833 -1.83301 -23.5 -5.5s-5.5 -11.5 -5.5 -23.5v-65c0 -11.333 1.83301 -19 5.5 -23s11.5 -6 23.5 -6h13z" />
    <glyph glyph-name="plusminus" unicode="&#xb1;" horiz-adv-x="535" 
d="M300 406h150c10 0 15 -5 15 -15v-30c0 -10 -5 -15 -15 -15h-150v-98c0 -10 -5 -15 -15 -15h-34c-10 0 -15 5 -15 15v98h-151c-10 0 -15 5 -15 15v30c0 10 5 15 15 15h151v97c0 10.667 5 16 15 16h34c10 0 15 -5.33301 15 -16v-97zM85 183h365c10 0 15 -4.66699 15 -14
v-31c0 -10 -5 -15 -15 -15h-365c-10 0 -15 5 -15 15v31c0 9.33301 5 14 15 14z" />
    <glyph glyph-name="acute" unicode="&#xb4;" horiz-adv-x="277" 
d="M145 703h60.001c4.66699 0 7.66699 -1.33301 9 -4s0.666016 -6 -2.00098 -10l-88 -105c-5.33301 -6.66699 -12 -10 -20 -10h-32c-8.66699 0 -11 4.66699 -7 14l58 102c4.66699 8.66699 12 13 22 13z" />
    <glyph glyph-name="paragraph" unicode="&#xb6;" horiz-adv-x="522" 
d="M221 0l-35 -0.000976562c-8.66699 0 -13 4.66699 -13 14v307c-38 0 -68 9.83301 -90 29.5s-33 49.834 -33 90.501v82c0 80 44.667 120 134 120h241c10 0 15 -4.33301 15 -13v-616c0 -9.33301 -4.66699 -14 -14 -14h-34c-9.33301 0 -14 4.66699 -14 14v562
c0 6 -3.33301 9 -10 9h-123c-7.33301 0 -11 -3 -11 -9v-562c0 -9.33301 -4.33301 -14 -13 -14z" />
    <glyph glyph-name="periodcentered" unicode="&#xb7;" horiz-adv-x="207" 
d="M142 379v-121c0 -9.33301 -4.33301 -14 -13 -14h-51c-8.66699 0 -13 4.66699 -13 14v120c0 9.33301 4.33301 14 13 14h51c8.66699 0 13 -4.33301 13 -13z" />
    <glyph glyph-name="cedilla" unicode="&#xb8;" horiz-adv-x="259" 
d="M120 -47c50.667 0 76 -21.333 76 -64v-14c0 -42 -28.333 -63 -85 -63h-31c-8.66699 0 -13 4.33301 -13 13v14c0 8.66699 4.33301 13 13 13h24c18.667 0 31.667 2.16699 39 6.5s11 11.833 11 22.5v2c0 12 -3.5 20.167 -10.5 24.5s-20.167 6.5 -39.5 6.5h-16
c-12 0 -20 5 -24 15s-2 19.667 6 29l55 62h54l-59 -63v-4z" />
    <glyph glyph-name="guillemotright" unicode="&#xbb;" horiz-adv-x="438" 
d="M209 383v33c0 5.33301 1.5 8.83301 4.5 10.5s6.5 0.5 10.5 -3.5l141 -128c9.33301 -8 14 -16.667 14 -26v-26c0 -10 -4.66699 -19 -14 -27l-141 -128c-4 -4 -7.5 -5 -10.5 -3s-4.5 5.66699 -4.5 11v33c0 8 4 14.667 12 20l115 107l-115 107c-8 5.33301 -12 12 -12 20z
M59 383v33c0 5.33301 1.33301 8.83301 4 10.5s6.33398 0.5 11.001 -3.5l140 -128c9.33301 -8 14 -16.667 14 -26v-26c0 -10.667 -4.66699 -19.667 -14 -27l-140 -128c-4.66699 -4 -8.33398 -5.16699 -11.001 -3.5s-4 5.5 -4 11.5v33c0 7.33301 3.66699 14 11 20l115 107
l-115 107c-7.33301 6 -11 12.667 -11 20z" />
    <glyph glyph-name="questiondown" unicode="&#xbf;" horiz-adv-x="471" 
d="M195 507v121c0 9.33301 4.33301 14 13 14h51c8.66699 0 13 -5 13 -15v-120c0 -8.66699 -4.33301 -13 -13 -13h-51c-8.66699 0 -13 4.33301 -13 13zM197 380l0.000976562 34c0 9.33301 4.33301 14 13 14h43c9.33301 0 14 -4.66699 14 -14v-32
c0 -25.333 -3.83301 -45.333 -11.5 -60s-22.167 -31 -43.5 -49l-42 -36c-24.667 -20 -37 -43 -37 -69v-21c0 -56.667 28.333 -85 85 -85h34c56 0 84 28.333 84 85v36c0 9.33301 4.66699 14 14 14h45c9.33301 0 14 -4.66699 14 -14v-37c0 -46 -13.167 -81.833 -39.5 -107.5
s-62.5 -38.5 -108.5 -38.5h-52c-46 -0 -82 12.833 -108 38.5s-39 61.5 -39 107.5v26c0 34 15.333 64.333 46 91l53 44c15.333 13.333 25.166 24.833 29.499 34.5s6.5 22.5 6.5 38.5z" />
    <glyph glyph-name="Agrave" unicode="&#xc0;" horiz-adv-x="539" 
d="M283 707h-32.999c-8 0 -14.667 3.33301 -20 10l-87 105c-2.66699 4 -3.33398 7.33301 -2.00098 10s4.33301 4 9 4h60c10 0 17 -4.33301 21 -13l58 -102c5.33301 -9.33301 3.33301 -14 -6 -14zM87.001 0h-50c-8.66699 0 -11.667 4.66699 -9 14l187 615
c2.66699 9.33301 9 14 19 14h72c10 0 16.333 -4.66699 19 -14l187 -615c2.66699 -9.33301 -0.333008 -14 -9 -14h-51c-7.33301 0 -12 4.66699 -14 14l-47 146h-242l-47 -146c-2.66699 -9.33301 -7.66699 -14 -15 -14zM268.001 568l-103 -346h210l-103 346h-4z" />
    <glyph glyph-name="Aacute" unicode="&#xc1;" horiz-adv-x="539" 
d="M328 836h60.002c4.66699 0 7.66699 -1.33301 9 -4s0.666016 -6 -2.00098 -10l-87 -105c-6.66699 -6.66699 -13.334 -10 -20.001 -10h-33c-9.33301 0 -11.333 4.66699 -6 14l58 102c4 8.66699 11 13 21 13zM87.002 0h-50c-8.66699 0 -11.667 4.66699 -9 14l187 615
c2.66699 9.33301 9 14 19 14h72c10 0 16.333 -4.66699 19 -14l187 -615c2.66699 -9.33301 -0.333008 -14 -9 -14h-51c-7.33301 0 -12 4.66699 -14 14l-47 146h-242l-47 -146c-2.66699 -9.33301 -7.66699 -14 -15 -14zM268.002 568l-103 -346h210l-103 346h-4z" />
    <glyph glyph-name="Acircumflex" unicode="&#xc2;" horiz-adv-x="539" 
d="M365 707h-34c-6.66699 0 -11.334 2.66699 -14.001 8l-47 88l-48 -88c-2 -5.33301 -6.33301 -8 -13 -8h-34c-8.66699 0 -10.667 4 -6 12l63 107c4.66699 6.66699 11.667 10 21 10h34c8.66699 0 15.334 -3.33301 20.001 -10l64 -107c4.66699 -8 2.66699 -12 -6 -12zM87 0
h-50c-8.66699 0 -11.667 4.66699 -9 14l187 615c2.66699 9.33301 9 14 19 14h72c10 0 16.333 -4.66699 19 -14l187 -615c2.66699 -9.33301 -0.333008 -14 -9 -14h-51c-7.33301 0 -12 4.66699 -14 14l-47 146h-242l-47 -146c-2.66699 -9.33301 -7.66699 -14 -15 -14zM268 568
l-103 -346h210l-103 346h-4z" />
    <glyph glyph-name="Atilde" unicode="&#xc3;" horiz-adv-x="539" 
d="M216 702c-37.333 0 -55.998 25.6689 -55.998 77.002v39c0 6.66699 3 10 9 10h21c6 0 9 -3.33301 9 -10v-26c0 -19.333 1.66699 -32.333 5 -39s9.16602 -10 17.499 -10s14.666 2.66699 18.999 8s10.666 17.166 18.999 35.499s16.5 30.5 24.5 36.5s21.333 9 40 9
c38 0 57 -26 57 -78v-39c0 -7.33301 -3 -11 -9 -11h-22c-6 0 -9 3.66699 -9 11v27c0 19.333 -1.66699 32.166 -5 38.499s-9.33301 9.5 -18 9.5s-14.667 -2 -18 -6s-6.66602 -10 -9.99902 -18c-14 -30 -25.167 -48.167 -33.5 -54.5s-21.833 -9.5 -40.5 -9.5z
M87.002 0.00195312h-50c-8.66699 0 -11.667 4.66699 -9 14l187 615c2.66699 9.33301 9 14 19 14h72c10 0 16.333 -4.66699 19 -14l187 -615c2.66699 -9.33301 -0.333008 -14 -9 -14h-51c-7.33301 0 -12 4.66699 -14 14l-47 146h-242l-47 -146
c-2.66699 -9.33301 -7.66699 -14 -15 -14zM268.002 568.002l-103 -346h210l-103 346h-4z" />
    <glyph glyph-name="Adieresis" unicode="&#xc4;" horiz-adv-x="539" 
d="M150 721v101c0 9.33301 4.33301 14 13 14h43c8 0 12 -4.33301 12 -13v-102c0 -9.33301 -4 -14 -12 -14h-43c-8.66699 0 -13 4.66699 -13 14zM321 721v101c0 9.33301 4.33301 14 13 14h43c8 0 12 -4.33301 12 -13v-102c0 -9.33301 -4 -14 -12 -14h-43
c-8.66699 0 -13 4.66699 -13 14zM87 0h-50c-8.66699 0 -11.667 4.66699 -9 14l187 615c2.66699 9.33301 9 14 19 14h72c10 0 16.333 -4.66699 19 -14l187 -615c2.66699 -9.33301 -0.333008 -14 -9 -14h-51c-7.33301 0 -12 4.66699 -14 14l-47 146h-242l-47 -146
c-2.66699 -9.33301 -7.66699 -14 -15 -14zM268 568l-103 -346h210l-103 346h-4z" />
    <glyph glyph-name="Aring" unicode="&#xc5;" horiz-adv-x="539" 
d="M284 697l-31 0.000976562c-44 0 -66 22.667 -66 68v41c0 44 22 66 66 66h31c21.333 0 37.833 -5.83301 49.5 -17.5s17.5 -27.834 17.5 -48.501v-41c0 -21.333 -5.83301 -38 -17.5 -50s-28.167 -18 -49.5 -18zM262 730.001h12c26.667 0 40 14.333 40 43v23
c0 28.667 -13 43 -39 43h-13c-26.667 0 -40 -14.333 -40 -43v-23c0 -28.667 13.333 -43 40 -43zM87 0.000976562h-50c-8.66699 0 -11.667 4.66699 -9 14l187 615c2.66699 9.33301 9 14 19 14h72c10 0 16.333 -4.66699 19 -14l187 -615
c2.66699 -9.33301 -0.333008 -14 -9 -14h-51c-7.33301 0 -12 4.66699 -14 14l-47 146h-242l-47 -146c-2.66699 -9.33301 -7.66699 -14 -15 -14zM268 568.001l-103 -346h210l-103 346h-4z" />
    <glyph glyph-name="AE" unicode="&#xc6;" horiz-adv-x="775" 
d="M63 0h-50.999c-10.667 0 -13.334 5 -8.00098 15l320 614c5.33301 9.33301 13 14 23 14h356c8.66699 0 13 -4.66699 13 -14v-36c0 -9.33301 -4.33301 -14 -13 -14h-245c-7.33301 0 -11 -3 -11 -9v-202c0 -6 3.66699 -9 11 -9h213c10 0 15 -4.66699 15 -14v-36
c0 -9.33301 -5 -14 -15 -14h-213c-7.33301 0 -11 -3 -11 -9v-213c0 -6 3.66699 -9 11 -9h245c8.66699 0 13 -4.66699 13 -14v-36c0 -9.33301 -4.33301 -14 -13 -14h-315c-8.66699 0 -13 4.66699 -13 14v147h-216l-78 -147c-4 -9.33301 -10 -14 -18 -14zM375.001 226v344h-4
l-182 -344h186z" />
    <glyph glyph-name="Ccedilla" unicode="&#xc7;" horiz-adv-x="541" 
d="M471 432h-44.999c-9.33301 0 -14 4.66699 -14 14v46c0 58 -28 87 -84 87h-103c-55.333 0 -83 -29 -83 -87v-341c0 -58 27.667 -87 83 -87h103c56 0 84 29 84 87v46c0 9.33301 4.66699 14 14 14h45c9.33301 0 14 -4.66699 14 -14v-49c0 -46.667 -13.167 -83 -39.5 -109
s-62.5 -39 -108.5 -39h-14l-44 -46v-4c51.333 0 77 -21.667 77 -65v-13c0 -42.667 -28.667 -64 -86 -64h-31c-8.66699 0 -13 4.33301 -13 13v14c0 8.66699 4.33301 13 13 13h24c19.333 0 32.666 2.16699 39.999 6.5s11 11.833 11 22.5v3c0 12 -3.5 20 -10.5 24
s-20.5 6 -40.5 6h-16c-12 0 -19.833 5 -23.5 15s-1.5 19.667 6.5 29l40 46h-53c-46 0 -82.167 13 -108.5 39s-39.5 62.333 -39.5 109v347c0 46.667 13.167 83 39.5 109s62.5 39 108.5 39h120c46 0 82.167 -13 108.5 -39s39.5 -62.333 39.5 -109v-49
c0 -9.33301 -4.66699 -14 -14 -14z" />
    <glyph glyph-name="Egrave" unicode="&#xc8;" horiz-adv-x="480" 
d="M273 707h-32.999c-8 0 -14.667 3.33301 -20 10l-87 105c-2.66699 4 -3.33398 7.33301 -2.00098 10s4.33301 4 9 4h60c10 0 17 -4.33301 21 -13l58 -102c5.33301 -9.33301 3.33301 -14 -6 -14zM407.001 0h-314c-9.33301 0 -14 4.66699 -14 14v615
c0 9.33301 4.66699 14 14 14h314c9.33301 0 14 -4.66699 14 -14v-36c0 -9.33301 -4.66699 -14 -14 -14h-245c-6.66699 0 -10 -3 -10 -9v-202c0 -6 3.33301 -9 10 -9h214c9.33301 0 14 -4.66699 14 -14v-36c0 -9.33301 -4.66699 -14 -14 -14h-214c-6.66699 0 -10 -3 -10 -9
v-213c0 -6 3.33301 -9 10 -9h245c9.33301 0 14 -4.66699 14 -14v-36c0 -9.33301 -4.66699 -14 -14 -14z" />
    <glyph glyph-name="Eacute" unicode="&#xc9;" horiz-adv-x="480" 
d="M297 836h60c4.66699 0 7.66699 -1.33301 9 -4s0.666016 -6 -2.00098 -10l-88 -105c-5.33301 -6.66699 -11.666 -10 -18.999 -10h-33c-9.33301 0 -11.333 4.66699 -6 14l57 102c4.66699 8.66699 12 13 22 13zM407 0h-314c-9.33301 0 -14 4.66699 -14 14v615
c0 9.33301 4.66699 14 14 14h314c9.33301 0 14 -4.66699 14 -14v-36c0 -9.33301 -4.66699 -14 -14 -14h-245c-6.66699 0 -10 -3 -10 -9v-202c0 -6 3.33301 -9 10 -9h214c9.33301 0 14 -4.66699 14 -14v-36c0 -9.33301 -4.66699 -14 -14 -14h-214c-6.66699 0 -10 -3 -10 -9
v-213c0 -6 3.33301 -9 10 -9h245c9.33301 0 14 -4.66699 14 -14v-36c0 -9.33301 -4.66699 -14 -14 -14z" />
    <glyph glyph-name="Ecircumflex" unicode="&#xca;" horiz-adv-x="480" 
d="M345 707h-35c-6.66699 0 -11 2.66699 -13 8l-48 88l-47 -88c-2.66699 -5.33301 -7.33398 -8 -14.001 -8h-34c-8.66699 0 -10.667 4 -6 12l64 107c4.66699 6.66699 11.334 10 20.001 10h34c9.33301 0 16.333 -3.33301 21 -10l63 -107c4.66699 -8 3 -12 -5 -12zM407 0h-314
c-9.33301 0 -14 4.66699 -14 14v615c0 9.33301 4.66699 14 14 14h314c9.33301 0 14 -4.66699 14 -14v-36c0 -9.33301 -4.66699 -14 -14 -14h-245c-6.66699 0 -10 -3 -10 -9v-202c0 -6 3.33301 -9 10 -9h214c9.33301 0 14 -4.66699 14 -14v-36
c0 -9.33301 -4.66699 -14 -14 -14h-214c-6.66699 0 -10 -3 -10 -9v-213c0 -6 3.33301 -9 10 -9h245c9.33301 0 14 -4.66699 14 -14v-36c0 -9.33301 -4.66699 -14 -14 -14z" />
    <glyph glyph-name="Edieresis" unicode="&#xcb;" horiz-adv-x="480" 
d="M130 721v101c0 9.33301 4.33301 14 13 14h43c8.66699 0 13 -4.33301 13 -13v-102c0 -9.33301 -4.33301 -14 -13 -14h-43c-8.66699 0 -13 4.66699 -13 14zM301 721v101c0 9.33301 4.33301 14 13 14h43c8.66699 0 13 -4.33301 13 -13v-102c0 -9.33301 -4.33301 -14 -13 -14
h-43c-8.66699 0 -13 4.66699 -13 14zM407 0h-314c-9.33301 0 -14 4.66699 -14 14v615c0 9.33301 4.66699 14 14 14h314c9.33301 0 14 -4.66699 14 -14v-36c0 -9.33301 -4.66699 -14 -14 -14h-245c-6.66699 0 -10 -3 -10 -9v-202c0 -6 3.33301 -9 10 -9h214
c9.33301 0 14 -4.66699 14 -14v-36c0 -9.33301 -4.66699 -14 -14 -14h-214c-6.66699 0 -10 -3 -10 -9v-213c0 -6 3.33301 -9 10 -9h245c9.33301 0 14 -4.66699 14 -14v-36c0 -9.33301 -4.66699 -14 -14 -14z" />
    <glyph glyph-name="Igrave" unicode="&#xcc;" horiz-adv-x="241" 
d="M137 707h-33c-7.33301 0 -13.666 3.33301 -18.999 10l-87 105c-2.66699 4 -3.33398 7.33301 -2.00098 10s4 4 8 4h60c10 0 17.333 -4.33301 22 -13l58 -102c5.33301 -9.33301 3 -14 -7 -14zM157 629v-615c0 -9.33301 -4.66699 -14 -14 -14h-45
c-9.33301 0 -14 4.66699 -14 14v615c0 9.33301 4.66699 14 14 14h45c9.33301 0 14 -4.66699 14 -14z" />
    <glyph glyph-name="Iacute" unicode="&#xcd;" horiz-adv-x="241" 
d="M176 836h61c4.66699 0 7.66699 -1.33301 9 -4s0.333008 -6 -3 -10l-87 -105c-5.33301 -6.66699 -12 -10 -20 -10h-33c-8 0 -10 4.66699 -6 14l58 102c4.66699 8.66699 11.667 13 21 13zM157 629v-615c0 -9.33301 -4.66699 -14 -14 -14h-45c-9.33301 0 -14 4.66699 -14 14
v615c0 9.33301 4.66699 14 14 14h45c9.33301 0 14 -4.66699 14 -14z" />
    <glyph glyph-name="Icircumflex" unicode="&#xce;" horiz-adv-x="240" 
d="M215 707h-34c-6.66699 0 -11.334 2.66699 -14.001 8l-47 88l-47 -88c-2.66699 -5.33301 -7.66699 -8 -15 -8h-33c-8.66699 0 -10.667 4 -6 12l63 107c4.66699 6.66699 11.667 10 21 10h34c8.66699 0 15.334 -3.33301 20.001 -10l63 -107c4.66699 -8 3 -12 -5 -12z
M157 629v-615c0 -9.33301 -4.66699 -14 -14 -14h-45c-9.33301 0 -14 4.66699 -14 14v615c0 9.33301 4.66699 14 14 14h45c9.33301 0 14 -4.66699 14 -14z" />
    <glyph glyph-name="Idieresis" unicode="&#xcf;" horiz-adv-x="240" 
d="M0 721v101c-0 9.33301 4.33301 14 13 14h43c8.66699 0 13 -4.33301 13 -13v-102c0 -9.33301 -4.33301 -14 -13 -14h-43c-8.66699 0 -13 4.66699 -13 14zM171 721v101c0 9.33301 4.33301 14 13 14h43c8.66699 0 13 -4.33301 13 -13v-102c0 -9.33301 -4.33301 -14 -13 -14
h-43c-8.66699 0 -13 4.66699 -13 14zM157 629v-615c0 -9.33301 -4.66699 -14 -14 -14h-45c-9.33301 0 -14 4.66699 -14 14v615c0 9.33301 4.66699 14 14 14h45c9.33301 0 14 -4.66699 14 -14z" />
    <glyph glyph-name="Eth" unicode="&#xd0;" horiz-adv-x="529" 
d="M168 64h168c56 0 84 29 84 87v341c0 58 -28 87 -84 87h-168c-6.66699 0 -10 -3 -10 -9v-208c0 -6 3.33301 -9 10 -9h126c9.33301 0 14 -4.66699 14 -14v-30c0 -8.66699 -4.66699 -13 -14 -13h-126c-6.66699 0 -10 -3.33301 -10 -10v-213c0 -6 3.33301 -9 10 -9zM345 0
h-246c-9.33301 0 -14 4.66699 -14 14v272c0 6.66699 -3.33301 10 -10 10h-37c-9.33301 0 -14 4.33301 -14 13v30c0 9.33301 4.66699 14 14 14h37c6.66699 0 10 3 10 9v267c0 9.33301 4.66699 14 14 14h246c46 0 82.167 -13 108.5 -39s39.5 -62.333 39.5 -109v-347
c0 -46.667 -13.167 -83 -39.5 -109s-62.5 -39 -108.5 -39z" />
    <glyph glyph-name="Ntilde" unicode="&#xd1;" horiz-adv-x="581" 
d="M236 702c-36.667 0 -54.9951 25.6689 -54.9951 77.002v39c0 6.66699 3 10 9 10h21c6 0 9 -3.33301 9 -10v-26c0 -19.333 1.66699 -32.333 5 -39s9.16602 -10 17.499 -10s14.666 2.66699 18.999 8s10.666 17.166 18.999 35.499s16.666 30.5 24.999 36.5s21.833 9 40.5 9
c37.333 0 56 -26 56 -78v-39c0 -7.33301 -3.33301 -11 -10 -11h-21c-6 0 -9 3.66699 -9 11v27c0 19.333 -1.66699 32.166 -5 38.499s-9.33301 9.5 -18 9.5s-14.667 -2 -18 -6s-7 -10 -11 -18c-13.333 -30 -24.333 -48.167 -33 -54.5s-22.334 -9.5 -41.001 -9.5z
M137.005 0.00195312h-44c-9.33301 0 -14 4.66699 -14 14v615c0 9.33301 4.66699 14 14 14h41c8 0 13.333 -2.66699 16 -8l276 -485h4v479c0 9.33301 4.66699 14 14 14h44c9.33301 0 14 -4.66699 14 -14v-615c0 -9.33301 -4.66699 -14 -14 -14h-37
c-7.33301 0 -14.333 4.33301 -21 13l-275 480h-4v-479c0 -9.33301 -4.66699 -14 -14 -14z" />
    <glyph glyph-name="Ograve" unicode="&#xd2;" horiz-adv-x="553" 
d="M296 707h-34.001c-7.33301 0 -13.666 3.33301 -18.999 10l-87 105c-6.66699 9.33301 -4.66699 14 6 14h60c10 0 17.333 -4.33301 22 -13l58 -102c5.33301 -9.33301 3.33301 -14 -6 -14zM224.999 64h102c56 0 84 29 84 87v341c0 58 -28 87 -84 87h-102
c-55.333 0 -83 -29 -83 -87v-341c0 -58 27.667 -87 83 -87zM335.999 0h-119c-46 0 -82.167 13 -108.5 39s-39.5 62.333 -39.5 109v347c0 46.667 13.167 83 39.5 109s62.5 39 108.5 39h119c46 0 82.167 -13.167 108.5 -39.5s39.5 -62.5 39.5 -108.5v-347
c0 -46 -13.167 -82.167 -39.5 -108.5s-62.5 -39.5 -108.5 -39.5z" />
    <glyph glyph-name="Oacute" unicode="&#xd3;" horiz-adv-x="553" 
d="M324 836h61.001c4 0 6.66699 -1.33301 8 -4s0.666016 -6 -2.00098 -10l-87 -105c-5.33301 -6.66699 -12 -10 -20 -10h-33c-9.33301 0 -11.333 4.66699 -6 14l58 102c4 8.66699 11 13 21 13zM225.001 64h102c56 0 84 29 84 87v341c0 58 -28 87 -84 87h-102
c-55.333 0 -83 -29 -83 -87v-341c0 -58 27.667 -87 83 -87zM336.001 0h-119c-46 0 -82.167 13 -108.5 39s-39.5 62.333 -39.5 109v347c0 46.667 13.167 83 39.5 109s62.5 39 108.5 39h119c46 0 82.167 -13.167 108.5 -39.5s39.5 -62.5 39.5 -108.5v-347
c0 -46 -13.167 -82.167 -39.5 -108.5s-62.5 -39.5 -108.5 -39.5z" />
    <glyph glyph-name="Ocircumflex" unicode="&#xd4;" horiz-adv-x="553" 
d="M373 707h-34.001c-7.33301 0 -12 2.66699 -14 8l-48 88l-47 -88c-2.66699 -5.33301 -7.33398 -8 -14.001 -8h-34c-8 0 -9.66699 4 -5 12l63 107c4.66699 6.66699 11.334 10 20.001 10h35c8.66699 0 15.334 -3.33301 20.001 -10l63 -107c4.66699 -8 3 -12 -5 -12z
M224.999 64h102c56 0 84 29 84 87v341c0 58 -28 87 -84 87h-102c-55.333 0 -83 -29 -83 -87v-341c0 -58 27.667 -87 83 -87zM335.999 0h-119c-46 0 -82.167 13 -108.5 39s-39.5 62.333 -39.5 109v347c0 46.667 13.167 83 39.5 109s62.5 39 108.5 39h119
c46 0 82.167 -13.167 108.5 -39.5s39.5 -62.5 39.5 -108.5v-347c0 -46 -13.167 -82.167 -39.5 -108.5s-62.5 -39.5 -108.5 -39.5z" />
    <glyph glyph-name="Otilde" unicode="&#xd5;" horiz-adv-x="553" 
d="M263.5 712c-9 -6.66699 -22.8281 -9.99707 -41.4951 -9.99707c-37.333 0 -56 25.667 -56 77v39c0 6.66699 3 10 9 10h21c6 0 9 -3.33301 9 -10v-26c0 -19.333 1.66699 -32.333 5 -39s9.16602 -10 17.499 -10s14.666 2.66699 18.999 8s10.666 17.166 18.999 35.499
s16.666 30.5 24.999 36.5s21.833 9 40.5 9c36.667 0 55 -26 55 -78v-39c0 -7.33301 -2.66699 -11 -8 -11h-21c-6.66699 0 -10 3.66699 -10 11v27c0 19.333 -1.66699 32.166 -5 38.499s-9.33301 9.5 -18 9.5s-14.667 -2 -18 -6s-6.83301 -10 -10.5 -18
s-5.83398 -12.333 -6.50098 -13c-8 -20.667 -16.5 -34.334 -25.5 -41.001zM225.005 64.0029h102c56 0 84 29 84 87v341c0 58 -28 87 -84 87h-102c-55.333 0 -83 -29 -83 -87v-341c0 -58 27.667 -87 83 -87zM336.005 0.00292969h-119c-46 0 -82.167 13 -108.5 39
s-39.5 62.333 -39.5 109v347c0 46.667 13.167 83 39.5 109s62.5 39 108.5 39h119c46 0 82.167 -13.167 108.5 -39.5s39.5 -62.5 39.5 -108.5v-347c0 -46 -13.167 -82.167 -39.5 -108.5s-62.5 -39.5 -108.5 -39.5z" />
    <glyph glyph-name="Odieresis" unicode="&#xd6;" horiz-adv-x="553" 
d="M156 721v101c0 9.33301 4.33301 14 13 14h43c8.66699 0 13 -4.33301 13 -13v-102c0 -9.33301 -4.33301 -14 -13 -14h-43c-8.66699 0 -13 4.66699 -13 14zM327 721v101c0 9.33301 4.33301 14 13 14h43c8.66699 0 13 -4.33301 13 -13v-102c0 -9.33301 -4.33301 -14 -13 -14
h-43c-8.66699 0 -13 4.66699 -13 14zM225 64h102c56 0 84 29 84 87v341c0 58 -28 87 -84 87h-102c-55.333 0 -83 -29 -83 -87v-341c0 -58 27.667 -87 83 -87zM336 0h-119c-46 0 -82.167 13 -108.5 39s-39.5 62.333 -39.5 109v347c0 46.667 13.167 83 39.5 109
s62.5 39 108.5 39h119c46 0 82.167 -13.167 108.5 -39.5s39.5 -62.5 39.5 -108.5v-347c0 -46 -13.167 -82.167 -39.5 -108.5s-62.5 -39.5 -108.5 -39.5z" />
    <glyph glyph-name="multiply" unicode="&#xd7;" horiz-adv-x="501" 
d="M295 321l110 -110c8 -7.33301 8 -14.333 0 -21l-24 -24c-6.66699 -6.66699 -14 -6.66699 -22 0l-109 110l-110 -110c-6.66699 -6.66699 -13.667 -6.66699 -21 0l-24 24c-8 6.66699 -8.33301 13.667 -1 21l110 110l-109 110c-7.33301 7.33301 -7.33301 14.333 0 21l24 24
c6.66699 8 13.667 8 21 0l110 -109l109 109c8 8 15.333 8 22 0l24 -24c7.33301 -6.66699 7.33301 -13.667 0 -21z" />
    <glyph glyph-name="Oslash" unicode="&#xd8;" horiz-adv-x="565" 
d="M491 495l-0.000976562 -347c0 -46.667 -13.167 -83 -39.5 -109s-62.166 -39 -107.499 -39h-123c-46.667 0 -83.667 13.667 -111 41l-23 -32c-6 -8 -13 -9.33301 -21 -4l-14 11c-7.33301 5.33301 -8 12.333 -2 21l34 47c-7.33301 20 -11 41.333 -11 64v347
c0 46.667 13.167 83 39.5 109s62.5 39 108.5 39h123c47.333 0 84 -14 110 -42l23 32c6.66699 8 13.667 9.33301 21 4l15 -10c7.33301 -4.66699 8 -11.667 2 -21l-34 -48c6.66699 -20 10 -41 10 -63zM145.999 492v-321l264 368c-13.333 26.667 -38.333 40 -75 40h-105
c-56 0 -84 -29 -84 -87zM418.999 151v321l-264 -368c12 -26.667 37 -40 75 -40h105c56 0 84 29 84 87z" />
    <glyph glyph-name="Ugrave" unicode="&#xd9;" horiz-adv-x="554" 
d="M301 707h-32.999c-8 0 -14.667 3.33301 -20 10l-87 105c-2.66699 4 -3.33398 7.33301 -2.00098 10s4 4 8 4h61c9.33301 0 16.333 -4.33301 21 -13l58 -102c5.33301 -9.33301 3.33301 -14 -6 -14zM421.001 643h45c9.33301 0 14 -4.33301 14 -13v-482
c0 -46.667 -13 -83 -39 -109s-62 -39 -108 -39h-111c-46 0 -82.167 13 -108.5 39s-39.5 62.333 -39.5 109v481c0 9.33301 4.66699 14 14 14h45c9.33301 0 14 -4.66699 14 -14v-478c0 -58 27.667 -87 83 -87h94c56 0 84 29 84 87v478c0 9.33301 4.33301 14 13 14z" />
    <glyph glyph-name="Uacute" unicode="&#xda;" horiz-adv-x="554" 
d="M328 836h60.001c4.66699 0 7.66699 -1.33301 9 -4s0.666016 -6 -2.00098 -10l-88 -105c-4.66699 -6.66699 -11 -10 -19 -10h-33c-9.33301 0 -11.333 4.66699 -6 14l57 102c4.66699 8.66699 12 13 22 13zM421.001 643h45c9.33301 0 14 -4.33301 14 -13v-482
c0 -46.667 -13 -83 -39 -109s-62 -39 -108 -39h-111c-46 0 -82.167 13 -108.5 39s-39.5 62.333 -39.5 109v481c0 9.33301 4.66699 14 14 14h45c9.33301 0 14 -4.66699 14 -14v-478c0 -58 27.667 -87 83 -87h94c56 0 84 29 84 87v478c0 9.33301 4.33301 14 13 14z" />
    <glyph glyph-name="Ucircumflex" unicode="&#xdb;" horiz-adv-x="554" 
d="M374 707h-34c-6.66699 0 -11.334 2.66699 -14.001 8l-48 88l-47 -88c-2.66699 -5.33301 -7.33398 -8 -14.001 -8h-33c-9.33301 0 -11.666 4 -6.99902 12l64 107c4.66699 6.66699 11.334 10 20.001 10h34c9.33301 0 16.333 -3.33301 21 -10l63 -107
c4.66699 -8 3 -12 -5 -12zM421 643h45c9.33301 0 14 -4.33301 14 -13v-482c0 -46.667 -13 -83 -39 -109s-62 -39 -108 -39h-111c-46 0 -82.167 13 -108.5 39s-39.5 62.333 -39.5 109v481c0 9.33301 4.66699 14 14 14h45c9.33301 0 14 -4.66699 14 -14v-478
c0 -58 27.667 -87 83 -87h94c56 0 84 29 84 87v478c0 9.33301 4.33301 14 13 14z" />
    <glyph glyph-name="Udieresis" unicode="&#xdc;" horiz-adv-x="554" 
d="M157 721v101c0 9.33301 4.33301 14 13 14h43c8.66699 0 13 -4.33301 13 -13v-102c0 -9.33301 -4.33301 -14 -13 -14h-43c-8.66699 0 -13 4.66699 -13 14zM328 721v101c0 9.33301 4.33301 14 13 14h43c8.66699 0 13 -4.33301 13 -13v-102c0 -9.33301 -4.33301 -14 -13 -14
h-43c-8.66699 0 -13 4.66699 -13 14zM421 643h45c9.33301 0 14 -4.33301 14 -13v-482c0 -46.667 -13 -83 -39 -109s-62 -39 -108 -39h-111c-46 0 -82.167 13 -108.5 39s-39.5 62.333 -39.5 109v481c0 9.33301 4.66699 14 14 14h45c9.33301 0 14 -4.66699 14 -14v-478
c0 -58 27.667 -87 83 -87h94c56 0 84 29 84 87v478c0 9.33301 4.33301 14 13 14z" />
    <glyph glyph-name="Yacute" unicode="&#xdd;" horiz-adv-x="500" 
d="M301 836h60.999c4 0 6.83301 -1.33301 8.5 -4s0.833984 -6 -2.49902 -10l-87 -105c-5.33301 -6.66699 -12 -10 -20 -10h-33c-9.33301 0 -11.333 4.66699 -6 14l58 102c4.66699 8.66699 11.667 13 21 13zM271.999 0l-45 -0.000976562c-9.33301 0 -14 4.66699 -14 14v227
l-190 387c-2 4.66699 -2 8.33398 0 11.001s5 4 9 4h56c7.33301 0 13 -4.66699 17 -14l143 -303h5l142 303c2.66699 9.33301 8 14 16 14h57c11.333 0 14.333 -5 9 -15l-191 -387v-227c0 -9.33301 -4.66699 -14 -14 -14z" />
    <glyph glyph-name="Thorn" unicode="&#xde;" horiz-adv-x="502" 
d="M187 197h97c56 0 84 28.667 84 86v76c0 58 -28 87 -84 87h-97c-6.66699 0 -10 -3 -10 -9v-231c0 -6 3.33301 -9 10 -9zM164 0h-46c-8.66699 0 -13 4.66699 -13 14v615c0 9.33301 4.33301 14 13 14h46c8.66699 0 13 -4.66699 13 -14v-110c0 -6 3.66699 -9 11 -9h106
c45.333 0 81.166 -13 107.499 -39s39.5 -62.333 39.5 -109v-82c0 -46.667 -13.167 -83 -39.5 -109s-62.166 -39 -107.499 -39h-106c-7.33301 0 -11 -3 -11 -9v-109c0 -9.33301 -4.33301 -14 -13 -14z" />
    <glyph glyph-name="germandbls" unicode="&#xdf;" horiz-adv-x="541" 
d="M263 354l42.001 -0.000976562c28 0 50 7.5 66 22.5s24 36.5 24 64.5v53c0 57.333 -28.333 86 -85 86h-81c-56 0 -84 -28.667 -84 -86v-480c0 -9.33301 -4.66699 -14 -14 -14h-45c-9.33301 0 -14 4.66699 -14 14v481c0 46.667 13.167 83 39.5 109s62.5 39 108.5 39h99
c46 0 82.167 -13.167 108.5 -39.5s39.5 -62.833 39.5 -109.5v-56c0 -55.333 -25 -93.666 -75 -114.999c26 -6 46.667 -20 62 -42s23 -47.667 23 -77v-60c0 -46 -13.167 -81.5 -39.5 -106.5s-62.5 -37.5 -108.5 -37.5h-84c-9.33301 -0 -14 4.33301 -14 13v36
c0 8.66699 4.66699 13 14 13h75c56.667 0 85 29 85 87v55c0 28 -8.83301 49.5 -26.5 64.5s-40.834 22.5 -69.501 22.5h-46c-9.33301 0 -14 4.33301 -14 13v36c0 9.33301 4.66699 14 14 14z" />
    <glyph glyph-name="agrave" unicode="&#xe0;" horiz-adv-x="507" 
d="M301 574h-34.002c-7.33301 0 -13.666 3.33301 -18.999 10l-87 105c-3.33301 4 -4.16602 7.33301 -2.49902 10s4.5 4 8.5 4h61c9.33301 0 16.333 -4.33301 21 -13l58 -102c5.33301 -9.33301 3.33301 -14 -6 -14zM258.998 0h-52c-46 0 -82.167 13 -108.5 39
s-39.5 62.333 -39.5 109v214c0 46.667 13.167 83 39.5 109s62.5 39 108.5 39h217c9.33301 0 14 -4.66699 14 -14v-482c0 -9.33301 -4.66699 -14 -14 -14h-45c-9.33301 0 -14 4.66699 -14 14v39h-4c-16.667 -35.333 -50.667 -53 -102 -53zM364.998 156v281
c0 6 -3.33301 9 -10 9h-140c-55.333 0 -83 -29 -83 -87v-208c0 -58 27.667 -87 83 -87h57c30 0 53 8 69 24s24 38.667 24 68z" />
    <glyph glyph-name="aacute" unicode="&#xe1;" horiz-adv-x="507" 
d="M316 703h60.001c4.66699 0 7.66699 -1.33301 9 -4s0.666016 -6 -2.00098 -10l-87 -105c-6.66699 -6.66699 -13.667 -10 -21 -10h-32c-9.33301 0 -11.333 4.66699 -6 14l58 102c4 8.66699 11 13 21 13zM259.001 0h-52c-46 0 -82.167 13 -108.5 39s-39.5 62.333 -39.5 109
v214c0 46.667 13.167 83 39.5 109s62.5 39 108.5 39h217c9.33301 0 14 -4.66699 14 -14v-482c0 -9.33301 -4.66699 -14 -14 -14h-45c-9.33301 0 -14 4.66699 -14 14v39h-4c-16.667 -35.333 -50.667 -53 -102 -53zM365.001 156v281c0 6 -3.33301 9 -10 9h-140
c-55.333 0 -83 -29 -83 -87v-208c0 -58 27.667 -87 83 -87h57c30 0 53 8 69 24s24 38.667 24 68z" />
    <glyph glyph-name="acircumflex" unicode="&#xe2;" horiz-adv-x="507" 
d="M360 574h-34c-6.66699 0 -11.334 2.66699 -14.001 8l-47 88l-48 -88c-2 -5.33301 -6.66699 -8 -14 -8h-33c-8.66699 0 -10.667 4 -6 12l63 107c4.66699 6.66699 11.667 10 21 10h34c8.66699 0 15.334 -3.33301 20.001 -10l63 -107c4.66699 -8 3 -12 -5 -12zM259 0h-52
c-46 0 -82.167 13 -108.5 39s-39.5 62.333 -39.5 109v214c0 46.667 13.167 83 39.5 109s62.5 39 108.5 39h217c9.33301 0 14 -4.66699 14 -14v-482c0 -9.33301 -4.66699 -14 -14 -14h-45c-9.33301 0 -14 4.66699 -14 14v39h-4c-16.667 -35.333 -50.667 -53 -102 -53z
M365 156v281c0 6 -3.33301 9 -10 9h-140c-55.333 0 -83 -29 -83 -87v-208c0 -58 27.667 -87 83 -87h57c30 0 53 8 69 24s24 38.667 24 68z" />
    <glyph glyph-name="atilde" unicode="&#xe3;" horiz-adv-x="508" 
d="M161 653l0.00488281 38c0 7.33301 3.33301 11 10 11h21c6 0 9 -3.66699 9 -11v-26c0 -18.667 1.66699 -31.334 5 -38.001s9.16602 -10 17.499 -10s14.666 2.66699 18.999 8s10.666 17 18.999 35s16.5 30 24.5 36s21.333 9 40 9c37.333 0 56 -25.667 56 -77v-40
c0 -7.33301 -3 -11 -9 -11h-21c-6 0 -9 3.66699 -9 11v27c0 19.333 -1.66699 32.333 -5 39s-8.5 10 -15.5 10s-11.667 -0.333008 -14 -1s-5 -3 -8 -7s-5.16699 -7.5 -6.5 -10.5l-12 -27.5c-6.66699 -15.333 -14.334 -26.166 -23.001 -32.499s-22.334 -9.5 -41.001 -9.5
c-38 0 -57 25.667 -57 77zM259.005 0h-52c-46 0 -82.167 13 -108.5 39s-39.5 62.333 -39.5 109v214c0 46.667 13.167 83 39.5 109s62.5 39 108.5 39h217c9.33301 0 14 -4.66699 14 -14v-482c0 -9.33301 -4.66699 -14 -14 -14h-45c-9.33301 0 -14 4.66699 -14 14v39h-4
c-16.667 -35.333 -50.667 -53 -102 -53zM365.005 156v281c0 6 -3.33301 9 -10 9h-140c-55.333 0 -83 -29 -83 -87v-208c0 -58 27.667 -87 83 -87h57c30 0 53 8 69 24s24 38.667 24 68z" />
    <glyph glyph-name="adieresis" unicode="&#xe4;" horiz-adv-x="507" 
d="M150 588v101c0 9.33301 4 14 12 14h43c8.66699 0 13 -4.33301 13 -13v-102c0 -9.33301 -4.33301 -14 -13 -14h-43c-8 0 -12 4.66699 -12 14zM321 588v101c0 9.33301 4 14 12 14h43c8.66699 0 13 -4.33301 13 -13v-102c0 -9.33301 -4.33301 -14 -13 -14h-43
c-8 0 -12 4.66699 -12 14zM259 0h-52c-46 0 -82.167 13 -108.5 39s-39.5 62.333 -39.5 109v214c0 46.667 13.167 83 39.5 109s62.5 39 108.5 39h217c9.33301 0 14 -4.66699 14 -14v-482c0 -9.33301 -4.66699 -14 -14 -14h-45c-9.33301 0 -14 4.66699 -14 14v39h-4
c-16.667 -35.333 -50.667 -53 -102 -53zM365 156v281c0 6 -3.33301 9 -10 9h-140c-55.333 0 -83 -29 -83 -87v-208c0 -58 27.667 -87 83 -87h57c30 0 53 8 69 24s24 38.667 24 68z" />
    <glyph glyph-name="aring" unicode="&#xe5;" horiz-adv-x="507" 
d="M365 156v281c0 6 -3.33301 9 -10 9h-140c-55.333 0 -83 -29 -83 -87v-208c0 -58 27.667 -87 83 -87h57c30 0 53 8 69 24s24 38.667 24 68zM259 0h-52c-46 0 -82.167 13 -108.5 39s-39.5 62.333 -39.5 109v214c0 46.667 13.167 83 39.5 109s62.5 39 108.5 39h217
c9.33301 0 14 -4.66699 14 -14v-482c0 -9.33301 -4.66699 -14 -14 -14h-45c-9.33301 0 -14 4.66699 -14 14v39h-4c-16.667 -35.333 -50.667 -53 -102 -53zM211 659v-36c0 -14.667 3 -24.667 9 -30s16.333 -8 31 -8h15c14.667 0 25 2.66699 31 8s9 15.333 9 30v36
c0 14.667 -3 24.667 -9 30s-16.333 8 -31 8h-15c-14.667 0 -25 -2.66699 -31 -8s-9 -15.333 -9 -30zM179 615v54c0 38.667 21 58 63 58h33c43.333 0 65 -19.333 65 -58v-54c0 -39.333 -21.667 -59 -65 -59h-33c-42 0 -63 19.667 -63 59z" />
    <glyph glyph-name="ae" unicode="&#xe6;" horiz-adv-x="784" 
d="M432 194l0.000976562 -43c0 -58 28 -87 84 -87h196c9.33301 0 14 -4.66699 14 -14v-37c0 -8.66699 -4.66699 -13 -14 -13h-205c-58.667 -0 -99.334 21.333 -122.001 64c-21.333 -42.667 -65.333 -64 -132 -64h-48c-45.333 -0 -81.333 12.833 -108 38.5
s-40 61.167 -40 106.5v20c0 46 13 81.667 39 107s62.333 38 109 38h146c5.33301 0 8 2.66699 8 8v42c0 57.333 -27.667 86 -83 86h-157c-9.33301 0 -14 4.66699 -14 14v36c0 9.33301 4.66699 14 14 14h155c60.667 0 101.667 -21 123 -63c20.667 42 61 63 121 63h61
c46 0 82 -13 108 -39s39 -62.333 39 -109v-144c0 -10 -4.66699 -15 -14 -15h-270c-6.66699 0 -10 -3 -10 -9zM661.001 266v93c0 58 -28 87 -84 87h-56c-59.333 0 -89 -28 -89 -84v-96c0 -6.66699 3.33301 -10 10 -10h209c6.66699 0 10 3.33301 10 10zM360.001 152v93
c0 6 -3.33301 9 -10 9h-136c-58.667 0 -88 -29 -88 -87v-18c0 -58.667 29.333 -88 88 -88h53c62 0 93 30.333 93 91z" />
    <glyph glyph-name="ccedilla" unicode="&#xe7;" horiz-adv-x="399" 
d="M352 446h-137c-55.333 0 -83 -29 -83 -87v-208c0 -58 27.667 -87 83 -87h137c9.33301 0 14 -4.66699 14 -14v-37c0 -8.66699 -4.66699 -13 -14 -13h-66l-41 -43v-4c51.333 0 77 -21.333 77 -64v-14c0 -42 -28.667 -63 -86 -63h-30c-8.66699 0 -13 4.33301 -13 13v14
c0 5.33301 0.833008 8.83301 2.5 10.5s5.16699 2.5 10.5 2.5h23c19.333 0 32.666 2.16699 39.999 6.5s11 11.833 11 22.5v2c0 12 -3.66699 20.167 -11 24.5s-20.666 6.5 -39.999 6.5h-16c-12 0 -19.833 5 -23.5 15s-1.5 19.667 6.5 29l37 42h-26c-46 0 -82.167 13 -108.5 39
s-39.5 62.333 -39.5 109v214c0 46.667 13.167 83 39.5 109s62.5 39 108.5 39h145c9.33301 0 14 -4.66699 14 -14v-37c0 -8.66699 -4.66699 -13 -14 -13z" />
    <glyph glyph-name="egrave" unicode="&#xe8;" horiz-adv-x="492" 
d="M275 574h-32.999c-8 0 -14.333 3.33301 -19 10l-88 105c-2.66699 4 -3.33398 7.33301 -2.00098 10s4.33301 4 9 4h60c10 0 17.333 -4.33301 22 -13l57 -102c5.33301 -9.33301 3.33301 -14 -6 -14zM419.001 0h-212c-46 0 -82.167 13 -108.5 39s-39.5 62.333 -39.5 109v214
c0 46.667 13.167 83 39.5 109s62.5 39 108.5 39h84c46 0 82 -13 108 -39s39 -62.333 39 -109v-127c0 -10 -4.66699 -15 -14 -15h-283c-6.66699 0 -10 -3 -10 -9v-61c0 -58 28 -87 84 -87h204c9.33301 0 14 -4.66699 14 -14v-36c0 -8.66699 -4.66699 -13 -14 -13z
M141.001 273h216c6.66699 0 10 3.33301 10 10v77c0 57.333 -28 86 -84 86h-68c-56 0 -84 -28.667 -84 -86v-77c0 -6.66699 3.33301 -10 10 -10z" />
    <glyph glyph-name="eacute" unicode="&#xe9;" horiz-adv-x="492" 
d="M294 703h60.002c4.66699 0 7.66699 -1.33301 9 -4s0.666016 -6 -2.00098 -10l-87 -105c-6.66699 -6.66699 -13.334 -10 -20.001 -10h-33c-9.33301 0 -11.333 4.66699 -6 14l58 102c4 8.66699 11 13 21 13zM419.002 0h-212c-46 0 -82.167 13 -108.5 39
s-39.5 62.333 -39.5 109v214c0 46.667 13.167 83 39.5 109s62.5 39 108.5 39h84c46 0 82 -13 108 -39s39 -62.333 39 -109v-127c0 -10 -4.66699 -15 -14 -15h-283c-6.66699 0 -10 -3 -10 -9v-61c0 -58 28 -87 84 -87h204c9.33301 0 14 -4.66699 14 -14v-36
c0 -8.66699 -4.66699 -13 -14 -13zM141.002 273h216c6.66699 0 10 3.33301 10 10v77c0 57.333 -28 86 -84 86h-68c-56 0 -84 -28.667 -84 -86v-77c0 -6.66699 3.33301 -10 10 -10z" />
    <glyph glyph-name="ecircumflex" unicode="&#xea;" horiz-adv-x="492" 
d="M346 574h-33.999c-6.66699 0 -11.334 2.66699 -14.001 8l-47 88l-47 -88c-2.66699 -5.33301 -7.33398 -8 -14.001 -8h-34c-8.66699 0 -10.667 4 -6 12l63 107c4.66699 6.66699 11.667 10 21 10h34c8.66699 0 15.334 -3.33301 20.001 -10l64 -107
c4.66699 -8 2.66699 -12 -6 -12zM419.001 0h-212c-46 0 -82.167 13 -108.5 39s-39.5 62.333 -39.5 109v214c0 46.667 13.167 83 39.5 109s62.5 39 108.5 39h84c46 0 82 -13 108 -39s39 -62.333 39 -109v-127c0 -10 -4.66699 -15 -14 -15h-283c-6.66699 0 -10 -3 -10 -9v-61
c0 -58 28 -87 84 -87h204c9.33301 0 14 -4.66699 14 -14v-36c0 -8.66699 -4.66699 -13 -14 -13zM141.001 273h216c6.66699 0 10 3.33301 10 10v77c0 57.333 -28 86 -84 86h-68c-56 0 -84 -28.667 -84 -86v-77c0 -6.66699 3.33301 -10 10 -10z" />
    <glyph glyph-name="edieresis" unicode="&#xeb;" horiz-adv-x="492" 
d="M131 588v101c0 9.33301 4.33301 14 13 14h43c8.66699 0 13 -4.33301 13 -13v-102c0 -9.33301 -4.33301 -14 -13 -14h-43c-8.66699 0 -13 4.66699 -13 14zM302 588v101c0 9.33301 4.33301 14 13 14h43c8.66699 0 13 -4.33301 13 -13v-102c0 -9.33301 -4.33301 -14 -13 -14
h-43c-8.66699 0 -13 4.66699 -13 14zM419 0h-212c-46 0 -82.167 13 -108.5 39s-39.5 62.333 -39.5 109v214c0 46.667 13.167 83 39.5 109s62.5 39 108.5 39h84c46 0 82 -13 108 -39s39 -62.333 39 -109v-127c0 -10 -4.66699 -15 -14 -15h-283c-6.66699 0 -10 -3 -10 -9v-61
c0 -58 28 -87 84 -87h204c9.33301 0 14 -4.66699 14 -14v-36c0 -8.66699 -4.66699 -13 -14 -13zM141 273h216c6.66699 0 10 3.33301 10 10v77c0 57.333 -28 86 -84 86h-68c-56 0 -84 -28.667 -84 -86v-77c0 -6.66699 3.33301 -10 10 -10z" />
    <glyph glyph-name="igrave" unicode="&#xec;" horiz-adv-x="221" 
d="M126 574h-33c-7.33301 0 -13.666 3.33301 -18.999 10l-87 105c-2.66699 4 -3.33398 7.33301 -2.00098 10s4 4 8 4h60c10 0 17.333 -4.33301 22 -13l58 -102c5.33301 -9.33301 3 -14 -7 -14zM74 14v482c0 9.33301 4.33301 14 13 14h46c9.33301 0 14 -4.66699 14 -14v-482
c0 -9.33301 -4.66699 -14 -14 -14h-45c-9.33301 0 -14 4.66699 -14 14z" />
    <glyph glyph-name="iacute" unicode="&#xed;" horiz-adv-x="220" 
d="M167 703h59.001c4.66699 0 7.66699 -1.33301 9 -4s0.666016 -6 -2.00098 -10l-87 -105c-5.33301 -6.66699 -12 -10 -20 -10h-33c-9.33301 0 -11.333 4.66699 -6 14l58 102c4.66699 8.66699 12 13 22 13zM74.001 14v482c0 9.33301 4.33301 14 13 14h46
c9.33301 0 14 -4.66699 14 -14v-482c0 -9.33301 -4.66699 -14 -14 -14h-45c-9.33301 0 -14 4.66699 -14 14z" />
    <glyph glyph-name="icircumflex" unicode="&#xee;" horiz-adv-x="220" 
d="M206 574h-35c-6.66699 0 -11 2.66699 -13 8l-48 88l-47 -88c-2.66699 -5.33301 -7.33398 -8 -14.001 -8h-34c-8.66699 0 -10.667 4 -6 12l64 107c4.66699 6.66699 11.334 10 20.001 10h34c9.33301 0 16.333 -3.33301 21 -10l63 -107c4.66699 -8 3 -12 -5 -12zM74 14v482
c0 9.33301 4.33301 14 13 14h46c9.33301 0 14 -4.66699 14 -14v-482c0 -9.33301 -4.66699 -14 -14 -14h-45c-9.33301 0 -14 4.66699 -14 14z" />
    <glyph glyph-name="idieresis" unicode="&#xef;" horiz-adv-x="220" 
d="M-10 588v101c0 9.33301 4.33301 14 13 14h43c8.66699 0 13 -4.33301 13 -13v-102c0 -9.33301 -4.33301 -14 -13 -14h-43c-8.66699 0 -13 4.66699 -13 14zM161 588v101c0 9.33301 4.33301 14 13 14h43c8.66699 0 13 -4.33301 13 -13v-102c0 -9.33301 -4.33301 -14 -13 -14
h-43c-8.66699 0 -13 4.66699 -13 14zM74 14v482c0 9.33301 4.33301 14 13 14h46c9.33301 0 14 -4.66699 14 -14v-482c0 -9.33301 -4.66699 -14 -14 -14h-45c-9.33301 0 -14 4.66699 -14 14z" />
    <glyph glyph-name="eth" unicode="&#xf0;" horiz-adv-x="494" 
d="M434 336l-0.00195312 -187.998c0 -46.667 -13 -83 -39 -109s-62 -39 -108 -39h-80c-46 0 -82.167 13 -108.5 39s-39.5 62.333 -39.5 109v114c0 46.667 13.167 83 39.5 109s62.5 39 108.5 39h52c25.333 0 47.5 -4.83301 66.5 -14.5s32.167 -22.5 39.5 -38.5h4
c-2 25.333 -11.667 48.666 -29 69.999l-99 111l-94 -78c-6.66699 -4.66699 -13 -4 -19 2l-16 20c-5.33301 6 -4.66602 12.333 2.00098 19l91 77l-73 82c-8 9.33301 -7.33301 17.666 2 24.999l22 16c8 6.66699 15.667 5.66699 23 -3l73 -80l96 81
c8.66699 5.33301 15.334 5 20.001 -1l16 -20c5.33301 -8 5 -15 -1 -21l-95 -79l105 -117c27.333 -30 41 -71.667 41 -125zM360.998 151.002v103c0 61.333 -29.667 92 -89 92h-53c-28 0 -49.5 -7.5 -64.5 -22.5s-22.5 -36.5 -22.5 -64.5v-108c0 -58 27.667 -87 83 -87h62
c56 0 84 29 84 87z" />
    <glyph glyph-name="ntilde" unicode="&#xf1;" horiz-adv-x="512" 
d="M144 653l0.00195312 38c0 7.33301 3 11 9 11h21c6 0 9 -3.66699 9 -11v-26c0 -18.667 1.66699 -31.334 5 -38.001s9.16602 -10 17.499 -10s14.666 2.66699 18.999 8s10.666 17 18.999 35s16.5 30 24.5 36s21.333 9 40 9c37.333 0 56 -25.667 56 -77v-40
c0 -7.33301 -2.66699 -11 -8 -11h-21c-6.66699 0 -10 3.66699 -10 11v27c0 19.333 -1.66699 32.333 -5 39s-8.5 10 -15.5 10s-11.667 -0.333008 -14 -1s-5 -3 -8 -7s-5.16699 -7.5 -6.5 -10.5s-5.16602 -12.167 -11.499 -27.5s-14 -26.166 -23 -32.499
s-22.833 -9.5 -41.5 -9.5c-37.333 0 -56 25.667 -56 77zM128.002 0h-44.999c-9.33301 0 -14 4.66699 -14 14v482c0 9.33301 4.66699 14 14 14h45c9.33301 0 14 -4.66699 14 -14v-39h4c16.667 35.333 50.667 53 102 53h56c45.333 0 80.666 -13 105.999 -39
s38 -62.333 38 -109v-348c0 -9.33301 -4.66699 -14 -14 -14h-45c-9.33301 0 -14 4.66699 -14 14v345c0 58 -28 87 -84 87h-56c-30 0 -53 -8 -69 -24s-24 -38.667 -24 -68v-340c0 -9.33301 -4.66699 -14 -14 -14z" />
    <glyph glyph-name="ograve" unicode="&#xf2;" horiz-adv-x="500" 
d="M270 574h-32.998c-6.66699 0 -13.334 3.33301 -20.001 10l-87 105c-2.66699 4 -3.33398 7.33301 -2.00098 10s4.33301 4 9 4h60c10 0 17.333 -4.33301 22 -13l57 -102c5.33301 -9.33301 3.33301 -14 -6 -14zM293.002 0h-86c-46 0 -82.167 13 -108.5 39
s-39.5 62.333 -39.5 109v214c0 46.667 13.167 83 39.5 109s62.5 39 108.5 39h86c46 0 82.167 -13 108.5 -39s39.5 -62.333 39.5 -109v-214c0 -46.667 -13.167 -83 -39.5 -109s-62.5 -39 -108.5 -39zM215.002 64h70c56 0 84 28.667 84 86v210c0 57.333 -28 86 -84 86h-70
c-56 0 -84 -28.667 -84 -86v-210c0 -57.333 28 -86 84 -86z" />
    <glyph glyph-name="oacute" unicode="&#xf3;" horiz-adv-x="500" 
d="M305 703h61.002c4 0 6.66699 -1.33301 8 -4s0.666016 -6 -2.00098 -10l-87 -105c-6.66699 -6.66699 -13.334 -10 -20.001 -10h-33c-9.33301 0 -11.333 4.66699 -6 14l58 102c4.66699 8.66699 11.667 13 21 13zM293.002 0h-86c-46 0 -82.167 13 -108.5 39
s-39.5 62.333 -39.5 109v214c0 46.667 13.167 83 39.5 109s62.5 39 108.5 39h86c46 0 82.167 -13 108.5 -39s39.5 -62.333 39.5 -109v-214c0 -46.667 -13.167 -83 -39.5 -109s-62.5 -39 -108.5 -39zM215.002 64h70c56 0 84 28.667 84 86v210c0 57.333 -28 86 -84 86h-70
c-56 0 -84 -28.667 -84 -86v-210c0 -57.333 28 -86 84 -86z" />
    <glyph glyph-name="ocircumflex" unicode="&#xf4;" horiz-adv-x="500" 
d="M345 574h-34c-6.66699 0 -11.334 2.66699 -14.001 8l-47 88l-48 -88c-2 -5.33301 -6.66699 -8 -14 -8h-33c-8.66699 0 -10.667 4 -6 12l63 107c4.66699 6.66699 11.667 10 21 10h34c8.66699 0 15.334 -3.33301 20.001 -10l63 -107c4.66699 -8 3 -12 -5 -12zM293 0h-86
c-46 0 -82.167 13 -108.5 39s-39.5 62.333 -39.5 109v214c0 46.667 13.167 83 39.5 109s62.5 39 108.5 39h86c46 0 82.167 -13 108.5 -39s39.5 -62.333 39.5 -109v-214c0 -46.667 -13.167 -83 -39.5 -109s-62.5 -39 -108.5 -39zM215 64h70c56 0 84 28.667 84 86v210
c0 57.333 -28 86 -84 86h-70c-56 0 -84 -28.667 -84 -86v-210c0 -57.333 28 -86 84 -86z" />
    <glyph glyph-name="otilde" unicode="&#xf5;" horiz-adv-x="500" 
d="M136 653l0.00195312 38c0 7.33301 3 11 9 11h21c6 0 9 -3.66699 9 -11v-26c0 -18.667 1.66699 -31.334 5 -38.001s9.16602 -10 17.499 -10s14.666 2.66699 18.999 8s10.666 17 18.999 35s16.5 30 24.5 36s21.333 9 40 9c37.333 0 56 -25.667 56 -77v-40
c0 -7.33301 -2.66699 -11 -8 -11h-21c-6.66699 0 -10 3.66699 -10 11v27c0 19.333 -1.66699 32.333 -5 39s-8.5 10 -15.5 10s-11.667 -0.333008 -14 -1s-5 -3 -8 -7s-5.16699 -7.5 -6.5 -10.5s-5.16602 -12.167 -11.499 -27.5s-14 -26.166 -23 -32.499
s-22.833 -9.5 -41.5 -9.5c-37.333 0 -56 25.667 -56 77zM293.002 0h-86c-46 0 -82.167 13 -108.5 39s-39.5 62.333 -39.5 109v214c0 46.667 13.167 83 39.5 109s62.5 39 108.5 39h86c46 0 82.167 -13 108.5 -39s39.5 -62.333 39.5 -109v-214
c0 -46.667 -13.167 -83 -39.5 -109s-62.5 -39 -108.5 -39zM215.002 64h70c56 0 84 28.667 84 86v210c0 57.333 -28 86 -84 86h-70c-56 0 -84 -28.667 -84 -86v-210c0 -57.333 28 -86 84 -86z" />
    <glyph glyph-name="odieresis" unicode="&#xf6;" horiz-adv-x="500" 
d="M130 588v101c0 9.33301 4.33301 14 13 14h43c8.66699 0 13 -4.33301 13 -13v-102c0 -9.33301 -4.33301 -14 -13 -14h-43c-8.66699 0 -13 4.66699 -13 14zM301 588v101c0 9.33301 4.33301 14 13 14h43c8.66699 0 13 -4.33301 13 -13v-102c0 -9.33301 -4.33301 -14 -13 -14
h-43c-8.66699 0 -13 4.66699 -13 14zM293 0h-86c-46 0 -82.167 13 -108.5 39s-39.5 62.333 -39.5 109v214c0 46.667 13.167 83 39.5 109s62.5 39 108.5 39h86c46 0 82.167 -13 108.5 -39s39.5 -62.333 39.5 -109v-214c0 -46.667 -13.167 -83 -39.5 -109
s-62.5 -39 -108.5 -39zM215 64h70c56 0 84 28.667 84 86v210c0 57.333 -28 86 -84 86h-70c-56 0 -84 -28.667 -84 -86v-210c0 -57.333 28 -86 84 -86z" />
    <glyph glyph-name="divide" unicode="&#xf7;" horiz-adv-x="496" 
d="M221 151v57c0 9.33301 4.66699 14 14 14h27c9.33301 0 14 -4.66699 14 -14v-57c0 -9.33301 -4.66699 -14 -14 -14h-27c-9.33301 0 -14 4.66699 -14 14zM409 294h-321c-10 0 -15 4.66699 -15 14v26c0 8.66699 5 13 15 13h321c9.33301 0 14 -4.33301 14 -13v-26
c0 -9.33301 -4.66699 -14 -14 -14zM221 433v58c0 9.33301 4.66699 14 14 14h27c9.33301 0 14 -4.66699 14 -14v-58c0 -9.33301 -4.66699 -14 -14 -14h-27c-9.33301 0 -14 4.66699 -14 14z" />
    <glyph glyph-name="oslash" unicode="&#xf8;" horiz-adv-x="521" 
d="M452 362l-0.000976562 -213.999c0 -46 -13.167 -82.167 -39.5 -108.5s-62.5 -39.5 -108.5 -39.5h-87c-56 0 -97 18.667 -123 56l-34 -34c-7.33301 -6.66699 -14 -6.66699 -20 0l-12 12c-6.66699 6.66699 -6.66699 13.334 0 20.001l47 47c-4 14 -6 29.667 -6 47v214
c0 46 13.167 82.167 39.5 108.5s62.5 39.5 108.5 39.5h87c56 0 97 -19 123 -57l34 34c6.66699 7.33301 13.334 7.66602 20.001 0.999023l12 -12c6.66699 -6.66699 6.66699 -13.334 0 -20.001l-47 -47c4 -14 6 -29.667 6 -47zM141.999 359.001v-191l230 230
c-10 32 -35.667 48 -77 48h-69c-56 0 -84 -29 -84 -87zM377.999 151.001v190l-230 -231c11.333 -30.667 37.333 -46 78 -46h69c55.333 0 83 29 83 87z" />
    <glyph glyph-name="ugrave" unicode="&#xf9;" horiz-adv-x="512" 
d="M274 574h-32.999c-8 0 -14.667 3.33301 -20 10l-87 105c-2.66699 4 -3.33398 7.33301 -2.00098 10s4.33301 4 9 4h60c10 0 17 -4.33301 21 -13l58 -102c5.33301 -9.33301 3.33301 -14 -6 -14zM264.001 0h-56.001c-45.333 0 -80.666 13 -105.999 39s-38 62.333 -38 109
v348c0 9.33301 4.66699 14 14 14h45c9.33301 0 14 -4.66699 14 -14v-345c0 -58 27.667 -87 83 -87h57c30 0 53 8 69 24s24 38.667 24 68v340c0 9.33301 4.66699 14 14 14h45c9.33301 0 14 -4.66699 14 -14v-482c0 -9.33301 -4.66699 -14 -14 -14h-45
c-9.33301 0 -14 4.66699 -14 14v39h-4c-16.667 -35.333 -50.667 -53 -102 -53z" />
    <glyph glyph-name="uacute" unicode="&#xfa;" horiz-adv-x="512" 
d="M306 703h61.002c4 0 6.66699 -1.33301 8 -4s0.666016 -6 -2.00098 -10l-87 -105c-6.66699 -6.66699 -13.334 -10 -20.001 -10h-33c-9.33301 0 -11.333 4.66699 -6 14l58 102c4 8.66699 11 13 21 13zM264.002 0h-56.001c-45.333 0 -80.666 13 -105.999 39
s-38 62.333 -38 109v348c0 9.33301 4.66699 14 14 14h45c9.33301 0 14 -4.66699 14 -14v-345c0 -58 27.667 -87 83 -87h57c30 0 53 8 69 24s24 38.667 24 68v340c0 9.33301 4.66699 14 14 14h45c9.33301 0 14 -4.66699 14 -14v-482c0 -9.33301 -4.66699 -14 -14 -14h-45
c-9.33301 0 -14 4.66699 -14 14v39h-4c-16.667 -35.333 -50.667 -53 -102 -53z" />
    <glyph glyph-name="ucircumflex" unicode="&#xfb;" horiz-adv-x="512" 
d="M349 574h-33.999c-7.33301 0 -12 2.66699 -14 8l-48 88l-47 -88c-2.66699 -5.33301 -7.33398 -8 -14.001 -8h-34c-8 0 -9.66699 4 -5 12l63 107c4.66699 6.66699 11.667 10 21 10h33c9.33301 0 16.333 -3.33301 21 -10l63 -107c4.66699 -8 3 -12 -5 -12zM264.001 0
h-56.001c-45.333 0 -80.666 13 -105.999 39s-38 62.333 -38 109v348c0 9.33301 4.66699 14 14 14h45c9.33301 0 14 -4.66699 14 -14v-345c0 -58 27.667 -87 83 -87h57c30 0 53 8 69 24s24 38.667 24 68v340c0 9.33301 4.66699 14 14 14h45c9.33301 0 14 -4.66699 14 -14
v-482c0 -9.33301 -4.66699 -14 -14 -14h-45c-9.33301 0 -14 4.66699 -14 14v39h-4c-16.667 -35.333 -50.667 -53 -102 -53z" />
    <glyph glyph-name="udieresis" unicode="&#xfc;" horiz-adv-x="512" 
d="M134 588v101c0 9.33301 4 14 12 14h43c8.66699 0 13 -4.33301 13 -13v-102c0 -9.33301 -4.33301 -14 -13 -14h-43c-8 0 -12 4.66699 -12 14zM305 588v101c0 9.33301 4 14 12 14h43c8.66699 0 13 -4.33301 13 -13v-102c0 -9.33301 -4.33301 -14 -13 -14h-43
c-8 0 -12 4.66699 -12 14zM264 0h-56.001c-45.333 0 -80.666 13 -105.999 39s-38 62.333 -38 109v348c0 9.33301 4.66699 14 14 14h45c9.33301 0 14 -4.66699 14 -14v-345c0 -58 27.667 -87 83 -87h57c30 0 53 8 69 24s24 38.667 24 68v340c0 9.33301 4.66699 14 14 14h45
c9.33301 0 14 -4.66699 14 -14v-482c0 -9.33301 -4.66699 -14 -14 -14h-45c-9.33301 0 -14 4.66699 -14 14v39h-4c-16.667 -35.333 -50.667 -53 -102 -53z" />
    <glyph glyph-name="yacute" unicode="&#xfd;" horiz-adv-x="463" 
d="M287 703h60.001c4.66699 0 7.66699 -1.33301 9 -4s0.666016 -6 -2.00098 -10l-88 -105c-5.33301 -6.66699 -12 -10 -20 -10h-32c-8.66699 0 -11 4.66699 -7 14l58 102c4.66699 8.66699 12 13 22 13zM110.001 -157l-43.998 0.000976562c-9.33301 0 -14 4.66699 -14 14v37
c0 9.33301 4.66699 14 14 14h25c42.667 0 72.667 12 90 36c14 19.333 26.667 47 38 83h-29c-8 0 -13.667 4.66699 -17 14l-147 455c-2.66699 9.33301 0.666016 14 9.99902 14h48c8.66699 0 14.334 -4.66699 17.001 -14l129 -412h4l129 412c2 9.33301 7.33301 14 16 14h46
c11.333 0 15.333 -5 12 -15l-149 -475c-16.667 -56.667 -37.834 -100.334 -63.501 -131.001s-63.834 -46 -114.501 -46z" />
    <glyph glyph-name="thorn" unicode="&#xfe;" horiz-adv-x="514" 
d="M238 64h60c56 0 84 29 84 87v208c0 58 -28 87 -84 87h-60c-30 0 -53 -8 -69 -24s-24 -38.667 -24 -68v-198c0 -29.333 8 -52 24 -68s39 -24 69 -24zM145 53v-172c0 -9.33301 -4.66699 -14 -14 -14h-45c-9.33301 0 -14 4.66699 -14 14v808c0 9.33301 4.66699 14 14 14h45
c9.33301 0 14 -4.66699 14 -14v-232h4c16.667 35.333 50.667 53 102 53h56c46 0 82.167 -13.167 108.5 -39.5s39.5 -62.5 39.5 -108.5v-214c0 -46 -13.167 -82.167 -39.5 -108.5s-62.5 -39.5 -108.5 -39.5h-56c-51.333 0 -85.333 17.667 -102 53h-4z" />
    <glyph glyph-name="ydieresis" unicode="&#xff;" horiz-adv-x="463" 
d="M112 588v101c0 9.33301 4.33301 14 13 14h43c8.66699 0 13 -4.33301 13 -13v-102c0 -9.33301 -4.33301 -14 -13 -14h-43c-8.66699 0 -13 4.66699 -13 14zM283 588v101c0 9.33301 4.33301 14 13 14h43c8.66699 0 13 -4.33301 13 -13v-102c0 -9.33301 -4.33301 -14 -13 -14
h-43c-8.66699 0 -13 4.66699 -13 14zM110 -157l-43.998 0.000976562c-9.33301 0 -14 4.66699 -14 14v37c0 9.33301 4.66699 14 14 14h25c42.667 0 72.667 12 90 36c14 19.333 26.667 47 38 83h-29c-8 0 -13.667 4.66699 -17 14l-147 455
c-2.66699 9.33301 0.666016 14 9.99902 14h48c8.66699 0 14.334 -4.66699 17.001 -14l129 -412h4l129 412c2 9.33301 7.33301 14 16 14h46c11.333 0 15.333 -5 12 -15l-149 -475c-16.667 -56.667 -37.834 -100.334 -63.501 -131.001s-63.834 -46 -114.501 -46z" />
    <glyph glyph-name="Amacron" unicode="&#x100;" horiz-adv-x="539" 
d="M370 746h-201c-9.33301 0 -14 4.66699 -14 14v26c0 9.33301 4.66699 14 14 14h201c9.33301 0 14 -4.66699 14 -14v-26c0 -9.33301 -4.66699 -14 -14 -14zM87 0h-50c-8.66699 0 -11.667 4.66699 -9 14l187 615c2.66699 9.33301 9 14 19 14h72c10 0 16.333 -4.66699 19 -14
l187 -615c2.66699 -9.33301 -0.333008 -14 -9 -14h-51c-7.33301 0 -12 4.66699 -14 14l-47 146h-242l-47 -146c-2.66699 -9.33301 -7.66699 -14 -15 -14zM268 568l-103 -346h210l-103 346h-4z" />
    <glyph glyph-name="amacron" unicode="&#x101;" horiz-adv-x="507" 
d="M378 613h-201c-9.33301 0 -14 4.66699 -14 14v24c0 9.33301 4.66699 14 14 14h201c9.33301 0 14 -4.66699 14 -14v-24c0 -9.33301 -4.66699 -14 -14 -14zM259 0h-52c-46 0 -82.167 13 -108.5 39s-39.5 62.333 -39.5 109v214c0 46.667 13.167 83 39.5 109
s62.5 39 108.5 39h217c9.33301 0 14 -4.66699 14 -14v-482c0 -9.33301 -4.66699 -14 -14 -14h-45c-9.33301 0 -14 4.66699 -14 14v39h-4c-16.667 -35.333 -50.667 -53 -102 -53zM365 156v281c0 6 -3.33301 9 -10 9h-140c-55.333 0 -83 -29 -83 -87v-208
c0 -58 27.667 -87 83 -87h57c30 0 53 8 69 24s24 38.667 24 68z" />
    <glyph glyph-name="Abreve" unicode="&#x102;" horiz-adv-x="539" 
d="M165 825c0 7.33301 3.66699 11 11 11h27c7.33301 0 11 -3.66699 11 -11v-10c0 -24.667 4 -42.167 12 -52.5s21.667 -15.5 41 -15.5h5c20 0 34.167 5.16699 42.5 15.5s12.5 27.833 12.5 52.5v10c0 6.66699 3.33301 10 10 10h26c7.33301 0 11 -3.33301 11 -10v-12
c0 -70.667 -32 -106 -96 -106h-18c-63.333 0 -95 35.333 -95 106v12zM87 0h-50c-8.66699 0 -11.667 4.66699 -9 14l187 615c2.66699 9.33301 9 14 19 14h72c10 0 16.333 -4.66699 19 -14l187 -615c2.66699 -9.33301 -0.333008 -14 -9 -14h-51c-7.33301 0 -12 4.66699 -14 14
l-47 146h-242l-47 -146c-2.66699 -9.33301 -7.66699 -14 -15 -14zM268 568l-103 -346h210l-103 346h-4z" />
    <glyph glyph-name="abreve" unicode="&#x103;" horiz-adv-x="507" 
d="M365 156v281c0 6 -3.33301 9 -10 9h-140c-55.333 0 -83 -29 -83 -87v-208c0 -58 27.667 -87 83 -87h57c30 0 53 8 69 24s24 38.667 24 68zM259 0h-52c-46 0 -82.167 13 -108.5 39s-39.5 62.333 -39.5 109v214c0 46.667 13.167 83 39.5 109s62.5 39 108.5 39h217
c9.33301 0 14 -4.66699 14 -14v-482c0 -9.33301 -4.66699 -14 -14 -14h-45c-9.33301 0 -14 4.66699 -14 14v39h-4c-16.667 -35.333 -50.667 -53 -102 -53zM167 680v12c0 7.33301 3.66699 11 11 11h27c7.33301 0 11 -3.66699 11 -11v-10c0 -24.667 4 -42.167 12 -52.5
s21.667 -15.5 41 -15.5h5c20 0 34 5.16699 42 15.5s12 27.833 12 52.5v10c0 6.66699 3.66699 10 11 10h26c7.33301 0 11 -3.33301 11 -10v-12c0 -70.667 -32 -106 -96 -106h-18c-63.333 0 -95 35.333 -95 106z" />
    <glyph glyph-name="Aogonek" unicode="&#x104;" horiz-adv-x="539" 
d="M503 0l-38 0.000976562l-48 -67h39c10.667 0 17.667 -1 21 -3s5 -5.66699 5 -11c0 -8.66699 -8.33301 -15.834 -25 -21.501s-34 -8.5 -52 -8.5s-29.5 4.66699 -34.5 14s-3.5 19.333 4.5 30l61 86l-45 141h-242l-47 -146c-2.66699 -9.33301 -7.66699 -14 -15 -14h-50
c-8.66699 0 -11.667 4.66699 -9 14l187 615c2.66699 9.33301 9 14 19 14h72c10 0 16.333 -4.66699 19 -14l187 -615c2.66699 -9.33301 -0.333008 -14 -9 -14zM165 222.001h210l-103 346h-4z" />
    <glyph glyph-name="aogonek" unicode="&#x105;" horiz-adv-x="507" 
d="M207 510h217.001c9.33301 0 14 -4.66699 14 -14v-482c0 -9.33301 -4.66699 -14 -14 -14h-31c-33.333 -46 -48.666 -69 -45.999 -69c17.333 0 30.666 0.666992 39.999 2c9.33301 0 15.666 -1 18.999 -3s4.66602 -5.33301 3.99902 -10
c-0.666992 -9.33301 -9.16699 -17.333 -25.5 -24s-33 -10 -50 -10s-27.167 6.5 -30.5 19.5s-0.666016 24.5 8.00098 34.5l53 77v36h-4c-16.667 -35.333 -50.667 -53 -102 -53h-52c-46 0 -82.167 13 -108.5 39s-39.5 62.333 -39.5 109v214c0 46.667 13.167 83 39.5 109
s62.5 39 108.5 39zM215.001 64h57c30 0 53 8 69 24s24 38.667 24 68v281c0 6 -3.33301 9 -10 9h-140c-55.333 0 -83 -29 -83 -87v-208c0 -58 27.667 -87 83 -87z" />
    <glyph glyph-name="Cacute" unicode="&#x106;" horiz-adv-x="541" 
d="M337 0h-120c-46 0 -82.167 13 -108.5 39s-39.5 62.333 -39.5 109v347c0 46.667 13.167 83 39.5 109s62.5 39 108.5 39h120c46 0 82.167 -13 108.5 -39s39.5 -62.333 39.5 -109v-49c0 -9.33301 -4.66699 -14 -14 -14h-45c-9.33301 0 -14 4.66699 -14 14v46
c0 58 -28 87 -84 87h-103c-55.333 0 -83 -29 -83 -87v-341c0 -58 27.667 -87 83 -87h103c56 0 84 29 84 87v46c0 9.33301 4.66699 14 14 14h45c9.33301 0 14 -4.66699 14 -14v-49c0 -46.667 -13.167 -83 -39.5 -109s-62.5 -39 -108.5 -39zM323 836h60.001
c4.66699 0 7.66699 -1.33301 9 -4s0.666016 -6 -2.00098 -10l-87 -105c-5.33301 -6.66699 -12 -10 -20 -10h-33c-9.33301 0 -11.333 4.66699 -6 14l57 102c4.66699 8.66699 12 13 22 13z" />
    <glyph glyph-name="cacute" unicode="&#x107;" horiz-adv-x="399" 
d="M278 703h60.002c4.66699 0 7.66699 -1.33301 9 -4s0.666016 -6 -2.00098 -10l-87 -105c-6.66699 -6.66699 -13.334 -10 -20.001 -10h-33c-9.33301 0 -11.333 4.66699 -6 14l57 102c6 8.66699 13.333 13 22 13zM366.002 50v-37c0 -8.66699 -4.66699 -13 -14 -13h-145
c-46 0 -82.167 13 -108.5 39s-39.5 62.333 -39.5 109v214c0 46.667 13.167 83 39.5 109s62.5 39 108.5 39h145c9.33301 0 14 -4.66699 14 -14v-37c0 -8.66699 -4.66699 -13 -14 -13h-137c-55.333 0 -83 -29 -83 -87v-208c0 -58 27.667 -87 83 -87h137
c9.33301 0 14 -4.66699 14 -14z" />
    <glyph glyph-name="Cdotaccent" unicode="&#x10a;" horiz-adv-x="541" 
d="M337 0h-120c-46 0 -82.167 13 -108.5 39s-39.5 62.333 -39.5 109v347c0 46.667 13.167 83 39.5 109s62.5 39 108.5 39h120c46 0 82.167 -13 108.5 -39s39.5 -62.333 39.5 -109v-49c0 -9.33301 -4.66699 -14 -14 -14h-45c-9.33301 0 -14 4.66699 -14 14v46
c0 58 -28 87 -84 87h-103c-55.333 0 -83 -29 -83 -87v-341c0 -58 27.667 -87 83 -87h103c56 0 84 29 84 87v46c0 9.33301 4.66699 14 14 14h45c9.33301 0 14 -4.66699 14 -14v-49c0 -46.667 -13.167 -83 -39.5 -109s-62.5 -39 -108.5 -39zM241 725v97
c0 9.33301 4.33301 14 13 14h46c8.66699 0 13 -4.66699 13 -14v-97c0 -9.33301 -4.33301 -14 -13 -14h-46c-8.66699 0 -13 4.66699 -13 14z" />
    <glyph glyph-name="cdotaccent" unicode="&#x10b;" horiz-adv-x="399" 
d="M197 590v97c0 9.33301 4.33301 14 13 14h46c8.66699 0 13 -4.33301 13 -13v-98c0 -9.33301 -4.33301 -14 -13 -14h-46c-8.66699 0 -13 4.66699 -13 14zM366 50v-37c0 -8.66699 -4.66699 -13 -14 -13h-145c-46 0 -82.167 13 -108.5 39s-39.5 62.333 -39.5 109v214
c0 46.667 13.167 83 39.5 109s62.5 39 108.5 39h145c9.33301 0 14 -4.66699 14 -14v-37c0 -8.66699 -4.66699 -13 -14 -13h-137c-55.333 0 -83 -29 -83 -87v-208c0 -58 27.667 -87 83 -87h137c9.33301 0 14 -4.66699 14 -14z" />
    <glyph glyph-name="Ccaron" unicode="&#x10c;" horiz-adv-x="541" 
d="M337 0h-120c-46 0 -82.167 13 -108.5 39s-39.5 62.333 -39.5 109v347c0 46.667 13.167 83 39.5 109s62.5 39 108.5 39h120c46 0 82.167 -13 108.5 -39s39.5 -62.333 39.5 -109v-49c0 -9.33301 -4.66699 -14 -14 -14h-45c-9.33301 0 -14 4.66699 -14 14v46
c0 58 -28 87 -84 87h-103c-55.333 0 -83 -29 -83 -87v-341c0 -58 27.667 -87 83 -87h103c56 0 84 29 84 87v46c0 9.33301 4.66699 14 14 14h45c9.33301 0 14 -4.66699 14 -14v-49c0 -46.667 -13.167 -83 -39.5 -109s-62.5 -39 -108.5 -39zM295 707h-33.001
c-9.33301 0 -16.333 3.33301 -21 10l-63 107c-4.66699 8 -2.66699 12 6 12h33c7.33301 0 12 -2.66699 14 -8l48 -88l47 88c2.66699 5.33301 7.33398 8 14.001 8h34c8 0 9.66699 -4 5 -12l-63 -107c-4.66699 -6.66699 -11.667 -10 -21 -10z" />
    <glyph glyph-name="ccaron" unicode="&#x10d;" horiz-adv-x="399" 
d="M220 574c-9.33301 0 -16.334 3.33301 -21.001 10l-63 107c-4.66699 8 -2.66699 12 6 12h34c6.66699 0 11.334 -2.66699 14.001 -8l47 -88l47 88c2.66699 5.33301 7.33398 8 14.001 8h34c8.66699 0 10.667 -4 6 -12l-64 -107c-4.66699 -6.66699 -11.334 -10 -20.001 -10
h-34zM365.999 50v-37c0 -8.66699 -4.66699 -13 -14 -13h-145c-46 0 -82.167 13 -108.5 39s-39.5 62.333 -39.5 109v214c0 46.667 13.167 83 39.5 109s62.5 39 108.5 39h145c9.33301 0 14 -4.66699 14 -14v-37c0 -8.66699 -4.66699 -13 -14 -13h-137
c-55.333 0 -83 -29 -83 -87v-208c0 -58 27.667 -87 83 -87h137c9.33301 0 14 -4.66699 14 -14z" />
    <glyph glyph-name="Dcaron" unicode="&#x10e;" horiz-adv-x="556" 
d="M258 707c-9.33301 0 -16.334 3.33301 -21.001 10l-63 107c-4.66699 8 -2.66699 12 6 12h33c6.66699 0 11.334 -2.66699 14.001 -8l47 -88l48 88c2.66699 5.33301 7.33398 8 14.001 8h34c8 0 9.66699 -4 5 -12l-63 -107c-4.66699 -6.66699 -11.334 -10 -20.001 -10h-34z
M161.999 64h168c56 0 84 29 84 87v341c0 58 -28 87 -84 87h-168c-6.66699 0 -10 -3 -10 -9v-497c0 -6 3.33301 -9 10 -9zM78.999 14v615c0 9.33301 4.66699 14 14 14h246c46 0 82.167 -13.167 108.5 -39.5s39.5 -62.5 39.5 -108.5v-347c0 -46 -13.167 -82.167 -39.5 -108.5
s-62.5 -39.5 -108.5 -39.5h-246c-9.33301 0 -14 4.66699 -14 14z" />
    <glyph glyph-name="dcaron" unicode="&#x10f;" horiz-adv-x="563" 
d="M568 690l0.000976562 -57.999c0 -16.667 -5 -38.334 -15 -65.001l-33 -95c-2.66699 -4.66699 -6.33398 -7 -11.001 -7c-7.33301 0 -11 4 -11 12v212c0 9.33301 4.33301 14 13 14h44c8.66699 0 13 -4.33301 13 -13zM262.001 0.000976562h-59
c-45.333 0 -80.666 13 -105.999 39s-38 62.333 -38 109v214c0 46.667 12.667 83 38 109s60.666 39 105.999 39h59c52 0 86.333 -17.667 103 -53h4v232c0 9.33301 4.33301 14 13 14h46c8.66699 0 13 -4.66699 13 -14v-675c0 -9.33301 -4.33301 -14 -13 -14h-46
c-8.66699 0 -13 4.66699 -13 14v39h-4c-16.667 -35.333 -51 -53 -103 -53zM369.001 156.001v198c0 29.333 -8 52 -24 68s-39 24 -69 24h-61c-55.333 0 -83 -29 -83 -87v-208c0 -58 27.667 -87 83 -87h61c30 0 53 8 69 24s24 38.667 24 68z" />
    <glyph glyph-name="Dcroat" unicode="&#x110;" horiz-adv-x="529" 
d="M168 64h168c56 0 84 29 84 87v341c0 58 -28 87 -84 87h-168c-6.66699 0 -10 -3 -10 -9v-165c0 -6.66699 3.33301 -10 10 -10h126c9.33301 0 14 -4.33301 14 -13v-30c0 -8.66699 -4.66699 -13 -14 -13h-126c-6.66699 0 -10 -3.33301 -10 -10v-256c0 -6 3.33301 -9 10 -9z
M345 0h-246c-9.33301 0 -14 4.66699 -14 14v315c0 6.66699 -3.33301 10 -10 10h-37c-9.33301 0 -14 4.33301 -14 13v30c0 8.66699 4.66699 13 14 13h37c6.66699 0 10 3.33301 10 10v224c0 9.33301 4.66699 14 14 14h246c46 0 82.167 -13 108.5 -39s39.5 -62.333 39.5 -109
v-347c0 -46.667 -13.167 -83 -39.5 -109s-62.5 -39 -108.5 -39z" />
    <glyph glyph-name="dcroat" unicode="&#x111;" horiz-adv-x="546" 
d="M262 0h-55c-46 0 -82.167 13 -108.5 39s-39.5 62.333 -39.5 109v152c0 46 13.167 82 39.5 108s62.5 39 108.5 39h55c52 0 86.333 -17.667 103 -53h4v146c0 6.66699 -3.66699 10 -11 10h-152c-8.66699 0 -13 4.33301 -13 13v30c0 8.66699 4.33301 13 13 13h152
c7.33301 0 11 3.33301 11 10v73c0 9.33301 4.33301 14 13 14h46c8.66699 0 13 -4.66699 13 -14v-73c0 -6.66699 3.66699 -10 11 -10h60c10 0 15 -4.33301 15 -13v-30c0 -8.66699 -5 -13 -15 -13h-60c-7.33301 0 -11 -3.33301 -11 -10v-526c0 -9.33301 -4.33301 -14 -13 -14
h-46c-8.66699 0 -13 4.66699 -13 14v39h-4c-16.667 -35.333 -51 -53 -103 -53zM369 156v136c0 28.667 -8 51 -24 67s-39 24 -69 24h-61c-55.333 0 -83 -29 -83 -87v-145c0 -58 27.667 -87 83 -87h61c30 0 53 8 69 24s24 38.667 24 68z" />
    <glyph glyph-name="Emacron" unicode="&#x112;" horiz-adv-x="480" 
d="M350 746h-201c-9.33301 0 -14 4.66699 -14 14v26c0 9.33301 4.66699 14 14 14h201c9.33301 0 14 -4.66699 14 -14v-26c0 -9.33301 -4.66699 -14 -14 -14zM407 0h-314c-9.33301 0 -14 4.66699 -14 14v615c0 9.33301 4.66699 14 14 14h314c9.33301 0 14 -4.66699 14 -14
v-36c0 -9.33301 -4.66699 -14 -14 -14h-245c-6.66699 0 -10 -3 -10 -9v-202c0 -6 3.33301 -9 10 -9h214c9.33301 0 14 -4.66699 14 -14v-36c0 -9.33301 -4.66699 -14 -14 -14h-214c-6.66699 0 -10 -3 -10 -9v-213c0 -6 3.33301 -9 10 -9h245c9.33301 0 14 -4.66699 14 -14
v-36c0 -9.33301 -4.66699 -14 -14 -14z" />
    <glyph glyph-name="emacron" unicode="&#x113;" horiz-adv-x="492" 
d="M351 613h-201c-9.33301 0 -14 4.66699 -14 14v24c0 9.33301 4.66699 14 14 14h201c10 0 15 -4.66699 15 -14v-24c0 -9.33301 -5 -14 -15 -14zM419 0h-212c-46 0 -82.167 13 -108.5 39s-39.5 62.333 -39.5 109v214c0 46.667 13.167 83 39.5 109s62.5 39 108.5 39h84
c46 0 82 -13 108 -39s39 -62.333 39 -109v-127c0 -10 -4.66699 -15 -14 -15h-283c-6.66699 0 -10 -3 -10 -9v-61c0 -58 28 -87 84 -87h204c9.33301 0 14 -4.66699 14 -14v-36c0 -8.66699 -4.66699 -13 -14 -13zM141 273h216c6.66699 0 10 3.33301 10 10v77
c0 57.333 -28 86 -84 86h-68c-56 0 -84 -28.667 -84 -86v-77c0 -6.66699 3.33301 -10 10 -10z" />
    <glyph glyph-name="Ebreve" unicode="&#x114;" horiz-adv-x="480" 
d="M141 825c0 7.33301 3.66699 11 11 11h28c6.66699 0 10 -3.66699 10 -11v-10c0 -24.667 4 -42.167 12 -52.5s21.667 -15.5 41 -15.5h5c20 0 34.167 5.16699 42.5 15.5s12.5 27.833 12.5 52.5v10c0 6.66699 3.33301 10 10 10h26c7.33301 0 11 -3.33301 11 -10v-12
c0 -70.667 -32 -106 -96 -106h-17c-64 0 -96 35.333 -96 106v12zM407 0h-314c-9.33301 0 -14 4.66699 -14 14v615c0 9.33301 4.66699 14 14 14h314c9.33301 0 14 -4.66699 14 -14v-36c0 -9.33301 -4.66699 -14 -14 -14h-245c-6.66699 0 -10 -3 -10 -9v-202
c0 -6 3.33301 -9 10 -9h214c9.33301 0 14 -4.66699 14 -14v-36c0 -9.33301 -4.66699 -14 -14 -14h-214c-6.66699 0 -10 -3 -10 -9v-213c0 -6 3.33301 -9 10 -9h245c9.33301 0 14 -4.66699 14 -14v-36c0 -9.33301 -4.66699 -14 -14 -14z" />
    <glyph glyph-name="ebreve" unicode="&#x115;" horiz-adv-x="492" 
d="M141 273h216c6.66699 0 10 3.33301 10 10v77c0 57.333 -28 86 -84 86h-68c-56 0 -84 -28.667 -84 -86v-77c0 -6.66699 3.33301 -10 10 -10zM419 0h-212c-46 0 -82.167 13 -108.5 39s-39.5 62.333 -39.5 109v214c0 46.667 13.167 83 39.5 109s62.5 39 108.5 39h84
c46 0 82 -13 108 -39s39 -62.333 39 -109v-127c0 -10 -4.66699 -15 -14 -15h-283c-6.66699 0 -10 -3 -10 -9v-61c0 -58 28 -87 84 -87h204c9.33301 0 14 -4.66699 14 -14v-36c0 -8.66699 -4.66699 -13 -14 -13zM144 680l0.000976562 12c0 7.33301 3.66699 11 11 11h27
c6.66699 0 10 -3.66699 10 -11v-10c0 -24.667 4 -42.167 12 -52.5s21.667 -15.5 41 -15.5h6c19.333 0 33.166 5.16699 41.499 15.5s12.5 27.833 12.5 52.5v10c0 6.66699 3.66699 10 11 10h26c7.33301 0 11 -3.33301 11 -10v-12c0 -70.667 -32 -106 -96 -106h-18
c-63.333 0 -95 35.333 -95 106z" />
    <glyph glyph-name="Edotaccent" unicode="&#x116;" horiz-adv-x="492" 
d="M213 725v97c0 9.33301 4.66699 14 14 14h46c8.66699 0 13 -4.66699 13 -14v-97c0 -9.33301 -4.33301 -14 -13 -14h-46c-9.33301 0 -14 4.66699 -14 14zM407 0h-314c-9.33301 0 -14 4.66699 -14 14v615c0 9.33301 4.66699 14 14 14h314c9.33301 0 14 -4.66699 14 -14v-36
c0 -9.33301 -4.66699 -14 -14 -14h-245c-6.66699 0 -10 -3 -10 -9v-202c0 -6 3.33301 -9 10 -9h214c9.33301 0 14 -4.66699 14 -14v-36c0 -9.33301 -4.66699 -14 -14 -14h-214c-6.66699 0 -10 -3 -10 -9v-213c0 -6 3.33301 -9 10 -9h245c9.33301 0 14 -4.66699 14 -14v-36
c0 -9.33301 -4.66699 -14 -14 -14z" />
    <glyph glyph-name="edotaccent" unicode="&#x117;" horiz-adv-x="492" 
d="M215 590v97c0 9.33301 4.33301 14 13 14h46c9.33301 0 14 -4.33301 14 -13v-98c0 -9.33301 -4.66699 -14 -14 -14h-46c-8.66699 0 -13 4.66699 -13 14zM419 0h-212c-46 0 -82.167 13 -108.5 39s-39.5 62.333 -39.5 109v214c0 46.667 13.167 83 39.5 109s62.5 39 108.5 39
h84c46 0 82 -13 108 -39s39 -62.333 39 -109v-127c0 -10 -4.66699 -15 -14 -15h-283c-6.66699 0 -10 -3 -10 -9v-61c0 -58 28 -87 84 -87h204c9.33301 0 14 -4.66699 14 -14v-36c0 -8.66699 -4.66699 -13 -14 -13zM141 273h216c6.66699 0 10 3.33301 10 10v77
c0 57.333 -28 86 -84 86h-68c-56 0 -84 -28.667 -84 -86v-77c0 -6.66699 3.33301 -10 10 -10z" />
    <glyph glyph-name="Eogonek" unicode="&#x118;" horiz-adv-x="480" 
d="M407 579l-245 0.000976562c-6.66699 0 -10 -3 -10 -9v-202c0 -6 3.33301 -9 10 -9h214c9.33301 0 14 -4.66699 14 -14v-36c0 -9.33301 -4.66699 -14 -14 -14h-214c-6.66699 0 -10 -3 -10 -9v-213c0 -6 3.33301 -9 10 -9h245c9.33301 0 14 -4.66699 14 -14v-36
c0 -9.33301 -4.66699 -14 -14 -14h-48l-49 -67h40c10.667 0 17.667 -1 21 -3s5 -5.66699 5 -11c0 -8.66699 -8.5 -15.834 -25.5 -21.501s-34.667 -8.5 -53 -8.5s-29.833 4.66699 -34.5 14s-2.66699 19.333 6 30l48 67h-224c-9.33301 0 -14 4.66699 -14 14v615
c0 9.33301 4.66699 14 14 14h314c9.33301 0 14 -4.66699 14 -14v-36c0 -9.33301 -4.66699 -14 -14 -14z" />
    <glyph glyph-name="eogonek" unicode="&#x119;" horiz-adv-x="492" 
d="M207 510h84.002c46 0 82 -13 108 -39s39 -62.333 39 -109v-127c0 -10 -4.66699 -15 -14 -15h-283c-6.66699 0 -10 -3 -10 -9v-61c0 -58 28 -87 84 -87h204c9.33301 0 14 -4.66699 14 -14v-36c0 -8.66699 -4.66699 -13 -14 -13h-56c-33.333 -46 -48.666 -69 -45.999 -69
c17.333 0 30.666 0.666992 39.999 2c9.33301 0 15.666 -0.833008 18.999 -2.5s4.66602 -5.16699 3.99902 -10.5c-0.666992 -9.33301 -9.33398 -17.333 -26.001 -24s-33.167 -10 -49.5 -10s-26.166 6.5 -29.499 19.5s-1 24.5 7 34.5l41 60h-116c-46 0 -82.167 13 -108.5 39
s-39.5 62.333 -39.5 109v214c0 46.667 13.167 83 39.5 109s62.5 39 108.5 39zM367.002 283v77c0 57.333 -28 86 -84 86h-68c-56 0 -84 -28.667 -84 -86v-77c0 -6.66699 3.33301 -10 10 -10h216c6.66699 0 10 3.33301 10 10z" />
    <glyph glyph-name="Ecaron" unicode="&#x11a;" horiz-adv-x="480" 
d="M235 707c-8.66699 0 -15.334 3.33301 -20.001 10l-63 107c-4.66699 8 -2.66699 12 6 12h33c6.66699 0 11.334 -2.66699 14.001 -8l48 -88l47 88c2.66699 5.33301 7.33398 8 14.001 8h34c8 0 9.66699 -4 5 -12l-63 -107c-4.66699 -6.66699 -11.334 -10 -20.001 -10h-35z
M407 0h-314c-9.33301 0 -14 4.66699 -14 14v615c0 9.33301 4.66699 14 14 14h314c9.33301 0 14 -4.66699 14 -14v-36c0 -9.33301 -4.66699 -14 -14 -14h-245c-6.66699 0 -10 -3 -10 -9v-202c0 -6 3.33301 -9 10 -9h214c9.33301 0 14 -4.66699 14 -14v-36
c0 -9.33301 -4.66699 -14 -14 -14h-214c-6.66699 0 -10 -3 -10 -9v-213c0 -6 3.33301 -9 10 -9h245c9.33301 0 14 -4.66699 14 -14v-36c0 -9.33301 -4.66699 -14 -14 -14z" />
    <glyph glyph-name="ecaron" unicode="&#x11b;" horiz-adv-x="492" 
d="M234 574c-9.33301 0 -16.334 3.33301 -21.001 10l-63 107c-4.66699 8 -2.66699 12 6 12h34c6.66699 0 11.334 -2.66699 14.001 -8l47 -88l47 88c2.66699 5.33301 7.33398 8 14.001 8h34c8.66699 0 10.667 -4 6 -12l-64 -107c-4.66699 -6.66699 -11.334 -10 -20.001 -10
h-34zM418.999 0h-212c-46 0 -82.167 13 -108.5 39s-39.5 62.333 -39.5 109v214c0 46.667 13.167 83 39.5 109s62.5 39 108.5 39h84c46 0 82 -13 108 -39s39 -62.333 39 -109v-127c0 -10 -4.66699 -15 -14 -15h-283c-6.66699 0 -10 -3 -10 -9v-61c0 -58 28 -87 84 -87h204
c9.33301 0 14 -4.66699 14 -14v-36c0 -8.66699 -4.66699 -13 -14 -13zM140.999 273h216c6.66699 0 10 3.33301 10 10v77c0 57.333 -28 86 -84 86h-68c-56 0 -84 -28.667 -84 -86v-77c0 -6.66699 3.33301 -10 10 -10z" />
    <glyph glyph-name="Gcircumflex" unicode="&#x11c;" horiz-adv-x="541" 
d="M367 707h-34.001c-6.66699 0 -11.334 2.66699 -14.001 8l-47 88l-48 -88c-2 -5.33301 -6.66699 -8 -14 -8h-33c-8.66699 0 -10.667 4 -6 12l63 107c4.66699 6.66699 11.334 10 20.001 10h35c8.66699 0 15.334 -3.33301 20.001 -10l63 -107c4.66699 -8 3 -12 -5 -12z
M324.999 0h-108c-46 0 -82.167 13 -108.5 39s-39.5 62.333 -39.5 109v347c0 46.667 13.167 83 39.5 109s62.5 39 108.5 39h108c46 0 82 -13.167 108 -39.5s39 -62.5 39 -108.5v-41c0 -10 -4.66699 -15 -14 -15h-45c-9.33301 0 -14 5 -14 15v38c0 58 -27.667 87 -83 87h-91
c-55.333 0 -83 -29 -83 -87v-341c0 -58 27.667 -87 83 -87h91c55.333 0 83 29 83 87v112c0 6.66699 -3 10 -9 10h-99c-9.33301 0 -14 4.33301 -14 13v37c0 9.33301 4.66699 14 14 14h161c13.333 0 20 -7 20 -21v-168c0 -46.667 -13 -83 -39 -109s-62 -39 -108 -39z" />
    <glyph glyph-name="gcircumflex" unicode="&#x11d;" horiz-adv-x="510" 
d="M365 574h-33.999c-6.66699 0 -11.334 2.66699 -14.001 8l-47 88l-47 -88c-2.66699 -5.33301 -7.33398 -8 -14.001 -8h-34c-8.66699 0 -10.667 4 -6 12l63 107c4.66699 6.66699 11.667 10 21 10h34c8.66699 0 15.334 -3.33301 20.001 -10l64 -107
c4.66699 -8 2.66699 -12 -6 -12zM262.001 27h-56.001c-45.333 0 -80.666 13 -105.999 39s-38 62.333 -38 109v187c0 46.667 13.167 83 39.5 109s62.5 39 108.5 39h217c9.33301 0 14 -4.66699 14 -14v-496c0 -46 -13.167 -82.167 -39.5 -108.5s-62.5 -39.5 -108.5 -39.5h-184
c-10 0 -15 4.66699 -15 14v37c0 9.33301 5 14 15 14h175c56 0 84 28.667 84 86v77h-4c-17.333 -35.333 -51.333 -53 -102 -53zM368 183v254c0 6 -3.33301 9 -10 9h-139c-56 0 -84 -29 -84 -87v-181c0 -58 28 -87 84 -87h56c30 0 53 8 69 24s24 38.667 24 68z" />
    <glyph glyph-name="Gbreve" unicode="&#x11e;" horiz-adv-x="541" 
d="M167 825c0 7.33301 3.33398 11 10.001 11h28c6.66699 0 10 -3.66699 10 -11v-10c0 -24.667 4 -42.167 12 -52.5s21.667 -15.5 41 -15.5h6c19.333 0 33.166 5.16699 41.499 15.5s12.5 27.833 12.5 52.5v10c0 6.66699 3.33301 10 10 10h26c7.33301 0 11 -3.33301 11 -10
v-12c0 -70.667 -32 -106 -96 -106h-17c-63.333 0 -95 35.333 -95 106v12zM325.001 0h-108c-46 0 -82.167 13 -108.5 39s-39.5 62.333 -39.5 109v347c0 46.667 13.167 83 39.5 109s62.5 39 108.5 39h108c46 0 82 -13.167 108 -39.5s39 -62.5 39 -108.5v-41
c0 -10 -4.66699 -15 -14 -15h-45c-9.33301 0 -14 5 -14 15v38c0 58 -27.667 87 -83 87h-91c-55.333 0 -83 -29 -83 -87v-341c0 -58 27.667 -87 83 -87h91c55.333 0 83 29 83 87v112c0 6.66699 -3 10 -9 10h-99c-9.33301 0 -14 4.33301 -14 13v37c0 9.33301 4.66699 14 14 14
h161c13.333 0 20 -7 20 -21v-168c0 -46.667 -13 -83 -39 -109s-62 -39 -108 -39z" />
    <glyph glyph-name="gbreve" unicode="&#x11f;" horiz-adv-x="510" 
d="M368 183v254c0 6 -3.33301 9 -10 9h-139c-56 0 -84 -29 -84 -87v-181c0 -58 28 -87 84 -87h56c30 0 53 8 69 24s24 38.667 24 68zM262 27h-56.001c-45.333 0 -80.666 13 -105.999 39s-38 62.333 -38 109v187c0 46.667 13.167 83 39.5 109s62.5 39 108.5 39h217
c9.33301 0 14 -4.66699 14 -14v-496c0 -46 -13.167 -82.167 -39.5 -108.5s-62.5 -39.5 -108.5 -39.5h-184c-10 0 -15 4.66699 -15 14v37c0 9.33301 5 14 15 14h175c56 0 84 28.667 84 86v77h-4c-17.333 -35.333 -51.333 -53 -102 -53zM173.999 680l0.000976562 12
c0 7.33301 3.66699 11 11 11h27c7.33301 0 11 -3.66699 11 -11v-10c0 -24.667 3.83301 -42.167 11.5 -52.5s21.167 -15.5 40.5 -15.5h6c19.333 0 33.166 5.16699 41.499 15.5s12.5 27.833 12.5 52.5v10c0 6.66699 3.66699 10 11 10h26c7.33301 0 11 -3.33301 11 -10v-12
c0 -70.667 -32.333 -106 -97 -106h-17c-63.333 0 -95 35.333 -95 106z" />
    <glyph glyph-name="Gdotaccent" unicode="&#x120;" horiz-adv-x="541" 
d="M234 725v97c0 9.33301 4.33301 14 13 14h46c8.66699 0 13 -4.66699 13 -14v-97c0 -9.33301 -4.33301 -14 -13 -14h-46c-8.66699 0 -13 4.66699 -13 14zM325 0h-108c-46 0 -82.167 13 -108.5 39s-39.5 62.333 -39.5 109v347c0 46.667 13.167 83 39.5 109s62.5 39 108.5 39
h108c46 0 82 -13.167 108 -39.5s39 -62.5 39 -108.5v-41c0 -10 -4.66699 -15 -14 -15h-45c-9.33301 0 -14 5 -14 15v38c0 58 -27.667 87 -83 87h-91c-55.333 0 -83 -29 -83 -87v-341c0 -58 27.667 -87 83 -87h91c55.333 0 83 29 83 87v112c0 6.66699 -3 10 -9 10h-99
c-9.33301 0 -14 4.33301 -14 13v37c0 9.33301 4.66699 14 14 14h161c13.333 0 20 -7 20 -21v-168c0 -46.667 -13 -83 -39 -109s-62 -39 -108 -39z" />
    <glyph glyph-name="gdotaccent" unicode="&#x121;" horiz-adv-x="510" 
d="M238 590v97c0 9.33301 4.33301 14 13 14h47c8.66699 0 13 -4.33301 13 -13v-98c0 -9.33301 -4.33301 -14 -13 -14h-47c-8.66699 0 -13 4.66699 -13 14zM262 27h-56.001c-45.333 0 -80.666 13 -105.999 39s-38 62.333 -38 109v187c0 46.667 13.167 83 39.5 109
s62.5 39 108.5 39h217c9.33301 0 14 -4.66699 14 -14v-496c0 -46 -13.167 -82.167 -39.5 -108.5s-62.5 -39.5 -108.5 -39.5h-184c-10 0 -15 4.66699 -15 14v37c0 9.33301 5 14 15 14h175c56 0 84 28.667 84 86v77h-4c-17.333 -35.333 -51.333 -53 -102 -53zM367.999 183v254
c0 6 -3.33301 9 -10 9h-139c-56 0 -84 -29 -84 -87v-181c0 -58 28 -87 84 -87h56c30 0 53 8 69 24s24 38.667 24 68z" />
    <glyph glyph-name="uni0122" unicode="&#x122;" horiz-adv-x="541" 
d="M321 -45v-47c0 -18.667 -5 -38 -15 -58l-33 -80c-3.33301 -5.33301 -7 -8 -11 -8c-7.33301 0 -11 4 -11 12v180c0 9.33301 4.33301 14 13 14h44c8.66699 0 13 -4.33301 13 -13zM325 0h-108c-46 0 -82.167 13 -108.5 39s-39.5 62.333 -39.5 109v347
c0 46.667 13.167 83 39.5 109s62.5 39 108.5 39h108c46 0 82 -13.167 108 -39.5s39 -62.5 39 -108.5v-41c0 -10 -4.66699 -15 -14 -15h-45c-9.33301 0 -14 5 -14 15v38c0 58 -27.667 87 -83 87h-91c-55.333 0 -83 -29 -83 -87v-341c0 -58 27.667 -87 83 -87h91
c55.333 0 83 29 83 87v112c0 6.66699 -3 10 -9 10h-99c-9.33301 0 -14 4.33301 -14 13v37c0 9.33301 4.66699 14 14 14h161c13.333 0 20 -7 20 -21v-168c0 -46.667 -13 -83 -39 -109s-62 -39 -108 -39z" />
    <glyph glyph-name="uni0123" unicode="&#x123;" horiz-adv-x="510" 
d="M262 27h-56.001c-45.333 0 -80.666 13 -105.999 39s-38 62.333 -38 109v187c0 46.667 13.167 83 39.5 109s62.5 39 108.5 39h217c9.33301 0 14 -4.66699 14 -14v-496c0 -46 -13.167 -82.167 -39.5 -108.5s-62.5 -39.5 -108.5 -39.5h-184c-10 0 -15 4.66699 -15 14v37
c0 9.33301 5 14 15 14h175c56 0 84 28.667 84 86v77h-4c-17.333 -35.333 -51.333 -53 -102 -53zM367.999 183v254c0 6 -3.33301 9 -10 9h-139c-56 0 -84 -29 -84 -87v-181c0 -58 28 -87 84 -87h56c30 0 53 8 69 24s24 38.667 24 68zM237.999 587v47c0 18.667 5 38 15 58
l33 80c3.33301 5.33301 7 8 11 8c7.33301 0 11 -4.33301 11 -13v-180c0 -8.66699 -4.33301 -13 -13 -13h-44c-8.66699 0 -13 4.33301 -13 13z" />
    <glyph glyph-name="hcircumflex" unicode="&#x125;" horiz-adv-x="512" 
d="M383 641h-34c-6.66699 0 -11.334 2.66699 -14.001 8l-47 87l-48 -87c-2.66699 -5.33301 -7 -8 -13 -8h-34c-8.66699 0 -10.667 3.66699 -6 11l63 108c4.66699 6.66699 11.667 10 21 10h34c8.66699 0 15.334 -3.33301 20.001 -10l64 -108
c4.66699 -7.33301 2.66699 -11 -6 -11zM128 0h-44.999c-9.33301 0 -14 4.66699 -14 14v675c0 9.33301 4.66699 14 14 14h45c9.33301 0 14 -4.66699 14 -14v-232h4c16.667 35.333 50.667 53 102 53h56c45.333 0 80.666 -13 105.999 -39s38 -62.333 38 -109v-348
c0 -9.33301 -4.66699 -14 -14 -14h-45c-9.33301 0 -14 4.66699 -14 14v345c0 58 -28 87 -84 87h-56c-30 0 -53 -8 -69 -24s-24 -38.667 -24 -68v-340c0 -9.33301 -4.66699 -14 -14 -14z" />
    <glyph glyph-name="Hbar" unicode="&#x126;" horiz-adv-x="548" 
d="M148 0h-45c-9.33301 0 -14 4.66699 -14 14v434c0 6 -3.33301 9 -10 9h-41c-9.33301 0 -14 4.66699 -14 14v29c0 9.33301 4.66699 14 14 14h41c6.66699 0 10 3.33301 10 10v105c0 9.33301 4.66699 14 14 14h45c9.33301 0 14 -4.66699 14 -14v-105
c0 -6.66699 3.33301 -10 10 -10h248c6.66699 0 10 3 10 9v106c0 9.33301 4.66699 14 14 14h44c10 0 15 -4.66699 15 -14v-105c0 -6.66699 3.33301 -10 10 -10h41c9.33301 0 14 -4.66699 14 -14v-29c0 -9.33301 -4.66699 -14 -14 -14h-41c-6.66699 0 -10 -3 -10 -9v-434
c0 -9.33301 -5 -14 -15 -14h-44c-9.33301 0 -14 4.66699 -14 14v262c0 6 -3.33301 9 -10 9h-248c-6.66699 0 -10 -3 -10 -9v-262c0 -9.33301 -4.66699 -14 -14 -14zM172 349h248c6.66699 0 10 3.33301 10 10v89c0 6 -3.33301 9 -10 9h-248c-6.66699 0 -10 -3 -10 -9v-89
c0 -6.66699 3.33301 -10 10 -10z" />
    <glyph glyph-name="hbar" unicode="&#x127;" horiz-adv-x="552" 
d="M163 0h-45c-9.33301 0 -14 4.66699 -14 14v526c0 6.66699 -3.33301 10 -10 10h-61c-9.33301 0 -14 4.33301 -14 13v30c0 8.66699 4.66699 13 14 13h61c6.66699 0 10 3.33301 10 10v73c0 9.33301 4.66699 14 14 14h45c9.33301 0 14 -4.66699 14 -14v-73
c0 -6.66699 3.33301 -10 10 -10h152c9.33301 0 14 -4.33301 14 -13v-30c0 -8.66699 -4.66699 -13 -14 -13h-152c-6.66699 0 -10 -3.33301 -10 -10v-142h4c15.333 35.333 49.333 53 102 53h56c46 0 82.167 -13.167 108.5 -39.5s39.5 -62.5 39.5 -108.5v-289
c0 -9.33301 -5 -14 -15 -14h-44c-9.33301 0 -14 4.66699 -14 14v286c0 58 -28 87 -84 87h-60c-30 0 -53 -8 -69 -24s-24 -38.667 -24 -68v-281c0 -9.33301 -4.66699 -14 -14 -14z" />
    <glyph glyph-name="Itilde" unicode="&#x128;" horiz-adv-x="240" 
d="M107.5 712c-9 -6.66699 -22.8311 -9.99707 -41.498 -9.99707c-37.333 0 -56 25.667 -56 77v39c0 6.66699 3 10 9 10h21c6 0 9 -3.33301 9 -10v-26c0 -19.333 1.66699 -32.333 5 -39s9.16602 -10 17.499 -10s14.666 2.66699 18.999 8s10.833 17.166 19.5 35.499
s17 30.5 25 36.5s21.667 9 41 9c36.667 0 55 -26 55 -78v-39c0 -7.33301 -3 -11 -9 -11h-21c-6.66699 0 -10 3.66699 -10 11v27c0 19.333 -1.66699 32.166 -5 38.499s-9.33301 9.5 -18 9.5s-14.5 -2 -17.5 -6s-8.66699 -15.333 -17 -34s-17 -31.334 -26 -38.001z
M157.002 629.003v-615c0 -9.33301 -4.66699 -14 -14 -14h-45c-9.33301 0 -14 4.66699 -14 14v615c0 9.33301 4.66699 14 14 14h45c9.33301 0 14 -4.66699 14 -14z" />
    <glyph glyph-name="itilde" unicode="&#x129;" horiz-adv-x="221" 
d="M0 653l0.00292969 38.001c0 7.33301 3 11 9 11h21c6 0 9 -3.66699 9 -11v-26c0 -18.667 1.66699 -31.334 5 -38.001s9.16602 -10 17.499 -10s14.666 2.66699 18.999 8s10.666 17 18.999 35s16.5 30 24.5 36s21.667 9 41 9c37.333 0 56 -25.667 56 -77v-40
c0 -7.33301 -3 -11 -9 -11h-21c-6.66699 0 -10 3.66699 -10 11v27c0 19.333 -1.66699 32.333 -5 39s-9.33301 10 -18 10s-14.5 -2 -17.5 -6s-8.66699 -15.5 -17 -34.5s-17 -31.667 -26 -38s-22.833 -9.5 -41.5 -9.5c-37.333 0 -56 25.667 -56 77zM74.0029 14.001v482
c0 9.33301 4.33301 14 13 14h46c9.33301 0 14 -4.66699 14 -14v-482c0 -9.33301 -4.66699 -14 -14 -14h-45c-9.33301 0 -14 4.66699 -14 14z" />
    <glyph glyph-name="Imacron" unicode="&#x12a;" horiz-adv-x="240" 
d="M221 746h-201c-9.33301 0 -14 4.66699 -14 14v26c0 9.33301 4.66699 14 14 14h201c9.33301 0 14 -4.66699 14 -14v-26c0 -9.33301 -4.66699 -14 -14 -14zM157 629v-615c0 -9.33301 -4.66699 -14 -14 -14h-45c-9.33301 0 -14 4.66699 -14 14v615
c0 9.33301 4.66699 14 14 14h45c9.33301 0 14 -4.66699 14 -14z" />
    <glyph glyph-name="imacron" unicode="&#x12b;" horiz-adv-x="219" 
d="M210 613h-201c-9.33301 0 -14 4.66699 -14 14v24c0 9.33301 4.66699 14 14 14h201c9.33301 0 14 -4.66699 14 -14v-24c0 -9.33301 -4.66699 -14 -14 -14zM74 14v482c0 9.33301 4.33301 14 13 14h46c9.33301 0 14 -4.66699 14 -14v-482c0 -9.33301 -4.66699 -14 -14 -14
h-45c-9.33301 0 -14 4.66699 -14 14z" />
    <glyph glyph-name="Ibreve" unicode="&#x12c;" horiz-adv-x="241" 
d="M16 825c0 7.33301 3.66699 11 11 11h28c6.66699 0 10 -3.66699 10 -11v-10c0 -24.667 4 -42.167 12 -52.5s21.667 -15.5 41 -15.5h5c20 0 34.167 5.16699 42.5 15.5s12.5 27.833 12.5 52.5v10c0 6.66699 3.33301 10 10 10h26c7.33301 0 11 -3.33301 11 -10v-12
c0 -70.667 -32 -106 -96 -106h-17c-64 0 -96 35.333 -96 106v12zM157 629v-615c0 -9.33301 -4.66699 -14 -14 -14h-45c-9.33301 0 -14 4.66699 -14 14v615c0 9.33301 4.66699 14 14 14h45c9.33301 0 14 -4.66699 14 -14z" />
    <glyph glyph-name="ibreve" unicode="&#x12d;" horiz-adv-x="221" 
d="M74 14v482c0 9.33301 4.33301 14 13 14h46c9.33301 0 14 -4.66699 14 -14v-482c0 -9.33301 -4.66699 -14 -14 -14h-45c-9.33301 0 -14 4.66699 -14 14zM6 680v12c0 7.33301 3.66699 11 11 11h28c6.66699 0 10 -3.66699 10 -11v-10c0 -24.667 4 -42.167 12 -52.5
s21.667 -15.5 41 -15.5h5c20 0 34.167 5.16699 42.5 15.5s12.5 27.833 12.5 52.5v10c0 6.66699 3.33301 10 10 10h26c7.33301 0 11 -3.33301 11 -10v-12c0 -70.667 -32 -106 -96 -106h-17c-64 0 -96 35.333 -96 106z" />
    <glyph glyph-name="Iogonek" unicode="&#x12e;" horiz-adv-x="241" 
d="M98 643l45 0.000976562c9.33301 0 14 -4.66699 14 -14v-615c0 -9.33301 -4.66699 -14 -14 -14h-6l-49 -67h40c10 0 16.667 -1 20 -3s5 -5.66699 5 -11c0 -8.66699 -8.33301 -15.834 -25 -21.501s-34.167 -8.5 -52.5 -8.5s-30 4.66699 -35 14s-3.16699 19.333 5.5 30
l48 67c-6.66699 1.33301 -10 6 -10 14v615c0 9.33301 4.66699 14 14 14z" />
    <glyph glyph-name="iogonek" unicode="&#x12f;" horiz-adv-x="221" 
d="M87 702h46c9.33301 0 14 -4.66699 14 -14v-94c0 -9.33301 -4.66699 -14 -14 -14h-46c-8.66699 0 -13 4.66699 -13 14v94c0 9.33301 4.33301 14 13 14zM87 510l46 -0.000976562c9.33301 0 14 -4.66699 14 -14v-482c0 -9.33301 -4.66699 -14 -14 -14h-9
c-34 -46 -49.667 -69 -47 -69c18 0 31.667 0.666992 41 2c9.33301 0 15.666 -0.833008 18.999 -2.5s4.33301 -5.16699 3 -10.5c-0.666992 -9.33301 -9.16699 -17.333 -25.5 -24s-32.833 -10 -49.5 -10s-26.667 6.5 -30 19.5s-0.666016 24.5 8.00098 34.5l41 60
c-6.66699 0.666992 -10 5.33398 -10 14.001v482c0 9.33301 4.33301 14 13 14z" />
    <glyph glyph-name="Idotaccent" unicode="&#x130;" horiz-adv-x="241" 
d="M157 629v-615c0 -9.33301 -4.66699 -14 -14 -14h-45c-9.33301 0 -14 4.66699 -14 14v615c0 9.33301 4.66699 14 14 14h45c9.33301 0 14 -4.66699 14 -14zM84 706v93c0 9.33301 4.33301 14 13 14h46c9.33301 0 14 -4.33301 14 -13v-94c0 -9.33301 -4.66699 -14 -14 -14
h-46c-8.66699 0 -13 4.66699 -13 14z" />
    <glyph glyph-name="dotlessi" unicode="&#x131;" horiz-adv-x="225" 
d="M76 14v482c0 9.33301 4.33301 14 13 14h46c8.66699 0 13 -4.66699 13 -14v-482c0 -9.33301 -4.33301 -14 -13 -14h-46c-8.66699 0 -13 4.66699 -13 14z" />
    <glyph glyph-name="IJ" unicode="&#x132;" horiz-adv-x="730" 
d="M599 643h44.999c9.33301 0 14 -4.33301 14 -13v-482c0 -46 -13.167 -82.167 -39.5 -108.5s-62.5 -39.5 -108.5 -39.5h-100c-45.333 0 -81.166 13 -107.499 39s-39.5 62.333 -39.5 109v86c0 9.33301 4.33301 14 13 14h46c8.66699 0 13 -4.66699 13 -14v-83
c0 -58 28 -87 84 -87h82c56 0 84 29 84 87v478c0 9.33301 4.66699 14 14 14zM157.999 629v-615c0 -9.33301 -4.33301 -14 -13 -14h-46c-8.66699 0 -13 4.66699 -13 14v615c0 9.33301 4.33301 14 13 14h46c8.66699 0 13 -4.66699 13 -14z" />
    <glyph glyph-name="ij" unicode="&#x133;" horiz-adv-x="440" 
d="M74 14v482c0 9.33301 4.33301 14 13 14h46c9.33301 0 14 -4.66699 14 -14v-482c0 -9.33301 -4.66699 -14 -14 -14h-45c-9.33301 0 -14 4.66699 -14 14zM74 594v94c0 9.33301 4.33301 14 13 14h46c9.33301 0 14 -4.66699 14 -14v-94c0 -9.33301 -4.66699 -14 -14 -14h-46
c-8.66699 0 -13 4.66699 -13 14zM292 594v94c0 9.33301 4.66699 14 14 14h46c8.66699 0 13 -4.66699 13 -14v-94c0 -9.33301 -4.33301 -14 -13 -14h-46c-9.33301 0 -14 4.66699 -14 14zM217 -148h-40c-9.33301 0 -14 4.66699 -14 14v37c0 9.33301 4.66699 14 14 14h23
c32 0 55.333 7.66699 70 23s22 39 22 71v485c0 9.33301 5 14 15 14h44c9.33301 0 14 -4.66699 14 -14v-495c0 -46 -13.167 -82.333 -39.5 -109s-62.5 -40 -108.5 -40z" />
    <glyph glyph-name="Jcircumflex" unicode="&#x134;" horiz-adv-x="496" 
d="M373 643h44.999c8.66699 0 13 -4.33301 13 -13v-482c0 -46.667 -13.167 -83 -39.5 -109s-62.166 -39 -107.499 -39h-100c-46 0 -82.167 13.167 -108.5 39.5s-39.5 62.5 -39.5 108.5v86c0 9.33301 4.66699 14 14 14h45c9.33301 0 14 -4.66699 14 -14v-83
c0 -58 28 -87 84 -87h82c56 0 84 29 84 87v478c0 9.33301 4.66699 14 14 14zM487.999 707h-34c-6.66699 0 -11.334 2.66699 -14.001 8l-47 88l-48 -88c-2 -5.33301 -6.66699 -8 -14 -8h-33c-8.66699 0 -10.667 4 -6 12l63 107c4.66699 6.66699 11.667 10 21 10h34
c8.66699 0 15.334 -3.33301 20.001 -10l63 -107c4.66699 -8 3 -12 -5 -12z" />
    <glyph glyph-name="jcircumflex" unicode="&#x135;" horiz-adv-x="219" 
d="M204 574h-34c-6.66699 0 -11.334 2.66699 -14.001 8l-47 88l-48 -88c-2 -5.33301 -6.33301 -8 -13 -8h-34c-8.66699 0 -10.667 4 -6 12l63 107c4.66699 6.66699 11.667 10 21 10h34c8.66699 0 15.334 -3.33301 20.001 -10l64 -107c4.66699 -8 2.66699 -12 -6 -12z
M-1 -148h-41c-9.33301 0 -14 4.66699 -14 14v37c0 9.33301 4.66699 14 14 14h23c62 0 93 31.333 93 94v485c0 9.33301 4.66699 14 14 14h45c9.33301 0 14 -4.66699 14 -14v-495c0 -46 -13.167 -82.333 -39.5 -109s-62.5 -40 -108.5 -40z" />
    <glyph glyph-name="uni0136" unicode="&#x136;" horiz-adv-x="538" 
d="M330 -45v-47c0 -18 -4.66699 -37.333 -14 -58l-33 -80c-3.33301 -5.33301 -7.33301 -8 -12 -8c-6.66699 0 -10 4 -10 12v180c0 9.33301 4.33301 14 13 14h43c8.66699 0 13 -4.33301 13 -13zM138 0h-45c-9.33301 0 -14 4.66699 -14 14v615c0 9.33301 4.66699 14 14 14h45
c9.33301 0 14 -4.66699 14 -14v-345h3c4.66699 14 12 27.667 22 41l224 304c6 9.33301 14.667 14 26 14h54c11.333 0 13 -5 5 -15l-198 -268l226 -344c7.33301 -10.667 4.33301 -16 -9 -16h-41c-14 0 -23.667 4.66699 -29 14l-192 293l-91 -109v-184
c0 -9.33301 -4.66699 -14 -14 -14z" />
    <glyph glyph-name="uni0137" unicode="&#x137;" horiz-adv-x="443" 
d="M358 510h49.999c5.33301 0 8.83301 -1.5 10.5 -4.5s0.833984 -6.83301 -2.49902 -11.5l-147 -228v-4l162 -246c2.66699 -4.66699 3 -8.5 1 -11.5s-5.66699 -4.5 -11 -4.5h-47c-12.667 0 -22 4.66699 -28 14l-154 238c-4 6.66699 -4 13.667 0 21l142 224
c4 8.66699 12 13 24 13zM127.999 0h-45c-9.33301 0 -14 4.66699 -14 14v675c0 9.33301 4.66699 14 14 14h45c9.33301 0 14 -4.66699 14 -14v-675c0 -9.33301 -4.66699 -14 -14 -14zM277.999 -45v-47c0 -16.667 -5 -36 -15 -58l-33 -80c-3.33301 -5.33301 -7.33301 -8 -12 -8
c-6.66699 0 -10 4 -10 12v180c0 9.33301 4.33301 14 13 14h44c8.66699 0 13 -4.33301 13 -13z" />
    <glyph glyph-name="Lacute" unicode="&#x139;" horiz-adv-x="451" 
d="M172 836h60c4.66699 0 7.66699 -1.33301 9 -4s0.666016 -6 -2.00098 -10l-88 -105c-5.33301 -6.66699 -11.666 -10 -18.999 -10h-33c-10 0 -12.333 4.66699 -7 14l58 102c4.66699 8.66699 12 13 22 13zM414 0h-321c-9.33301 0 -14 4.66699 -14 14v615
c0 9.33301 4.66699 14 14 14h45c9.33301 0 14 -4.66699 14 -14v-554c0 -6 3.33301 -9 10 -9h252c9.33301 0 14 -5 14 -15v-37c0 -9.33301 -4.66699 -14 -14 -14z" />
    <glyph glyph-name="lacute" unicode="&#x13a;" horiz-adv-x="217" 
d="M164 879h61.001c4 0 6.66699 -1.33301 8 -4s0.666016 -6 -2.00098 -10l-87 -105c-6.66699 -6.66699 -13.667 -10 -21 -10h-32c-9.33301 0 -11.333 4.66699 -6 14l58 102c4 8.66699 11 13 21 13zM133.001 0h-45c-9.33301 0 -14 4.66699 -14 14v675
c0 9.33301 4.66699 14 14 14h45c9.33301 0 14 -4.66699 14 -14v-675c0 -9.33301 -4.66699 -14 -14 -14z" />
    <glyph glyph-name="uni013B" unicode="&#x13b;" horiz-adv-x="451" 
d="M287 -45v-47c0 -16.667 -5 -36 -15 -58l-33 -80c-3.33301 -5.33301 -7.33301 -8 -12 -8c-6.66699 0 -10 4 -10 12v180c0 9.33301 4.33301 14 13 14h44c8.66699 0 13 -4.33301 13 -13zM414 0h-321c-9.33301 0 -14 4.66699 -14 14v615c0 9.33301 4.66699 14 14 14h45
c9.33301 0 14 -4.66699 14 -14v-554c0 -6 3.33301 -9 10 -9h252c9.33301 0 14 -5 14 -15v-37c0 -9.33301 -4.66699 -14 -14 -14z" />
    <glyph glyph-name="uni013C" unicode="&#x13c;" horiz-adv-x="221" 
d="M146 -45v-47c0 -18.667 -5 -38 -15 -58l-33 -80c-3.33301 -5.33301 -7 -8 -11 -8c-7.33301 0 -11 4 -11 12v180c0 9.33301 4.33301 14 13 14h44c8.66699 0 13 -4.33301 13 -13zM133 0h-45c-9.33301 0 -14 4.66699 -14 14v675c0 9.33301 4.66699 14 14 14h45
c9.33301 0 14 -4.66699 14 -14v-675c0 -9.33301 -4.66699 -14 -14 -14z" />
    <glyph glyph-name="Lcaron" unicode="&#x13d;" horiz-adv-x="451" 
d="M371 630v-58c0 -15.333 -4.66699 -37 -14 -65l-34 -95c-2 -4.66699 -5.66699 -7 -11 -7c-7.33301 0 -11 4 -11 12v212c0 9.33301 4.33301 14 13 14h44c8.66699 0 13 -4.33301 13 -13zM414 0h-321c-9.33301 0 -14 4.66699 -14 14v615c0 9.33301 4.66699 14 14 14h45
c9.33301 0 14 -4.66699 14 -14v-554c0 -6 3.33301 -9 10 -9h252c9.33301 0 14 -5 14 -15v-37c0 -9.33301 -4.66699 -14 -14 -14z" />
    <glyph glyph-name="lcaron" unicode="&#x13e;" horiz-adv-x="298" 
d="M286 690v-57.999c0 -16.667 -5 -38.334 -15 -65.001l-33 -95c-2.66699 -4.66699 -7 -7 -13 -7s-9 4 -9 12v212c0 9.33301 4.33301 14 13 14h43c9.33301 0 14 -4.33301 14 -13zM133 0.000976562h-45c-9.33301 0 -14 4.66699 -14 14v675c0 9.33301 4.66699 14 14 14h45
c9.33301 0 14 -4.66699 14 -14v-675c0 -9.33301 -4.66699 -14 -14 -14z" />
    <glyph glyph-name="Ldot" unicode="&#x13f;" horiz-adv-x="499" 
d="M417 0h-321c-8.66699 0 -13 4.66699 -13 14v615c0 9.33301 4.33301 14 13 14h45c9.33301 0 14 -4.66699 14 -14v-554c0 -6 3.66699 -9 11 -9h251c9.33301 0 14 -5 14 -15v-37c0 -9.33301 -4.66699 -14 -14 -14zM357 374v-110c0 -9.33301 -4.33301 -14 -13 -14h-51
c-8.66699 0 -13 5 -13 15v108c0 9.33301 4.33301 14 13 14h51c8.66699 0 13 -4.33301 13 -13z" />
    <glyph glyph-name="ldot" unicode="&#x140;" horiz-adv-x="339" 
d="M136 0h-45c-8.66699 0 -13 4.66699 -13 14v675c0 9.33301 4.33301 14 13 14h45c9.33301 0 14 -4.66699 14 -14v-675c0 -9.33301 -4.66699 -14 -14 -14zM303 374v-110c0 -9.33301 -4 -14 -12 -14h-51c-9.33301 0 -14 5 -14 15v108c0 9.33301 4.66699 14 14 14h51
c8 0 12 -4.33301 12 -13z" />
    <glyph glyph-name="Lslash" unicode="&#x141;" horiz-adv-x="507" 
d="M430 0h-321c-9.33301 0 -14 4.66699 -14 14v336l-70 -40c-9.33301 -5.33301 -14 -2.66602 -14 8.00098v37c0 8.66699 4.66699 15.334 14 20.001l70 40v214c0 9.33301 4.66699 14 14 14h45c9.33301 0 14 -4.66699 14 -14v-172l95 53
c9.33301 5.33301 14 2.66602 14 -8.00098v-38c0 -8.66699 -4.66699 -15.334 -14 -20.001l-95 -54v-315c0 -6 3.33301 -9 10 -9h252c9.33301 0 14 -5 14 -15v-37c0 -9.33301 -4.66699 -14 -14 -14z" />
    <glyph glyph-name="lslash" unicode="&#x142;" horiz-adv-x="304" 
d="M174 0l-45 0.000976562c-9.33301 0 -14 4.66699 -14 14v343l-79 -45c-8.66699 -4 -13 -1.33301 -13 8v40c0 8 4.33301 14.333 13 19l79 44v266c0 9.33301 4.66699 14 14 14h45c9.33301 0 14 -4.66699 14 -14v-224l79 45c9.33301 5.33301 14 2.66602 14 -8.00098v-38
c0 -8.66699 -4.66699 -15.667 -14 -21l-79 -45v-384c0 -9.33301 -4.66699 -14 -14 -14z" />
    <glyph glyph-name="Nacute" unicode="&#x143;" horiz-adv-x="581" 
d="M350 836h60.001c4.66699 0 7.66699 -1.33301 9 -4s0.666016 -6 -2.00098 -10l-87 -105c-5.33301 -6.66699 -12 -10 -20 -10h-33c-9.33301 0 -11.333 4.66699 -6 14l58 102c4.66699 8.66699 11.667 13 21 13zM137.001 0h-44c-9.33301 0 -14 4.66699 -14 14v615
c0 9.33301 4.66699 14 14 14h41c8 0 13.333 -2.66699 16 -8l276 -485h4v479c0 9.33301 4.66699 14 14 14h44c9.33301 0 14 -4.66699 14 -14v-615c0 -9.33301 -4.66699 -14 -14 -14h-37c-7.33301 -0 -14.333 4.33301 -21 13l-275 480h-4v-479
c0 -9.33301 -4.66699 -14 -14 -14z" />
    <glyph glyph-name="nacute" unicode="&#x144;" horiz-adv-x="512" 
d="M315 703h60.999c4 0 6.83301 -1.33301 8.5 -4s0.833984 -6 -2.49902 -10l-87 -105c-5.33301 -6.66699 -12 -10 -20 -10h-33c-9.33301 0 -11.333 4.66699 -6 14l58 102c4.66699 8.66699 11.667 13 21 13zM127.999 0h-44.999c-9.33301 0 -14 4.66699 -14 14v482
c0 9.33301 4.66699 14 14 14h45c9.33301 0 14 -4.66699 14 -14v-39h4c16.667 35.333 50.667 53 102 53h56c45.333 0 80.666 -13 105.999 -39s38 -62.333 38 -109v-348c0 -9.33301 -4.66699 -14 -14 -14h-45c-9.33301 0 -14 4.66699 -14 14v345c0 58 -28 87 -84 87h-56
c-30 0 -53 -8 -69 -24s-24 -38.667 -24 -68v-340c0 -9.33301 -4.66699 -14 -14 -14z" />
    <glyph glyph-name="uni0145" unicode="&#x145;" horiz-adv-x="581" 
d="M330 -45v-47c0 -16.667 -5 -36 -15 -58l-33 -80c-3.33301 -5.33301 -7.33301 -8 -12 -8c-6.66699 0 -10 4 -10 12v180c0 9.33301 4.33301 14 13 14h43c9.33301 0 14 -4.33301 14 -13zM137 0h-44c-9.33301 0 -14 4.66699 -14 14v615c0 9.33301 4.66699 14 14 14h41
c8 0 13.333 -2.66699 16 -8l276 -485h4v479c0 9.33301 4.66699 14 14 14h44c9.33301 0 14 -4.66699 14 -14v-615c0 -9.33301 -4.66699 -14 -14 -14h-37c-7.33301 -0 -14.333 4.33301 -21 13l-275 480h-4v-479c0 -9.33301 -4.66699 -14 -14 -14z" />
    <glyph glyph-name="uni0146" unicode="&#x146;" horiz-adv-x="510" 
d="M294 -45v-47c0 -16.667 -5 -36 -15 -58l-33 -80c-3.33301 -5.33301 -7.33301 -8 -12 -8c-6.66699 0 -10 4 -10 12v180c0 9.33301 4.33301 14 13 14h44c8.66699 0 13 -4.33301 13 -13zM128 0h-44.999c-9.33301 0 -14 4.66699 -14 14v482c0 9.33301 4.66699 14 14 14h45
c9.33301 0 14 -4.66699 14 -14v-39h4c16.667 35.333 50.667 53 102 53h56c45.333 0 80.666 -13 105.999 -39s38 -62.333 38 -109v-348c0 -9.33301 -4.66699 -14 -14 -14h-45c-9.33301 0 -14 4.66699 -14 14v345c0 58 -28 87 -84 87h-56c-30 0 -53 -8 -69 -24
s-24 -38.667 -24 -68v-340c0 -9.33301 -4.66699 -14 -14 -14z" />
    <glyph glyph-name="Ncaron" unicode="&#x147;" horiz-adv-x="581" 
d="M137 0h-44c-9.33301 0 -14 4.66699 -14 14v615c0 9.33301 4.66699 14 14 14h41c8 0 13.333 -2.66699 16 -8l276 -485h4v479c0 9.33301 4.66699 14 14 14h44c9.33301 0 14 -4.66699 14 -14v-615c0 -9.33301 -4.66699 -14 -14 -14h-37c-7.33301 -0 -14.333 4.33301 -21 13
l-275 480h-4v-479c0 -9.33301 -4.66699 -14 -14 -14zM277 707c-8.66699 0 -15.333 3.33301 -20 10l-63 107c-4.66699 8 -3 12 5 12h34c6.66699 0 11.334 -2.66699 14.001 -8l47 -88l48 88c2 5.33301 6.33301 8 13 8h35c8 0 9.66699 -4 5 -12l-63 -107
c-4.66699 -6.66699 -11.334 -10 -20.001 -10h-35z" />
    <glyph glyph-name="ncaron" unicode="&#x148;" horiz-adv-x="512" 
d="M242 574c-9.33301 0 -16.334 3.33301 -21.001 10l-63 107c-4.66699 8 -3 12 5 12h34c6.66699 0 11.334 -2.66699 14.001 -8l47 -88l48 88c2 5.33301 6.66699 8 14 8h34c8 0 9.66699 -4 5 -12l-63 -107c-4.66699 -6.66699 -11.667 -10 -21 -10h-33zM127.999 0h-44.999
c-9.33301 0 -14 4.66699 -14 14v482c0 9.33301 4.66699 14 14 14h45c9.33301 0 14 -4.66699 14 -14v-39h4c16.667 35.333 50.667 53 102 53h56c45.333 0 80.666 -13 105.999 -39s38 -62.333 38 -109v-348c0 -9.33301 -4.66699 -14 -14 -14h-45
c-9.33301 0 -14 4.66699 -14 14v345c0 58 -28 87 -84 87h-56c-30 0 -53 -8 -69 -24s-24 -38.667 -24 -68v-340c0 -9.33301 -4.66699 -14 -14 -14z" />
    <glyph glyph-name="Eng" unicode="&#x14a;" horiz-adv-x="539" 
d="M358 -150h-41c-9.33301 0 -14 4.66699 -14 14v36c0 9.33301 4.66699 14 14 14h23c32 0 55.333 7.66699 70 23s22 39.333 22 72v4l-132 233l-141 247h-4v-479c0 -9.33301 -4.66699 -14 -14 -14h-45c-8.66699 0 -13 4.66699 -13 14v615c0 9.33301 4.33301 14 13 14h42
c8 0 13.333 -2.66699 16 -8l275 -485h4v479c0 9.33301 4.66699 14 14 14h45c9.33301 0 14 -4.66699 14 -14v-631c0 -46 -13.333 -82.167 -40 -108.5s-62.667 -39.5 -108 -39.5z" />
    <glyph glyph-name="eng" unicode="&#x14b;" horiz-adv-x="512" 
d="M300 -150h-41c-9.33301 0 -14 4.66699 -14 14v36c0 9.33301 4.66699 14 14 14h24c32 0 55.333 7.66699 70 23s22 39.333 22 72v350c0 58 -28 87 -84 87h-56c-30 0 -53 -8 -69 -24s-24 -38.667 -24 -68v-340c0 -9.33301 -4.66699 -14 -14 -14h-45
c-9.33301 0 -14 4.66699 -14 14v482c0 9.33301 4.66699 14 14 14h45c9.33301 0 14 -4.66699 14 -14v-39h4c16.667 35.333 50.667 53 102 53h52c46 0 82.167 -13.167 108.5 -39.5s39.5 -62.5 39.5 -108.5v-364c0 -46 -13.333 -82.167 -40 -108.5s-62.667 -39.5 -108 -39.5z
" />
    <glyph glyph-name="Omacron" unicode="&#x14c;" horiz-adv-x="553" 
d="M377 746h-202c-9.33301 0 -14 4.66699 -14 14v26c0 9.33301 4.66699 14 14 14h202c9.33301 0 14 -4.66699 14 -14v-26c0 -9.33301 -4.66699 -14 -14 -14zM225 64h102c56 0 84 29 84 87v341c0 58 -28 87 -84 87h-102c-55.333 0 -83 -29 -83 -87v-341
c0 -58 27.667 -87 83 -87zM336 0h-119c-46 0 -82.167 13 -108.5 39s-39.5 62.333 -39.5 109v347c0 46.667 13.167 83 39.5 109s62.5 39 108.5 39h119c46 0 82.167 -13.167 108.5 -39.5s39.5 -62.5 39.5 -108.5v-347c0 -46 -13.167 -82.167 -39.5 -108.5
s-62.5 -39.5 -108.5 -39.5z" />
    <glyph glyph-name="omacron" unicode="&#x14d;" horiz-adv-x="500" 
d="M350 613h-201c-9.33301 0 -14 4.66699 -14 14v24c0 9.33301 4.66699 14 14 14h201c9.33301 0 14 -4.66699 14 -14v-24c0 -9.33301 -4.66699 -14 -14 -14zM293 0h-86c-46 0 -82.167 13 -108.5 39s-39.5 62.333 -39.5 109v214c0 46.667 13.167 83 39.5 109
s62.5 39 108.5 39h86c46 0 82.167 -13 108.5 -39s39.5 -62.333 39.5 -109v-214c0 -46.667 -13.167 -83 -39.5 -109s-62.5 -39 -108.5 -39zM215 64h70c56 0 84 28.667 84 86v210c0 57.333 -28 86 -84 86h-70c-56 0 -84 -28.667 -84 -86v-210c0 -57.333 28 -86 84 -86z" />
    <glyph glyph-name="Obreve" unicode="&#x14e;" horiz-adv-x="553" 
d="M172 825c0 7.33301 3.66699 11 11 11h27c7.33301 0 11 -3.66699 11 -11v-10c0 -24.667 4 -42.167 12 -52.5s21.667 -15.5 41 -15.5h5c20 0 34 5.16699 42 15.5s12 27.833 12 52.5v10c0 6.66699 3.66699 10 11 10h26c7.33301 0 11 -3.33301 11 -10v-12
c0 -70.667 -32 -106 -96 -106h-18c-63.333 0 -95 35.333 -95 106v12zM225 64h102c56 0 84 29 84 87v341c0 58 -28 87 -84 87h-102c-55.333 0 -83 -29 -83 -87v-341c0 -58 27.667 -87 83 -87zM336 0h-119c-46 0 -82.167 13 -108.5 39s-39.5 62.333 -39.5 109v347
c0 46.667 13.167 83 39.5 109s62.5 39 108.5 39h119c46 0 82.167 -13.167 108.5 -39.5s39.5 -62.5 39.5 -108.5v-347c0 -46 -13.167 -82.167 -39.5 -108.5s-62.5 -39.5 -108.5 -39.5z" />
    <glyph glyph-name="obreve" unicode="&#x14f;" horiz-adv-x="500" 
d="M215 64h70c56 0 84 28.667 84 86v210c0 57.333 -28 86 -84 86h-70c-56 0 -84 -28.667 -84 -86v-210c0 -57.333 28 -86 84 -86zM293 0h-86c-46 0 -82.167 13 -108.5 39s-39.5 62.333 -39.5 109v214c0 46.667 13.167 83 39.5 109s62.5 39 108.5 39h86
c46 0 82.167 -13 108.5 -39s39.5 -62.333 39.5 -109v-214c0 -46.667 -13.167 -83 -39.5 -109s-62.5 -39 -108.5 -39zM146 680v12c0 7.33301 3.33301 11 10 11h28c7.33301 0 11 -3.66699 11 -11v-10c0 -24.667 3.83301 -42.167 11.5 -52.5s21.167 -15.5 40.5 -15.5h6
c20 0 34 5.16699 42 15.5s12 27.833 12 52.5v10c0 6.66699 3.66699 10 11 10h26c6.66699 0 10 -3.33301 10 -10v-12c0 -70.667 -31.667 -106 -95 -106h-18c-63.333 0 -95 35.333 -95 106z" />
    <glyph glyph-name="Ohungarumlaut" unicode="&#x150;" horiz-adv-x="553" 
d="M265 836h40c10.667 0 13 -4.66699 7 -14l-77 -105c-5.33301 -6.66699 -11.666 -10 -18.999 -10h-23c-9.33301 0 -11.333 4.66699 -6 14l56 102c5.33301 8.66699 12.666 13 21.999 13zM397 836h40.002c11.333 0 13.666 -4.66699 6.99902 -14l-77 -105
c-6.66699 -6.66699 -13 -10 -19 -10h-23c-9.33301 0 -11.333 4.66699 -6 14l56 102c5.33301 8.66699 12.666 13 21.999 13zM225.002 64h102c56 0 84 29 84 87v341c0 58 -28 87 -84 87h-102c-55.333 0 -83 -29 -83 -87v-341c0 -58 27.667 -87 83 -87zM336.002 0h-119
c-46 0 -82.167 13 -108.5 39s-39.5 62.333 -39.5 109v347c0 46.667 13.167 83 39.5 109s62.5 39 108.5 39h119c46 0 82.167 -13.167 108.5 -39.5s39.5 -62.5 39.5 -108.5v-347c0 -46 -13.167 -82.167 -39.5 -108.5s-62.5 -39.5 -108.5 -39.5z" />
    <glyph glyph-name="ohungarumlaut" unicode="&#x151;" horiz-adv-x="500" 
d="M242 703h41c11.333 0 13.333 -4.66699 6 -14l-77 -105c-5.33301 -6.66699 -11.333 -10 -18 -10h-24c-8 0 -10 4.66699 -6 14l57 102c4.66699 8.66699 11.667 13 21 13zM375 703h40c10.667 0 13 -4.66699 7 -14l-77 -105c-6.66699 -6.66699 -13 -10 -19 -10h-23
c-10 0 -12 4.66699 -6 14l56 102c4.66699 8.66699 12 13 22 13zM293 0h-86c-46 0 -82.167 13 -108.5 39s-39.5 62.333 -39.5 109v214c0 46.667 13.167 83 39.5 109s62.5 39 108.5 39h86c46 0 82.167 -13 108.5 -39s39.5 -62.333 39.5 -109v-214
c0 -46.667 -13.167 -83 -39.5 -109s-62.5 -39 -108.5 -39zM215 64h70c56 0 84 28.667 84 86v210c0 57.333 -28 86 -84 86h-70c-56 0 -84 -28.667 -84 -86v-210c0 -57.333 28 -86 84 -86z" />
    <glyph glyph-name="OE" unicode="&#x152;" horiz-adv-x="777" 
d="M73 148v347c0 46 13.167 82.167 39.5 108.5s62.166 39.5 107.499 39.5h473c10 0 15 -4.66699 15 -14v-36c0 -9.33301 -5 -14 -15 -14h-241c-6.66699 0 -10 -3 -10 -9v-202c0 -6 3.33301 -9 10 -9h210c9.33301 0 14 -4.66699 14 -14v-36c0 -9.33301 -4.66699 -14 -14 -14
h-210c-6.66699 0 -10 -3 -10 -9v-213c0 -6 3.33301 -9 10 -9h241c10 0 15 -4.66699 15 -14v-36c0 -9.33301 -5 -14 -15 -14h-473c-45.333 0 -81.166 13 -107.499 39s-39.5 62.333 -39.5 109zM229 64h130c7.33301 0 11 3 11 9v497c0 6 -3.66699 9 -11 9h-130
c-55.333 0 -83 -29 -83 -87v-341c0 -58 27.667 -87 83 -87z" />
    <glyph glyph-name="oe" unicode="&#x153;" horiz-adv-x="805" 
d="M286 0h-79.001c-46 0 -82.167 13 -108.5 39s-39.5 62.333 -39.5 109v214c0 46.667 13.167 83 39.5 109s62.5 39 108.5 39h75c58.667 0 100.667 -21.333 126 -64c22.667 42.667 63.334 64 122.001 64h70c46 0 82.167 -13.167 108.5 -39.5s39.5 -62.5 39.5 -108.5v-127
c0 -10 -5 -15 -15 -15h-282c-6.66699 0 -10 -3 -10 -9v-60c0 -58 28 -87 84 -87h203c9.33301 0 14 -4.66699 14 -14v-37c0 -8.66699 -4.66699 -13 -14 -13h-201c-59.333 0 -101.333 22 -126 66c-18.667 -44 -57 -66 -115 -66zM450.999 273h214c6.66699 0 10 3.33301 10 10
v76c0 58 -28 87 -84 87h-66c-56 0 -84 -29 -84 -87v-76c0 -6.66699 3.33301 -10 10 -10zM214.999 64h69c56 0 84 29 84 87v208c0 58 -28 87 -84 87h-69c-55.333 0 -83 -29 -83 -87v-208c0 -58 27.667 -87 83 -87z" />
    <glyph glyph-name="Racute" unicode="&#x154;" horiz-adv-x="537" 
d="M302 836h61.001c4 0 6.66699 -1.33301 8 -4s0.666016 -6 -2.00098 -10l-87 -105c-5.33301 -6.66699 -12 -10 -20 -10h-33c-9.33301 0 -11.333 4.66699 -6 14l58 102c4 8.66699 11 13 21 13zM138.001 0l-45.001 -0.000976562c-9.33301 0 -14 4.66699 -14 14v615
c0 9.33301 4.66699 14 14 14h230c46 0 82.333 -13.167 109 -39.5s40 -62.5 40 -108.5v-91c0 -37.333 -9 -68.166 -27 -92.499s-43 -40.5 -75 -48.5v-4l116 -243c6 -10.667 2.66699 -16 -10 -16h-45c-11.333 0 -19.666 4.66699 -24.999 14l-112 242h-132
c-6.66699 0 -10 -3 -10 -9v-233c0 -9.33301 -4.66699 -14 -14 -14zM162 316.999h151c57.333 0 86 28.667 86 86v89c0 58 -28.667 87 -86 87h-151c-6.66699 0 -10 -3 -10 -9v-244c0 -6 3.33301 -9 10 -9z" />
    <glyph glyph-name="racute" unicode="&#x155;" horiz-adv-x="323" 
d="M212 703h60.002c4.66699 0 7.66699 -1.33301 9 -4s0.666016 -6 -2.00098 -10l-87 -105c-6.66699 -6.66699 -13.334 -10 -20.001 -10h-33c-9.33301 0 -11.333 4.66699 -6 14l57 102c6 8.66699 13.333 13 22 13zM128.002 0l-45.001 -0.00195312
c-9.33301 0 -14 4.66699 -14 14v482c0 9.33301 4.66699 14 14 14h45c9.33301 0 14 -4.66699 14 -14v-40h4c6.66699 14.667 19.334 27.334 38.001 38.001s40.667 16 66 16h39c8.66699 0 13 -4.66699 13 -14v-37c0 -4.66699 -1 -8.16699 -3 -10.5
s-5.33301 -3.16602 -10 -2.49902h-54c-30 0 -53 -9 -69 -27s-24 -42.667 -24 -74v-331c0 -9.33301 -4.66699 -14 -14 -14z" />
    <glyph glyph-name="uni0156" unicode="&#x156;" horiz-adv-x="537" 
d="M308 -45v-47c0 -18 -4.66699 -37.333 -14 -58l-34 -80c-3.33301 -5.33301 -7 -8 -11 -8c-7.33301 0 -11 4 -11 12v180c0 9.33301 4.33301 14 13 14h44c8.66699 0 13 -4.33301 13 -13zM138 0l-45.001 -0.000976562c-9.33301 0 -14 4.66699 -14 14v615
c0 9.33301 4.66699 14 14 14h230c46 0 82.333 -13.167 109 -39.5s40 -62.5 40 -108.5v-91c0 -37.333 -9 -68.166 -27 -92.499s-43 -40.5 -75 -48.5v-4l116 -243c6 -10.667 2.66699 -16 -10 -16h-45c-11.333 0 -19.666 4.66699 -24.999 14l-112 242h-132
c-6.66699 0 -10 -3 -10 -9v-233c0 -9.33301 -4.66699 -14 -14 -14zM161.999 316.999h151c57.333 0 86 28.667 86 86v89c0 58 -28.667 87 -86 87h-151c-6.66699 0 -10 -3 -10 -9v-244c0 -6 3.33301 -9 10 -9z" />
    <glyph glyph-name="uni0157" unicode="&#x157;" horiz-adv-x="323" 
d="M141 -45v-47c0 -18.667 -5 -38 -15 -58l-33 -80c-3.33301 -5.33301 -7 -8 -11 -8c-7.33301 0 -11 4 -11 12v180c0 9.33301 4.33301 14 13 14h44c8.66699 0 13 -4.33301 13 -13zM128 0l-45.001 -0.00195312c-9.33301 0 -14 4.66699 -14 14v482c0 9.33301 4.66699 14 14 14
h45c9.33301 0 14 -4.66699 14 -14v-40h4c6.66699 14.667 19.334 27.334 38.001 38.001s40.667 16 66 16h39c8.66699 0 13 -4.66699 13 -14v-37c0 -4.66699 -1 -8.16699 -3 -10.5s-5.33301 -3.16602 -10 -2.49902h-54c-30 0 -53 -9 -69 -27s-24 -42.667 -24 -74v-331
c0 -9.33301 -4.66699 -14 -14 -14z" />
    <glyph glyph-name="Rcaron" unicode="&#x158;" horiz-adv-x="537" 
d="M239 707c-8.66699 0 -15.335 3.33301 -20.002 10l-64 107c-4.66699 8 -2.66699 12 6 12h34c6.66699 0 11.334 -2.66699 14.001 -8l47 -88l47 88c2.66699 5.33301 7.33398 8 14.001 8h35c8 0 9.66699 -4 5 -12l-63 -107c-4.66699 -6.66699 -11.667 -10 -21 -10h-34z
M137.999 0l-45.001 -0.000976562c-9.33301 0 -14 4.66699 -14 14v615c0 9.33301 4.66699 14 14 14h230c46 0 82.333 -13.167 109 -39.5s40 -62.5 40 -108.5v-91c0 -37.333 -9 -68.166 -27 -92.499s-43 -40.5 -75 -48.5v-4l116 -243c6 -10.667 2.66699 -16 -10 -16h-45
c-11.333 0 -19.666 4.66699 -24.999 14l-112 242h-132c-6.66699 0 -10 -3 -10 -9v-233c0 -9.33301 -4.66699 -14 -14 -14zM161.998 316.999h151c57.333 0 86 28.667 86 86v89c0 58 -28.667 87 -86 87h-151c-6.66699 0 -10 -3 -10 -9v-244c0 -6 3.33301 -9 10 -9z" />
    <glyph glyph-name="rcaron" unicode="&#x159;" horiz-adv-x="323" 
d="M162 574c-8.66699 0 -15.334 3.33301 -20.001 10l-64 107c-4.66699 8 -2.66699 12 6 12h34c6.66699 0 11.334 -2.66699 14.001 -8l47 -88l47 88c2.66699 5.33301 7.33398 8 14.001 8h34c8.66699 0 10.667 -4 6 -12l-64 -107c-4.66699 -6.66699 -11.334 -10 -20.001 -10
h-34zM128 0l-45.001 -0.00195312c-9.33301 0 -14 4.66699 -14 14v482c0 9.33301 4.66699 14 14 14h45c9.33301 0 14 -4.66699 14 -14v-40h4c6.66699 14.667 19.334 27.334 38.001 38.001s40.667 16 66 16h39c8.66699 0 13 -4.66699 13 -14v-37
c0 -4.66699 -1 -8.16699 -3 -10.5s-5.33301 -3.16602 -10 -2.49902h-54c-30 0 -53 -9 -69 -27s-24 -42.667 -24 -74v-331c0 -9.33301 -4.66699 -14 -14 -14z" />
    <glyph glyph-name="Sacute" unicode="&#x15a;" horiz-adv-x="555" 
d="M72 148l-0.00195312 31.999c0 9.33301 4.66699 14 14 14h45c9.33301 0 14 -4.66699 14 -14v-26c0 -60 29.667 -90 89 -90h88c59.333 0 89 30.667 89 92v34c0 48 -39.667 79.333 -119 94c-33.333 6 -66.666 13 -99.999 21s-61.666 23.5 -84.999 46.5s-35 54.5 -35 94.5v49
c0 46 13.167 82.167 39.5 108.5s62.5 39.5 108.5 39.5h111c45.333 0 81.333 -13.167 108 -39.5s40 -62.5 40 -108.5v-25c0 -10 -4.33301 -15 -13 -15h-46c-8.66699 0 -13 5 -13 15v18c0 60.667 -29.667 91 -89 91h-85c-59.333 0 -89 -31.667 -89 -95v-40
c0 -34 22.333 -57.333 67 -70c20 -5.33301 42 -10.166 66 -14.499s48.167 -10 72.5 -17s46.5 -15.667 66.5 -26s36.167 -26 48.5 -47s18.5 -46.5 18.5 -76.5v-45c0 -46 -13.333 -82.167 -40 -108.5s-62.667 -39.5 -108 -39.5h-115c-45.333 0 -81.333 13.167 -108 39.5
s-40 62.5 -40 108.5zM320.998 835.999h60c4.66699 0 7.66699 -1.33301 9 -4s0.666016 -6 -2.00098 -10l-88 -105c-5.33301 -6.66699 -11.666 -10 -18.999 -10h-33c-10 0 -12.333 4.66699 -7 14l58 102c4.66699 8.66699 12 13 22 13z" />
    <glyph glyph-name="sacute" unicode="&#x15b;" horiz-adv-x="430" 
d="M249 703h60c10 0 12 -4.66699 6 -14l-87 -105c-5.33301 -6.66699 -12 -10 -20 -10h-33c-9.33301 0 -11.333 4.66699 -6 14l58 102c4.66699 8.66699 12 13 22 13zM242 0l-178 0.000976562c-9.33301 0 -14 4.66699 -14 14v35c0 8.66699 4.66699 13 14 13h168
c52 0 78 19.333 78 58v19c0 35.333 -17 59.666 -51 72.999l-118 50c-34 14 -58.333 30.5 -73 49.5s-22 44.167 -22 75.5c0 82 45 123 135 123h164c9.33301 0 14 -4.66699 14 -14v-35c0 -8.66699 -4.66699 -13 -14 -13h-151c-24 0 -42.167 -5 -54.5 -15
s-18.5 -21.667 -18.5 -35v-17c0 -28 19 -49.333 57 -64l118 -53c34.667 -13.333 58.167 -31 70.5 -53s18.5 -52.333 18.5 -91c0 -80 -47.667 -120 -143 -120z" />
    <glyph glyph-name="Scircumflex" unicode="&#x15c;" horiz-adv-x="555" 
d="M72 148l-0.00195312 31.999c0 9.33301 4.66699 14 14 14h45c9.33301 0 14 -4.66699 14 -14v-26c0 -60 29.667 -90 89 -90h88c59.333 0 89 30.667 89 92v34c0 48 -39.667 79.333 -119 94c-33.333 6 -66.666 13 -99.999 21s-61.666 23.5 -84.999 46.5s-35 54.5 -35 94.5v49
c0 46 13.167 82.167 39.5 108.5s62.5 39.5 108.5 39.5h111c45.333 0 81.333 -13.167 108 -39.5s40 -62.5 40 -108.5v-25c0 -10 -4.33301 -15 -13 -15h-46c-8.66699 0 -13 5 -13 15v18c0 60.667 -29.667 91 -89 91h-85c-59.333 0 -89 -31.667 -89 -95v-40
c0 -34 22.333 -57.333 67 -70c20 -5.33301 42 -10.166 66 -14.499s48.167 -10 72.5 -17s46.5 -15.667 66.5 -26s36.167 -26 48.5 -47s18.5 -46.5 18.5 -76.5v-45c0 -46 -13.333 -82.167 -40 -108.5s-62.667 -39.5 -108 -39.5h-115c-45.333 0 -81.333 13.167 -108 39.5
s-40 62.5 -40 108.5zM372.998 706.999h-34c-6.66699 0 -11.334 2.66699 -14.001 8l-47 88l-48 -88c-2 -5.33301 -6.33301 -8 -13 -8h-34c-8.66699 0 -10.667 4 -6 12l63 107c4.66699 6.66699 11.667 10 21 10h34c8.66699 0 15.334 -3.33301 20.001 -10l64 -107
c4.66699 -8 2.66699 -12 -6 -12z" />
    <glyph glyph-name="scircumflex" unicode="&#x15d;" horiz-adv-x="430" 
d="M307 574h-33.999c-6.66699 0 -11.334 2.66699 -14.001 8l-47 88l-47 -88c-2.66699 -5.33301 -7.33398 -8 -14.001 -8h-34c-8.66699 0 -10.667 4 -6 12l63 107c4.66699 6.66699 11.667 10 21 10h34c8.66699 0 15.334 -3.33301 20.001 -10l64 -107
c4.66699 -8 2.66699 -12 -6 -12zM242.001 0l-178 0.000976562c-9.33301 0 -14 4.66699 -14 14v35c0 8.66699 4.66699 13 14 13h168c52 0 78 19.333 78 58v19c0 35.333 -17 59.666 -51 72.999l-118 50c-34 14 -58.333 30.5 -73 49.5s-22 44.167 -22 75.5c0 82 45 123 135 123
h164c9.33301 0 14 -4.66699 14 -14v-35c0 -8.66699 -4.66699 -13 -14 -13h-151c-24 0 -42.167 -5 -54.5 -15s-18.5 -21.667 -18.5 -35v-17c0 -28 19 -49.333 57 -64l118 -53c34.667 -13.333 58.167 -31 70.5 -53s18.5 -52.333 18.5 -91c0 -80 -47.667 -120 -143 -120z" />
    <glyph glyph-name="uni015E" unicode="&#x15e;" horiz-adv-x="555" 
d="M144 484l-0.00195312 -40.001c0 -34 22.333 -57.333 67 -70c20 -5.33301 42 -10.166 66 -14.499s48.167 -10 72.5 -17s46.5 -15.667 66.5 -26s36.167 -26 48.5 -47s18.5 -46.5 18.5 -76.5v-45c0 -46 -13.333 -82.167 -40 -108.5s-62.667 -39.5 -108 -39.5h-8l-40 -43v-4
c50.667 0 76 -21.333 76 -64v-14c0 -42 -28.333 -63 -85 -63h-31c-8.66699 0 -13 4.33301 -13 13v14c0 8.66699 4.33301 13 13 13h24c19.333 0 32.666 2 39.999 6s11 11.667 11 23v2c0 12 -3.66699 20.167 -11 24.5s-20.666 6.5 -39.999 6.5h-16c-12 0 -19.833 5 -23.5 15
s-1.5 19.667 6.5 29l37 42h-55c-45.333 0 -81.333 13.167 -108 39.5s-40 62.5 -40 108.5v32c0 9.33301 4.66699 14 14 14h45c9.33301 0 14 -4.66699 14 -14v-26c0 -60 29.667 -90 89 -90h88c59.333 0 89 30.667 89 92v34c0 48 -39.667 79.333 -119 94
c-33.333 6 -66.666 13 -99.999 21s-61.666 23.5 -84.999 46.5s-35 54.5 -35 94.5v49c0 46 13.167 82.167 39.5 108.5s62.5 39.5 108.5 39.5h111c45.333 0 81.333 -13.167 108 -39.5s40 -62.5 40 -108.5v-25c0 -10 -4.33301 -15 -13 -15h-46c-8.66699 0 -13 5 -13 15v18
c0 60.667 -29.667 91 -89 91h-85c-59.333 0 -89 -31.667 -89 -95z" />
    <glyph glyph-name="uni015F" unicode="&#x15f;" horiz-adv-x="430" 
d="M217 -47c51.333 0 77 -21.332 77 -63.999v-14c0 -42 -28.333 -63 -85 -63h-31c-8.66699 0 -13 4.33301 -13 13v14c0 8.66699 4.33301 13 13 13h24c18.667 0 31.667 2.16699 39 6.5s11 11.833 11 22.5v2c0 12 -3.5 20.167 -10.5 24.5s-20.167 6.5 -39.5 6.5h-16
c-12 0 -20 5 -24 15s-2 19.667 6 29l37 42h-141c-9.33301 0 -14 4.66699 -14 14v35c0 8.66699 4.66699 13 14 13h168c52 0 78 19.333 78 58v19c0 35.333 -17 59.666 -51 72.999l-118 50c-34 14 -58.333 30.5 -73 49.5s-22 44.167 -22 75.5c0 82 45 123 135 123h164
c9.33301 0 14 -4.66699 14 -14v-35c0 -8.66699 -4.66699 -13 -14 -13h-151c-24 0 -42.167 -5 -54.5 -15s-18.5 -21.667 -18.5 -35v-17c0 -28 19 -49.333 57 -64l118 -53c34.667 -13.333 58.167 -31 70.5 -53s18.5 -51.667 18.5 -89c0 -76 -42.333 -116.667 -127 -122
l-41 -43v-4z" />
    <glyph glyph-name="Scaron" unicode="&#x160;" horiz-adv-x="555" 
d="M72 148l-0.00195312 31.999c0 9.33301 4.66699 14 14 14h45c9.33301 0 14 -4.66699 14 -14v-26c0 -60 29.667 -90 89 -90h88c59.333 0 89 30.667 89 92v34c0 48 -39.667 79.333 -119 94c-33.333 6 -66.666 13 -99.999 21s-61.666 23.5 -84.999 46.5s-35 54.5 -35 94.5v49
c0 46 13.167 82.167 39.5 108.5s62.5 39.5 108.5 39.5h111c45.333 0 81.333 -13.167 108 -39.5s40 -62.5 40 -108.5v-25c0 -10 -4.33301 -15 -13 -15h-46c-8.66699 0 -13 5 -13 15v18c0 60.667 -29.667 91 -89 91h-85c-59.333 0 -89 -31.667 -89 -95v-40
c0 -34 22.333 -57.333 67 -70c20 -5.33301 42 -10.166 66 -14.499s48.167 -10 72.5 -17s46.5 -15.667 66.5 -26s36.167 -26 48.5 -47s18.5 -46.5 18.5 -76.5v-45c0 -46 -13.333 -82.167 -40 -108.5s-62.667 -39.5 -108 -39.5h-115c-45.333 0 -81.333 13.167 -108 39.5
s-40 62.5 -40 108.5zM291.998 706.999h-34.999c-8.66699 0 -15.334 3.33301 -20.001 10l-63 107c-4.66699 8 -3 12 5 12h34c6.66699 0 11.334 -2.66699 14.001 -8l47 -88l48 88c2 5.33301 6.66699 8 14 8h34c8 0 9.66699 -4 5 -12l-63 -107
c-4.66699 -6.66699 -11.334 -10 -20.001 -10z" />
    <glyph glyph-name="scaron" unicode="&#x161;" horiz-adv-x="430" 
d="M195 574c-9.33301 0 -16.334 3.33301 -21.001 10l-63 107c-4.66699 8 -2.66699 12 6 12h34c6.66699 0 11.334 -2.66699 14.001 -8l47 -88l47 88c2.66699 5.33301 7.33398 8 14.001 8h34c8.66699 0 10.667 -4 6 -12l-64 -107c-4.66699 -6.66699 -11.334 -10 -20.001 -10
h-34zM241.999 0l-178 0.000976562c-9.33301 0 -14 4.66699 -14 14v35c0 8.66699 4.66699 13 14 13h168c52 0 78 19.333 78 58v19c0 35.333 -17 59.666 -51 72.999l-118 50c-34 14 -58.333 30.5 -73 49.5s-22 44.167 -22 75.5c0 82 45 123 135 123h164
c9.33301 0 14 -4.66699 14 -14v-35c0 -8.66699 -4.66699 -13 -14 -13h-151c-24 0 -42.167 -5 -54.5 -15s-18.5 -21.667 -18.5 -35v-17c0 -28 19 -49.333 57 -64l118 -53c34.667 -13.333 58.167 -31 70.5 -53s18.5 -52.333 18.5 -91c0 -80 -47.667 -120 -143 -120z" />
    <glyph glyph-name="uni0162" unicode="&#x162;" horiz-adv-x="427" 
d="M248 -45v-47c0 -18 -4.66699 -37.333 -14 -58l-33 -80c-3.33301 -5.33301 -7.33301 -8 -12 -8c-6.66699 0 -10 4 -10 12v180c0 9.33301 4.33301 14 13 14h44c8 0 12 -4.33301 12 -13zM236 0h-45c-9.33301 0 -14 4.66699 -14 14v556c0 6 -3.33301 9 -10 9h-136
c-10 0 -15 4.66699 -15 14v36c0 9.33301 5 14 15 14h365c10 0 15 -4.66699 15 -14v-36c0 -9.33301 -5 -14 -15 -14h-136c-6.66699 0 -10 -3 -10 -9v-556c0 -9.33301 -4.66699 -14 -14 -14z" />
    <glyph glyph-name="uni0163" unicode="&#x163;" horiz-adv-x="349" 
d="M242 -45v-47c0 -16.667 -5 -36 -15 -58l-33 -80c-3.33301 -5.33301 -7.33301 -8 -12 -8c-6.66699 0 -10 4 -10 12v180c0 9.33301 4.33301 14 13 14h44c8.66699 0 13 -4.33301 13 -13zM88 446h-55c-9.33301 0 -14 4.33301 -14 13v37c0 9.33301 4.66699 14 14 14h55
c6.66699 0 10 3 10 9v86c0 9.33301 4.66699 14 14 14h45c8.66699 0 13 -4.66699 13 -14v-86c0 -6 3.66699 -9 11 -9h106c10 0 15 -4.66699 15 -14v-37c0 -8.66699 -5 -13 -15 -13h-106c-7.33301 0 -11 -3 -11 -9v-288c0 -56.667 29.333 -85 88 -85h39
c10 0 15 -4.66699 15 -14v-37c0 -8.66699 -5 -13 -15 -13h-48c-46 -0 -82.667 12.833 -110 38.5s-41 61.5 -41 107.5v291c0 6 -3.33301 9 -10 9z" />
    <glyph glyph-name="Tcaron" unicode="&#x164;" horiz-adv-x="427" 
d="M198 707c-9.33301 0 -16.333 3.33301 -21 10l-63 107c-4.66699 8 -2.66699 12 6 12h33c7.33301 0 12 -2.66699 14 -8l48 -88l47 88c2.66699 5.33301 7.33398 8 14.001 8h34c8.66699 0 10.667 -4 6 -12l-64 -107c-4.66699 -6.66699 -11.334 -10 -20.001 -10h-34zM236 0
h-45c-9.33301 0 -14 4.66699 -14 14v556c0 6 -3.33301 9 -10 9h-136c-10 0 -15 4.66699 -15 14v36c0 9.33301 5 14 15 14h365c10 0 15 -4.66699 15 -14v-36c0 -9.33301 -5 -14 -15 -14h-136c-6.66699 0 -10 -3 -10 -9v-556c0 -9.33301 -4.66699 -14 -14 -14z" />
    <glyph glyph-name="tcaron" unicode="&#x165;" horiz-adv-x="417" 
d="M411 630v-58c0 -13.333 -5 -35 -15 -65l-33 -95c-2.66699 -4.66699 -7 -7 -13 -7s-9 4 -9 12v212c0 9.33301 4.33301 14 13 14h44c8.66699 0 13 -4.33301 13 -13zM88 446h-55c-9.33301 0 -14 4.33301 -14 13v37c0 9.33301 4.66699 14 14 14h55c6.66699 0 10 3 10 9v86
c0 9.33301 4.66699 14 14 14h45c8.66699 0 13 -4.66699 13 -14v-86c0 -6 3.66699 -9 11 -9h106c10 0 15 -4.66699 15 -14v-37c0 -8.66699 -5 -13 -15 -13h-106c-7.33301 0 -11 -3 -11 -9v-288c0 -56.667 29.333 -85 88 -85h39c10 0 15 -4.66699 15 -14v-37
c0 -8.66699 -5 -13 -15 -13h-48c-46 -0 -82.667 12.833 -110 38.5s-41 61.5 -41 107.5v291c0 6 -3.33301 9 -10 9z" />
    <glyph glyph-name="Tbar" unicode="&#x166;" horiz-adv-x="503" 
d="M247 0h-45c-9.33301 0 -14 4.66699 -14 14v289c0 6 -3.33301 9 -10 9h-85c-9.33301 0 -14 4.66699 -14 14v29c0 9.33301 4.66699 14 14 14h85c6.66699 0 10 3.33301 10 10v191c0 6 -3.33301 9 -10 9h-140c-9.33301 0 -14 4.66699 -14 14v36c0 9.33301 4.66699 14 14 14
h373c9.33301 0 14 -4.66699 14 -14v-36c0 -9.33301 -4.66699 -14 -14 -14h-140c-6.66699 0 -10 -3 -10 -9v-191c0 -6.66699 3.33301 -10 10 -10h91c9.33301 0 14 -4.66699 14 -14v-29c0 -9.33301 -4.66699 -14 -14 -14h-91c-6.66699 0 -10 -3 -10 -9v-289
c0 -9.33301 -4.66699 -14 -14 -14z" />
    <glyph glyph-name="tbar" unicode="&#x167;" horiz-adv-x="355" 
d="M303 0h-51c-46 -0 -82.833 12.833 -110.5 38.5s-41.5 61.5 -41.5 107.5v101c0 6.66699 -3.33301 10 -10 10h-57c-9.33301 0 -14 4.33301 -14 13v30c0 9.33301 4.66699 14 14 14h57c6.66699 0 10 3 10 9v114c0 6 -3.33301 9 -10 9h-57c-9.33301 0 -14 4.33301 -14 13v37
c0 9.33301 4.66699 14 14 14h57c6.66699 0 10 3 10 9v86c0 9.33301 4.66699 14 14 14h45c9.33301 0 14 -4.66699 14 -14v-86c0 -6 3.33301 -9 10 -9h110c9.33301 0 14 -4.66699 14 -14v-37c0 -8.66699 -4.66699 -13 -14 -13h-110c-6.66699 0 -10 -3 -10 -9v-114
c0 -6 3.33301 -9 10 -9h110c9.33301 0 14 -4.66699 14 -14v-30c0 -8.66699 -4.66699 -13 -14 -13h-110c-6.66699 0 -10 -3.33301 -10 -10v-98c0 -56.667 29.333 -85 88 -85h42c9.33301 0 14 -4.66699 14 -14v-37c0 -8.66699 -4.66699 -13 -14 -13z" />
    <glyph glyph-name="Utilde" unicode="&#x168;" horiz-adv-x="554" 
d="M264.5 712c-9 -6.66699 -23.167 -9.99707 -42.5 -9.99707c-36.667 0 -55 25.667 -55 77v39c0 6.66699 3 10 9 10h21c6 0 9 -3.33301 9 -10v-26c0 -18.667 1.83301 -31.5 5.5 -38.5s9.5 -10.5 17.5 -10.5s14.167 2.66699 18.5 8s10.833 17.166 19.5 35.499
s17 30.5 25 36.5s21.333 9 40 9c37.333 0 56 -26 56 -78v-39c0 -7.33301 -3 -11 -9 -11h-21c-6.66699 0 -10 3.66699 -10 11v27c0 19.333 -1.66699 32.166 -5 38.499s-9.33301 9.5 -18 9.5s-14.5 -2 -17.5 -6s-8.66699 -15.333 -17 -34s-17 -31.334 -26 -38.001z
M421 643.003h45c9.33301 0 14 -4.33301 14 -13v-482c0 -46.667 -13 -83 -39 -109s-62 -39 -108 -39h-111c-46 0 -82.167 13 -108.5 39s-39.5 62.333 -39.5 109v481c0 9.33301 4.66699 14 14 14h45c9.33301 0 14 -4.66699 14 -14v-478c0 -58 27.667 -87 83 -87h94
c56 0 84 29 84 87v478c0 9.33301 4.33301 14 13 14z" />
    <glyph glyph-name="utilde" unicode="&#x169;" horiz-adv-x="512" 
d="M139 653l0.00195312 38c0 7.33301 3 11 9 11h21c6 0 9 -3.66699 9 -11v-26c0 -18.667 1.66699 -31.334 5 -38.001s9.16602 -10 17.499 -10s14.666 2.66699 18.999 8s10.666 17 18.999 35s16.5 30 24.5 36s21.667 9 41 9c36.667 0 55 -25.667 55 -77v-40
c0 -7.33301 -2.66699 -11 -8 -11h-21c-6.66699 0 -10 3.66699 -10 11v27c0 19.333 -1.66699 32.333 -5 39s-8.5 10 -15.5 10s-11.667 -0.333008 -14 -1s-5 -3 -8 -7s-5.16699 -7.5 -6.5 -10.5s-5.16602 -12.167 -11.499 -27.5s-14 -26.166 -23 -32.499
s-23.167 -9.5 -42.5 -9.5c-36.667 0 -55 25.667 -55 77zM264.002 0h-56.001c-45.333 0 -80.666 13 -105.999 39s-38 62.333 -38 109v348c0 9.33301 4.66699 14 14 14h45c9.33301 0 14 -4.66699 14 -14v-345c0 -58 27.667 -87 83 -87h57c30 0 53 8 69 24s24 38.667 24 68v340
c0 9.33301 4.66699 14 14 14h45c9.33301 0 14 -4.66699 14 -14v-482c0 -9.33301 -4.66699 -14 -14 -14h-45c-9.33301 0 -14 4.66699 -14 14v39h-4c-16.667 -35.333 -50.667 -53 -102 -53z" />
    <glyph glyph-name="Umacron" unicode="&#x16a;" horiz-adv-x="554" 
d="M378 746h-201c-9.33301 0 -14 4.66699 -14 14v26c0 9.33301 4.66699 14 14 14h201c9.33301 0 14 -4.66699 14 -14v-26c0 -9.33301 -4.66699 -14 -14 -14zM421 643h45c9.33301 0 14 -4.33301 14 -13v-482c0 -46.667 -13 -83 -39 -109s-62 -39 -108 -39h-111
c-46 0 -82.167 13 -108.5 39s-39.5 62.333 -39.5 109v481c0 9.33301 4.66699 14 14 14h45c9.33301 0 14 -4.66699 14 -14v-478c0 -58 27.667 -87 83 -87h94c56 0 84 29 84 87v478c0 9.33301 4.33301 14 13 14z" />
    <glyph glyph-name="umacron" unicode="&#x16b;" horiz-adv-x="512" 
d="M354 613h-201c-9.33301 0 -14 4.66699 -14 14v24c0 9.33301 4.66699 14 14 14h201c9.33301 0 14 -4.66699 14 -14v-24c0 -9.33301 -4.66699 -14 -14 -14zM264 0h-56.001c-45.333 0 -80.666 13 -105.999 39s-38 62.333 -38 109v348c0 9.33301 4.66699 14 14 14h45
c9.33301 0 14 -4.66699 14 -14v-345c0 -58 27.667 -87 83 -87h57c30 0 53 8 69 24s24 38.667 24 68v340c0 9.33301 4.66699 14 14 14h45c9.33301 0 14 -4.66699 14 -14v-482c0 -9.33301 -4.66699 -14 -14 -14h-45c-9.33301 0 -14 4.66699 -14 14v39h-4
c-16.667 -35.333 -50.667 -53 -102 -53z" />
    <glyph glyph-name="Ubreve" unicode="&#x16c;" horiz-adv-x="554" 
d="M173 825c0 7.33301 3.66699 11 11 11h28c6.66699 0 10 -3.66699 10 -11v-10c0 -24.667 4 -42.167 12 -52.5s21.667 -15.5 41 -15.5h5c20 0 34.167 5.16699 42.5 15.5s12.5 27.833 12.5 52.5v10c0 6.66699 3.33301 10 10 10h26c7.33301 0 11 -3.33301 11 -10v-12
c0 -70.667 -32 -106 -96 -106h-17c-64 0 -96 35.333 -96 106v12zM421 643h45c9.33301 0 14 -4.33301 14 -13v-482c0 -46.667 -13 -83 -39 -109s-62 -39 -108 -39h-111c-46 0 -82.167 13 -108.5 39s-39.5 62.333 -39.5 109v481c0 9.33301 4.66699 14 14 14h45
c9.33301 0 14 -4.66699 14 -14v-478c0 -58 27.667 -87 83 -87h94c56 0 84 29 84 87v478c0 9.33301 4.33301 14 13 14z" />
    <glyph glyph-name="ubreve" unicode="&#x16d;" horiz-adv-x="512" 
d="M264 0h-56.001c-45.333 0 -80.666 13 -105.999 39s-38 62.333 -38 109v348c0 9.33301 4.66699 14 14 14h45c9.33301 0 14 -4.66699 14 -14v-345c0 -58 27.667 -87 83 -87h57c30 0 53 8 69 24s24 38.667 24 68v340c0 9.33301 4.66699 14 14 14h45
c9.33301 0 14 -4.66699 14 -14v-482c0 -9.33301 -4.66699 -14 -14 -14h-45c-9.33301 0 -14 4.66699 -14 14v39h-4c-16.667 -35.333 -50.667 -53 -102 -53zM149.999 674v12c0 7.33301 3.33301 11 10 11h28c6.66699 0 10 -3.66699 10 -11v-11c0 -24.667 4 -42 12 -52
s21.667 -15 41 -15h5c20 0 34.167 5 42.5 15s12.5 27.333 12.5 52v10c0 7.33301 3.66699 11 11 11h26c6.66699 0 10 -3.66699 10 -11v-11c0 -70.667 -32 -106 -96 -106h-17c-63.333 0 -95 35.333 -95 106z" />
    <glyph glyph-name="Uring" unicode="&#x16e;" horiz-adv-x="554" 
d="M292 697l-31 0.00195312c-20.667 0 -36.834 6 -48.501 18s-17.5 28.667 -17.5 50v41c0 21.333 5.83301 37.666 17.5 48.999s27.834 17 48.501 17h31c21.333 0 38 -5.83301 50 -17.5s18 -27.834 18 -48.501v-41c0 -21.333 -6 -38 -18 -50s-28.667 -18 -50 -18z
M270 730.002h13c26 0 39 14.333 39 43v23c0 28.667 -13 43 -39 43h-13c-26 0 -39 -14.333 -39 -43v-23c0 -28.667 13 -43 39 -43zM421 643.002h45c9.33301 0 14 -4.33301 14 -13v-482c0 -46.667 -13 -83 -39 -109s-62 -39 -108 -39h-111c-46 0 -82.167 13 -108.5 39
s-39.5 62.333 -39.5 109v481c0 9.33301 4.66699 14 14 14h45c9.33301 0 14 -4.66699 14 -14v-478c0 -58 27.667 -87 83 -87h94c56 0 84 29 84 87v478c0 9.33301 4.33301 14 13 14z" />
    <glyph glyph-name="uring" unicode="&#x16f;" horiz-adv-x="512" 
d="M264 0h-56.001c-45.333 0 -80.666 13 -105.999 39s-38 62.333 -38 109v348c0 9.33301 4.66699 14 14 14h45c9.33301 0 14 -4.66699 14 -14v-345c0 -58 27.667 -87 83 -87h57c30 0 53 8 69 24s24 38.667 24 68v340c0 9.33301 4.66699 14 14 14h45
c9.33301 0 14 -4.66699 14 -14v-482c0 -9.33301 -4.66699 -14 -14 -14h-45c-9.33301 0 -14 4.66699 -14 14v39h-4c-16.667 -35.333 -50.667 -53 -102 -53zM191.999 659v-36c0 -14.667 3 -24.667 9 -30s16.333 -8 31 -8h15c14.667 0 25 2.66699 31 8s9 15.333 9 30v36
c0 14.667 -3 24.667 -9 30s-16.333 8 -31 8h-15c-14.667 0 -25 -2.66699 -31 -8s-9 -15.333 -9 -30zM158.999 615v54c0 38.667 21.333 58 64 58h33c43.333 0 65 -19.333 65 -58v-54c0 -39.333 -21.667 -59 -65 -59h-33c-42.667 0 -64 19.667 -64 59z" />
    <glyph glyph-name="Uhungarumlaut" unicode="&#x170;" horiz-adv-x="554" 
d="M262 836h41c11.333 0 13.333 -4.66699 6 -14l-77 -105c-5.33301 -6.66699 -11.333 -10 -18 -10h-24c-8 0 -10 4.66699 -6 14l57 102c4.66699 8.66699 11.667 13 21 13zM394 836h41c10.667 0 13 -4.66699 7 -14l-78 -105c-5.33301 -6.66699 -11.333 -10 -18 -10h-23
c-10 0 -12.333 4.66699 -7 14l57 102c4.66699 8.66699 11.667 13 21 13zM421 643h45c9.33301 0 14 -4.33301 14 -13v-482c0 -46.667 -13 -83 -39 -109s-62 -39 -108 -39h-111c-46 0 -82.167 13 -108.5 39s-39.5 62.333 -39.5 109v481c0 9.33301 4.66699 14 14 14h45
c9.33301 0 14 -4.66699 14 -14v-478c0 -58 27.667 -87 83 -87h94c56 0 84 29 84 87v478c0 9.33301 4.33301 14 13 14z" />
    <glyph glyph-name="uhungarumlaut" unicode="&#x171;" horiz-adv-x="512" 
d="M248 703h41c11.333 0 13.333 -4.66699 6 -14l-77 -105c-5.33301 -6.66699 -11.333 -10 -18 -10h-24c-8 0 -10 4.66699 -6 14l57 102c4.66699 8.66699 11.667 13 21 13zM381 703h40c10.667 0 13 -4.66699 7 -14l-77 -105c-6.66699 -6.66699 -13 -10 -19 -10h-23
c-10 0 -12.333 4.66699 -7 14l57 102c4.66699 8.66699 12 13 22 13zM264 0h-56.001c-45.333 0 -80.666 13 -105.999 39s-38 62.333 -38 109v348c0 9.33301 4.66699 14 14 14h45c9.33301 0 14 -4.66699 14 -14v-345c0 -58 27.667 -87 83 -87h57c30 0 53 8 69 24
s24 38.667 24 68v340c0 9.33301 4.66699 14 14 14h45c9.33301 0 14 -4.66699 14 -14v-482c0 -9.33301 -4.66699 -14 -14 -14h-45c-9.33301 0 -14 4.66699 -14 14v39h-4c-16.667 -35.333 -50.667 -53 -102 -53z" />
    <glyph glyph-name="Uogonek" unicode="&#x172;" horiz-adv-x="554" 
d="M421 643l45 0.000976562c9.33301 0 14 -4.33301 14 -13v-482c0 -46.667 -13 -83 -39 -109s-62 -39 -108 -39h-16l-49 -67h40c10.667 0 17.667 -1 21 -3s5 -5.66699 5 -11c0 -8.66699 -8.5 -15.834 -25.5 -21.501s-34.667 -8.5 -53 -8.5s-29.833 4.66699 -34.5 14
s-2.66699 19.333 6 30l47 67h-52c-46 0 -82.167 13 -108.5 39s-39.5 62.333 -39.5 109v481c0 9.33301 4.66699 14 14 14h45c9.33301 0 14 -4.66699 14 -14v-478c0 -58 27.667 -87 83 -87h94c56 0 84 29 84 87v478c0 9.33301 4.33301 14 13 14z" />
    <glyph glyph-name="uogonek" unicode="&#x173;" horiz-adv-x="502" 
d="M384 510h44.999c9.33301 0 14 -4.66699 14 -14v-482c0 -9.33301 -4.66699 -14 -14 -14h-30c-34 -46 -49.667 -69 -47 -69c18 0 31.667 0.666992 41 2c9.33301 0 15.666 -0.833008 18.999 -2.5s4.33301 -5.16699 3 -10.5c-0.666992 -9.33301 -9.16699 -17.333 -25.5 -24
s-32.833 -10 -49.5 -10s-26.667 6.5 -30 19.5s-0.666016 24.5 8.00098 34.5l52 76v37h-4c-16.667 -35.333 -50.667 -53 -102 -53h-56c-45.333 0 -80.666 13 -105.999 39s-38 62.333 -38 109v348c0 9.33301 4.66699 14 14 14h45c9.33301 0 14 -4.66699 14 -14v-345
c0 -58 27.667 -87 83 -87h57c30 0 53 8 69 24s24 38.667 24 68v340c0 9.33301 4.66699 14 14 14z" />
    <glyph glyph-name="Wcircumflex" unicode="&#x174;" horiz-adv-x="798" 
d="M496 707h-34c-6.66699 0 -11.334 2.66699 -14.001 8l-47 88l-47 -88c-2.66699 -5.33301 -7.33398 -8 -14.001 -8h-34c-8.66699 0 -10.667 4 -6 12l64 107c4.66699 6.66699 11.334 10 20.001 10h34c8.66699 0 15.334 -3.33301 20.001 -10l63 -107c4.66699 -8 3 -12 -5 -12
zM249 0h-77c-9.33301 0 -15 4.66699 -17 14l-128 615c-2 9.33301 2.33301 14 13 14h54c10 0 15.333 -4.66699 16 -14l101 -551h6l135 552c2 8.66699 7.33301 13 16 13h60c8.66699 0 14 -4.33301 16 -13l137 -552h6l100 550c2 10 7.66699 15 17 15h54c10.667 0 15 -5 13 -15
l-129 -614c-2 -9.33301 -7.33301 -14 -16 -14h-77c-9.33301 0 -15 4.66699 -17 14l-131 537h-4l-132 -537c-2 -9.33301 -7.33301 -14 -16 -14z" />
    <glyph glyph-name="wcircumflex" unicode="&#x175;" horiz-adv-x="686" 
d="M438 574h-34c-6.66699 0 -11.334 2.66699 -14.001 8l-47 88l-48 -88c-2 -5.33301 -6.66699 -8 -14 -8h-33c-8.66699 0 -10.667 4 -6 12l63 107c4.66699 6.66699 11.667 10 21 10h34c8.66699 0 15.334 -3.33301 20.001 -10l63 -107c4.66699 -8 3 -12 -5 -12zM227 0h-61
c-9.33301 0 -15 4.66699 -17 14l-128 482c-2 9.33301 1.33301 14 10 14h51c8.66699 0 14 -4.66699 16 -14l97 -408h6l103 408c2 9.33301 7.33301 14 16 14h46c9.33301 0 15.333 -4.66699 18 -14l100 -408h6l98 408c2 9.33301 7.33301 14 16 14h51
c8.66699 0 12 -4.66699 10 -14l-128 -482c-2 -9.33301 -7.66699 -14 -17 -14h-62c-8.66699 0 -14 4.66699 -16 14l-97 398h-5l-96 -398c-2 -9.33301 -7.66699 -14 -17 -14z" />
    <glyph glyph-name="Ycircumflex" unicode="&#x176;" horiz-adv-x="500" 
d="M343 707h-34c-6.66699 0 -11.334 2.66699 -14.001 8l-47 88l-47 -88c-2.66699 -5.33301 -7.33398 -8 -14.001 -8h-34c-8 0 -9.66699 4 -5 12l63 107c4.66699 6.66699 11.334 10 20.001 10h34c8.66699 0 15.334 -3.33301 20.001 -10l64 -107
c4.66699 -8 2.66699 -12 -6 -12zM272 0l-45 -0.000976562c-9.33301 0 -14 4.66699 -14 14v227l-190 387c-2 4.66699 -2 8.33398 0 11.001s5 4 9 4h56c7.33301 0 13 -4.66699 17 -14l143 -303h5l142 303c2.66699 9.33301 8 14 16 14h57c11.333 0 14.333 -5 9 -15l-191 -387
v-227c0 -9.33301 -4.66699 -14 -14 -14z" />
    <glyph glyph-name="ycircumflex" unicode="&#x177;" horiz-adv-x="463" 
d="M334 574h-34.001c-6.66699 0 -11.334 2.66699 -14.001 8l-47 88l-48 -88c-2 -5.33301 -6.66699 -8 -14 -8h-33c-8.66699 0 -10.667 4 -6 12l63 107c4.66699 6.66699 11.334 10 20.001 10h35c8.66699 0 15.334 -3.33301 20.001 -10l63 -107c4.66699 -8 3 -12 -5 -12z
M109.999 -157l-43.998 0.000976562c-9.33301 0 -14 4.66699 -14 14v37c0 9.33301 4.66699 14 14 14h25c42.667 0 72.667 12 90 36c14 19.333 26.667 47 38 83h-29c-8 0 -13.667 4.66699 -17 14l-147 455c-2.66699 9.33301 0.666016 14 9.99902 14h48
c8.66699 0 14.334 -4.66699 17.001 -14l129 -412h4l129 412c2 9.33301 7.33301 14 16 14h46c11.333 0 15.333 -5 12 -15l-149 -475c-16.667 -56.667 -37.834 -100.334 -63.501 -131.001s-63.834 -46 -114.501 -46z" />
    <glyph glyph-name="Ydieresis" unicode="&#x178;" horiz-adv-x="500" 
d="M130 721v101c0 9.33301 4.33301 14 13 14h43c8 0 12 -4.33301 12 -13v-102c0 -9.33301 -4 -14 -12 -14h-43c-8.66699 0 -13 4.66699 -13 14zM301 721v101c0 9.33301 4.33301 14 13 14h43c8 0 12 -4.33301 12 -13v-102c0 -9.33301 -4 -14 -12 -14h-43
c-8.66699 0 -13 4.66699 -13 14zM272 0l-45 -0.000976562c-9.33301 0 -14 4.66699 -14 14v227l-190 387c-2 4.66699 -2 8.33398 0 11.001s5 4 9 4h56c7.33301 0 13 -4.66699 17 -14l143 -303h5l142 303c2.66699 9.33301 8 14 16 14h57c11.333 0 14.333 -5 9 -15l-191 -387
v-227c0 -9.33301 -4.66699 -14 -14 -14z" />
    <glyph glyph-name="Zacute" unicode="&#x179;" horiz-adv-x="493" 
d="M315 836h60c4.66699 0 7.66699 -1.33301 9 -4s0.666016 -6 -2.00098 -10l-88 -105c-5.33301 -6.66699 -11.666 -10 -18.999 -10h-33c-8.66699 0 -11 4.66699 -7 14l58 102c4.66699 8.66699 12 13 22 13zM44 14v36c0 12 2 20.667 6 26l310 495v4h-289
c-9.33301 0 -14 4.66699 -14 14v40c0 9.33301 4.66699 14 14 14h354c9.33301 0 14 -4.66699 14 -14v-48c0 -10.667 -2.66699 -20 -8 -28l-302 -481v-4h306c9.33301 0 14 -4.33301 14 -13v-40c0 -10 -4.66699 -15 -14 -15h-377c-9.33301 0 -14 4.66699 -14 14z" />
    <glyph glyph-name="zacute" unicode="&#x17a;" horiz-adv-x="418" 
d="M280 703h61.001c4 0 6.66699 -1.33301 8 -4s0.666016 -6 -2.00098 -10l-87 -105c-6.66699 -6.66699 -13.667 -10 -21 -10h-32c-9.33301 0 -11.333 4.66699 -6 14l58 102c4 8.66699 11 13 21 13zM33.001 14v19c0 12 3.33301 22.333 10 31l247 378v4h-235
c-9.33301 0 -14 5 -14 15v35c0 9.33301 4.66699 14 14 14h307c10 0 15 -4.66699 15 -14v-33c0 -12 -3 -21 -9 -27l-239 -368v-4h242c9.33301 0 14 -5 14 -15v-35c0 -9.33301 -4.66699 -14 -14 -14h-323c-10 0 -15 4.66699 -15 14z" />
    <glyph glyph-name="Zdotaccent" unicode="&#x17b;" horiz-adv-x="493" 
d="M232 725v97c0 9.33301 4.33301 14 13 14h46c8.66699 0 13 -4.66699 13 -14v-97c0 -9.33301 -4.33301 -14 -13 -14h-46c-8.66699 0 -13 4.66699 -13 14zM44 14v36c0 12 2 20.667 6 26l310 495v4h-289c-9.33301 0 -14 4.66699 -14 14v40c0 9.33301 4.66699 14 14 14h354
c9.33301 0 14 -4.66699 14 -14v-48c0 -10.667 -2.66699 -20 -8 -28l-302 -481v-4h306c9.33301 0 14 -4.33301 14 -13v-40c0 -10 -4.66699 -15 -14 -15h-377c-9.33301 0 -14 4.66699 -14 14z" />
    <glyph glyph-name="zdotaccent" unicode="&#x17c;" horiz-adv-x="418" 
d="M193 590v97c0 9.33301 4.33301 14 13 14h46c9.33301 0 14 -4.33301 14 -13v-98c0 -9.33301 -4.66699 -14 -14 -14h-46c-8.66699 0 -13 4.66699 -13 14zM33 14v19c0 12 3.33301 22.333 10 31l247 378v4h-235c-9.33301 0 -14 5 -14 15v35c0 9.33301 4.66699 14 14 14h307
c10 0 15 -4.66699 15 -14v-33c0 -12 -3 -21 -9 -27l-239 -368v-4h242c9.33301 0 14 -5 14 -15v-35c0 -9.33301 -4.66699 -14 -14 -14h-323c-10 0 -15 4.66699 -15 14z" />
    <glyph glyph-name="Zcaron" unicode="&#x17d;" horiz-adv-x="493" 
d="M247 707c-8.66699 0 -15.334 3.33301 -20.001 10l-64 107c-4.66699 8 -2.66699 12 6 12h34c6.66699 0 11.334 -2.66699 14.001 -8l47 -88l47 88c2.66699 5.33301 7.33398 8 14.001 8h34c8.66699 0 10.667 -4 6 -12l-64 -107c-4.66699 -6.66699 -11.334 -10 -20.001 -10
h-34zM44 14v36c0 12 2 20.667 6 26l310 495v4h-289c-9.33301 0 -14 4.66699 -14 14v40c0 9.33301 4.66699 14 14 14h354c9.33301 0 14 -4.66699 14 -14v-48c0 -10.667 -2.66699 -20 -8 -28l-302 -481v-4h306c9.33301 0 14 -4.33301 14 -13v-40c0 -10 -4.66699 -15 -14 -15
h-377c-9.33301 0 -14 4.66699 -14 14z" />
    <glyph glyph-name="zcaron" unicode="&#x17e;" horiz-adv-x="418" 
d="M212 574c-8.66699 0 -15.334 3.33301 -20.001 10l-63 107c-4.66699 8 -3 12 5 12h34c6.66699 0 11.334 -2.66699 14.001 -8l47 -88l48 88c2 5.33301 6.66699 8 14 8h33c8.66699 0 10.667 -4 6 -12l-63 -107c-4.66699 -6.66699 -11.667 -10 -21 -10h-34zM33 14v19
c0 12 3.33301 22.333 10 31l247 378v4h-235c-9.33301 0 -14 5 -14 15v35c0 9.33301 4.66699 14 14 14h307c10 0 15 -4.66699 15 -14v-33c0 -12 -3 -21 -9 -27l-239 -368v-4h242c9.33301 0 14 -5 14 -15v-35c0 -9.33301 -4.66699 -14 -14 -14h-323c-10 0 -15 4.66699 -15 14z
" />
    <glyph glyph-name="florin" unicode="&#x192;" horiz-adv-x="504" 
d="M71 -133h-38.001c-11.333 0 -17 4.33301 -17 13v37c0 9.33301 5.33301 14 16 14h36c48.667 0 79 28.667 91 86l67 310c1.33301 7.33301 -1.66699 11 -9 11h-71c-10.667 0 -16 4.66699 -16 14v36c0 8.66699 5 13 15 13h86c6.66699 0 11 3.33301 13 10l31 145
c10.667 50 29.334 87 56.001 111s62.667 36 108 36h32c10.667 0 16 -4.33301 16 -13v-37c0 -9.33301 -5 -14 -15 -14h-34c-26 0 -46.167 -7.16699 -60.5 -21.5s-24.5 -35.833 -30.5 -64.5l-31 -142c-0.666992 -6.66699 2 -10 8 -10h89c11.333 0 17 -4.33301 17 -13v-36
c0 -9.33301 -4.33301 -14 -13 -14h-106c-7.33301 0 -11.333 -3 -12 -9l-69 -323c-20 -92.667 -73 -139 -159 -139z" />
    <glyph glyph-name="AEacute" unicode="&#x1fc;" horiz-adv-x="775" 
d="M486 836h60.002c4.66699 0 7.66699 -1.33301 9 -4s0.666016 -6 -2.00098 -10l-87 -105c-6.66699 -6.66699 -13.334 -10 -20.001 -10h-33c-9.33301 0 -11.333 4.66699 -6 14l58 102c4 8.66699 11 13 21 13zM63.002 0h-50.999c-10.667 0 -13.334 5 -8.00098 15l320 614
c5.33301 9.33301 13 14 23 14h356c8.66699 0 13 -4.66699 13 -14v-36c0 -9.33301 -4.33301 -14 -13 -14h-245c-7.33301 0 -11 -3 -11 -9v-202c0 -6 3.66699 -9 11 -9h213c10 0 15 -4.66699 15 -14v-36c0 -9.33301 -5 -14 -15 -14h-213c-7.33301 0 -11 -3 -11 -9v-213
c0 -6 3.66699 -9 11 -9h245c8.66699 0 13 -4.66699 13 -14v-36c0 -9.33301 -4.33301 -14 -13 -14h-315c-8.66699 0 -13 4.66699 -13 14v147h-216l-78 -147c-4 -9.33301 -10 -14 -18 -14zM375.003 226v344h-4l-182 -344h186z" />
    <glyph glyph-name="aeacute" unicode="&#x1fd;" horiz-adv-x="784" 
d="M454 703h60.001c4.66699 0 7.66699 -1.33301 9 -4s0.666016 -6 -2.00098 -10l-87 -105c-6.66699 -6.66699 -13.667 -10 -21 -10h-32c-9.33301 0 -11.333 4.66699 -6 14l58 102c4 8.66699 11 13 21 13zM432.001 194l0.000976562 -43c0 -58 28 -87 84 -87h196
c9.33301 0 14 -4.66699 14 -14v-37c0 -8.66699 -4.66699 -13 -14 -13h-205c-58.667 -0 -99.334 21.333 -122.001 64c-21.333 -42.667 -65.333 -64 -132 -64h-48c-45.333 -0 -81.333 12.833 -108 38.5s-40 61.167 -40 106.5v20c0 46 13 81.667 39 107s62.333 38 109 38h146
c5.33301 0 8 2.66699 8 8v42c0 57.333 -27.667 86 -83 86h-157c-9.33301 0 -14 4.66699 -14 14v36c0 9.33301 4.66699 14 14 14h155c60.667 0 101.667 -21 123 -63c20.667 42 61 63 121 63h61c46 0 82 -13 108 -39s39 -62.333 39 -109v-144c0 -10 -4.66699 -15 -14 -15h-270
c-6.66699 0 -10 -3 -10 -9zM661.002 266v93c0 58 -28 87 -84 87h-56c-59.333 0 -89 -28 -89 -84v-96c0 -6.66699 3.33301 -10 10 -10h209c6.66699 0 10 3.33301 10 10zM360.002 152v93c0 6 -3.33301 9 -10 9h-136c-58.667 0 -88 -29 -88 -87v-18
c0 -58.667 29.333 -88 88 -88h53c62 0 93 30.333 93 91z" />
    <glyph glyph-name="Oslashacute" unicode="&#x1fe;" horiz-adv-x="564" 
d="M491 495l-0.000976562 -347c0 -46.667 -13.167 -83 -39.5 -109s-62.166 -39 -107.499 -39h-123c-46.667 0 -83.667 13.667 -111 41l-23 -32c-6 -8 -13 -9.33301 -21 -4l-14 11c-7.33301 5.33301 -8 12.333 -2 21l34 47c-7.33301 20 -11 41.333 -11 64v347
c0 46.667 13.167 83 39.5 109s62.5 39 108.5 39h123c47.333 0 84 -14 110 -42l23 32c6.66699 8 13.667 9.33301 21 4l15 -10c7.33301 -4.66699 8 -11.667 2 -21l-34 -48c6.66699 -20 10 -41 10 -63zM145.999 492v-321l264 368c-13.333 26.667 -38.333 40 -75 40h-105
c-56 0 -84 -29 -84 -87zM418.999 151v321l-264 -368c12 -26.667 37 -40 75 -40h105c56 0 84 29 84 87zM288.999 707h-33.001c-9.33301 0 -11.333 4.66699 -6 14l58 102c4.66699 8.66699 11.667 13 21 13h61c4 0 6.83301 -1.33301 8.5 -4s0.833984 -6 -2.49902 -10l-87 -105
c-5.33301 -6.66699 -12 -10 -20 -10z" />
    <glyph glyph-name="oslashacute" unicode="&#x1ff;" horiz-adv-x="521" 
d="M452 362l-0.000976562 -213.999c0 -46 -13.167 -82.167 -39.5 -108.5s-62.5 -39.5 -108.5 -39.5h-87c-56 0 -97 18.667 -123 56l-34 -34c-7.33301 -6.66699 -14 -6.66699 -20 0l-12 12c-6.66699 6.66699 -6.66699 13.334 0 20.001l47 47c-4 14 -6 29.667 -6 47v214
c0 46 13.167 82.167 39.5 108.5s62.5 39.5 108.5 39.5h87c56 0 97 -19 123 -57l34 34c6.66699 7.33301 13.334 7.66602 20.001 0.999023l12 -12c6.66699 -6.66699 6.66699 -13.334 0 -20.001l-47 -47c4 -14 6 -29.667 6 -47zM141.999 359.001v-191l230 230
c-10 32 -35.667 48 -77 48h-69c-56 0 -84 -29 -84 -87zM377.999 151.001v190l-230 -231c11.333 -30.667 37.333 -46 78 -46h69c55.333 0 83 29 83 87zM277.999 574.001h-32.999c-9.33301 0 -11.333 4.66699 -6 14l58 102c4.66699 8.66699 12 13 22 13h59
c4.66699 0 7.66699 -1.33301 9 -4s0.666016 -6 -2.00098 -10l-87 -105c-5.33301 -6.66699 -12 -10 -20 -10z" />
    <glyph glyph-name="uni0218" unicode="&#x218;" horiz-adv-x="555" 
d="M72 148l-0.00195312 31.999c0 9.33301 4.66699 14 14 14h45c9.33301 0 14 -4.66699 14 -14v-26c0 -60 29.667 -90 89 -90h88c59.333 0 89 30.667 89 92v34c0 48 -39.667 79.333 -119 94c-33.333 6 -66.666 13 -99.999 21s-61.666 23.5 -84.999 46.5s-35 54.5 -35 94.5v49
c0 46 13.167 82.167 39.5 108.5s62.5 39.5 108.5 39.5h111c45.333 0 81.333 -13.167 108 -39.5s40 -62.5 40 -108.5v-25c0 -10 -4.33301 -15 -13 -15h-46c-8.66699 0 -13 5 -13 15v18c0 60.667 -29.667 91 -89 91h-85c-59.333 0 -89 -31.667 -89 -95v-40
c0 -34 22.333 -57.333 67 -70c20 -5.33301 42 -10.166 66 -14.499s48.167 -10 72.5 -17s46.5 -15.667 66.5 -26s36.167 -26 48.5 -47s18.5 -46.5 18.5 -76.5v-45c0 -46 -13.333 -82.167 -40 -108.5s-62.667 -39.5 -108 -39.5h-115c-45.333 0 -81.333 13.167 -108 39.5
s-40 62.5 -40 108.5zM319.998 -45.001v-47c0 -18 -4.66699 -37.333 -14 -58l-33 -80c-3.33301 -5.33301 -7.33301 -8 -12 -8c-6.66699 0 -10 4 -10 12v180c0 9.33301 4.33301 14 13 14h43c8.66699 0 13 -4.33301 13 -13z" />
    <glyph glyph-name="uni0219" unicode="&#x219;" horiz-adv-x="430" 
d="M260 -45v-47c0 -16.667 -5 -36 -15 -58l-33 -80c-3.33301 -5.33301 -7.33301 -8 -12 -8c-6.66699 0 -10 4 -10 12v180c0 9.33301 4.33301 14 13 14h44c8.66699 0 13 -4.33301 13 -13zM242 0l-178 0.000976562c-9.33301 0 -14 4.66699 -14 14v35
c0 8.66699 4.66699 13 14 13h168c52 0 78 19.333 78 58v19c0 35.333 -17 59.666 -51 72.999l-118 50c-34 14 -58.333 30.5 -73 49.5s-22 44.167 -22 75.5c0 82 45 123 135 123h164c9.33301 0 14 -4.66699 14 -14v-35c0 -8.66699 -4.66699 -13 -14 -13h-151
c-24 0 -42.167 -5 -54.5 -15s-18.5 -21.667 -18.5 -35v-17c0 -28 19 -49.333 57 -64l118 -53c34.667 -13.333 58.167 -31 70.5 -53s18.5 -52.333 18.5 -91c0 -80 -47.667 -120 -143 -120z" />
    <glyph glyph-name="circumflex" unicode="&#x2c6;" horiz-adv-x="332" 
d="M261 574h-34.999c-6.66699 0 -11.334 2.66699 -14.001 8l-47 88l-47 -88c-2.66699 -5.33301 -7.33398 -8 -14.001 -8h-34c-8 0 -9.66699 4 -5 12l63 107c4.66699 6.66699 11.334 10 20.001 10h34c9.33301 0 16.333 -3.33301 21 -10l63 -107c4.66699 -8 3 -12 -5 -12z" />
    <glyph glyph-name="caron" unicode="&#x2c7;" horiz-adv-x="332" 
d="M148 574c-8.66699 0 -15.335 3.33301 -20.002 10l-63 107c-4.66699 8 -3 12 5 12h34c6.66699 0 11.334 -2.66699 14.001 -8l47 -88l47 88c2.66699 5.33301 7.33398 8 14.001 8h35c8 0 9.66699 -4 5 -12l-63 -107c-4.66699 -6.66699 -11.667 -10 -21 -10h-34z" />
    <glyph glyph-name="uni02C9" unicode="&#x2c9;" horiz-adv-x="355" 
d="M278 613h-201c-9.33301 0 -14 4.66699 -14 14v24c0 9.33301 4.66699 14 14 14h201c9.33301 0 14 -4.66699 14 -14v-24c0 -9.33301 -4.66699 -14 -14 -14z" />
    <glyph glyph-name="breve" unicode="&#x2d8;" horiz-adv-x="334" 
d="M63 680v12c0 7.33301 3.33301 11 10 11h28c6.66699 0 10 -3.66699 10 -11v-10c0 -24.667 4 -42.167 12 -52.5s21.667 -15.5 41 -15.5h5c20 0 34.167 5.16699 42.5 15.5s12.5 27.833 12.5 52.5v10c0 6.66699 3.33301 10 10 10h26c7.33301 0 11 -3.33301 11 -10v-12
c0 -70.667 -32 -106 -96 -106h-17c-63.333 0 -95 35.333 -95 106z" />
    <glyph glyph-name="dotaccent" unicode="&#x2d9;" horiz-adv-x="198" 
d="M63 590v97c0 9.33301 4.33301 14 13 14h46c8.66699 0 13 -4.33301 13 -13v-98c0 -9.33301 -4.33301 -14 -13 -14h-46c-8.66699 0 -13 4.66699 -13 14z" />
    <glyph glyph-name="ring" unicode="&#x2da;" horiz-adv-x="290" 
d="M85 659v-36c0 -14.667 3 -24.667 9 -30s16.333 -8 31 -8h14c14.667 0 25.167 2.66699 31.5 8s9.5 15.333 9.5 30v36c0 14.667 -3 24.667 -9 30s-16.333 8 -31 8h-15c-14.667 0 -25 -2.66699 -31 -8s-9 -15.333 -9 -30zM52 615v54c0 38.667 21 58 63 58h34
c42.667 0 64 -19.333 64 -58v-54c0 -39.333 -21.333 -59 -64 -59h-34c-42 0 -63 19.667 -63 59z" />
    <glyph glyph-name="ogonek" unicode="&#x2db;" horiz-adv-x="243" 
d="M112 -69c17.333 0 30.668 0.666992 40.001 2c9.33301 0 15.666 -0.833008 18.999 -2.5s4.66602 -5.16699 3.99902 -10.5c-0.666992 -9.33301 -9.33398 -17.333 -26.001 -24s-33.167 -10 -49.5 -10s-26.166 6.5 -29.499 19.5s-1 24.5 7 34.5l55 80l35 -7
c-1.33301 -1.33301 -11.166 -15.333 -29.499 -42s-26.833 -40 -25.5 -40z" />
    <glyph glyph-name="tilde" unicode="&#x2dc;" horiz-adv-x="364" 
d="M63 653l0.00390625 38c0 7.33301 2.66699 11 8 11h22c6 0 9 -3.66699 9 -11v-26c0 -18.667 1.66699 -31.334 5 -38.001s9.16602 -10 17.499 -10s14.666 2.66699 18.999 8s10.666 17 18.999 35s16.5 30 24.5 36s21.667 9 41 9c36.667 0 55 -25.667 55 -77v-40
c0 -7.33301 -2.66699 -11 -8 -11h-22c-6 0 -9 3.66699 -9 11v27c0 19.333 -1.66699 32.333 -5 39s-8.5 10 -15.5 10s-11.667 -0.333008 -14 -1s-5 -3 -8 -7s-5.16699 -7.5 -6.5 -10.5l-12 -27.5c-6.66699 -15.333 -14.334 -26.166 -23.001 -32.499s-22.667 -9.5 -42 -9.5
c-36.667 0 -55 25.667 -55 77z" />
    <glyph glyph-name="hungarumlaut" unicode="&#x2dd;" horiz-adv-x="389" 
d="M144 703h40c10.667 0 13 -4.66699 7 -14l-78 -105c-5.33301 -6.66699 -11.333 -10 -18 -10h-23c-8.66699 0 -11 4.66699 -7 14l57 102c4 8.66699 11.333 13 22 13zM276 703h40c10.667 0 13 -4.66699 7 -14l-78 -105c-5.33301 -6.66699 -11.333 -10 -18 -10h-23
c-10 0 -12.333 4.66699 -7 14l57 102c4 8.66699 11.333 13 22 13z" />
    <glyph glyph-name="Mu" unicode="&#x39c;" horiz-adv-x="538" 
d="M152 -119c0 -9.33301 -4.33203 -14 -12.999 -14h-46c-8.66699 0 -13 4.66699 -13 14v615c0 9.33301 4.33301 14 13 14h46c8.66699 0 13 -4.66699 13 -14v-345c0 -58 28 -87 84 -87h57c30 0 53 8 69 24s24 38.667 24 68v340c0 9.33301 4.66699 14 14 14h44
c10 0 15 -4.66699 15 -14v-482c0 -9.33301 -5 -14 -15 -14h-44c-9.33301 0 -14 4.66699 -14 14v39h-4c-16.667 -35.333 -51 -53 -103 -53c-2.66699 -0 -10 -0.166992 -22 -0.5s-20.333 -0.333008 -25 0s-11.834 1 -21.501 2s-17.167 2.5 -22.5 4.5
c-14.667 4 -26.667 11.333 -36 22v-147z" />
    <glyph glyph-name="Pi" unicode="&#x3a0;" horiz-adv-x="622" 
d="M202 0h-45c-9.33301 0 -14 4.66699 -14 14v555c0 5.33301 -3.33301 8 -10 8h-82c-10 0 -15 5 -15 15v37c0 9.33301 5 14 15 14h521c9.33301 0 14 -4.66699 14 -14v-37c0 -10 -4.66699 -15 -14 -15h-83c-6.66699 0 -10 -3 -10 -9v-554c0 -9.33301 -4.66699 -14 -14 -14
h-45c-9.33301 0 -14 4.66699 -14 14v554c0 6 -3 9 -9 9h-171c-6.66699 0 -10 -3 -10 -9v-554c0 -9.33301 -4.66699 -14 -14 -14z" />
    <glyph glyph-name="Sigma" unicode="&#x3a3;" horiz-adv-x="485" 
d="M62 594v35c0 9.33301 4.66699 14 14 14h338c9.33301 0 14 -4.66699 14 -14v-40c0 -10 -4.66699 -15 -14 -15h-267v-4l153 -233c7.33301 -12.667 7.33301 -25 0 -37l-153 -228v-4h267c10 0 15 -5 15 -15v-40c0 -8.66699 -5 -13 -15 -13h-338
c-9.33301 0 -14 4.66699 -14 14v34c0 10.667 2.66699 20.667 8 30l157 239v4l-158 244c-4.66699 7.33301 -7 17 -7 29z" />
    <glyph glyph-name="uni0901" unicode="&#x901;" horiz-adv-x="0" 
d="M-64 690h-95.002c-79.333 0 -119 41.333 -119 124v7c0 13.333 5.66699 20 17 20h30c10.667 0 16 -6.33301 16 -19v-7c0 -24.667 4.83301 -42 14.5 -52s26.834 -15 51.501 -15h75c24.667 0 41.834 5 51.501 15s14.5 27.333 14.5 52v7c0 12.667 5.66699 19 17 19h28
c11.333 0 17 -6.66699 17 -20v-6c0 -83.333 -39.333 -125 -118 -125zM-80.002 886v-38c0 -10 -4.66699 -15 -14 -15h-34c-9.33301 0 -14 5 -14 15v38c0 9.33301 4.66699 14 14 14h34c9.33301 0 14 -4.66699 14 -14z" />
    <glyph glyph-name="uni0902" unicode="&#x902;" horiz-adv-x="0" 
d="M-82 790v-48c0 -10 -5 -15 -15 -15h-46c-10 0 -15 5 -15 15v48c0 9.33301 5 14 15 14h46c10 0 15 -4.66699 15 -14z" />
    <glyph glyph-name="uni0903" unicode="&#x903;" horiz-adv-x="249" 
d="M163 425v-47c0 -12 -5.66699 -18 -17 -18h-41c-11.333 0 -17 6 -17 18v47c0 11.333 5.66699 17 17 17h41c11.333 0 17 -5.66699 17 -17zM163 132v-46c0 -12 -5.66699 -18 -17 -18h-41c-11.333 0 -17 6 -17 18v46c0 12 5.66699 18 17 18h41c11.333 0 17 -6 17 -18z" />
    <glyph glyph-name="uni0905" unicode="&#x905;" horiz-adv-x="601" 
d="M479 623l124.999 -0.00195312c10.667 0 16 -5 16 -15v-30c0 -10 -5.33301 -15 -16 -15h-75c-6.66699 0 -10 -3.33301 -10 -10v-538c0 -10 -5 -15 -15 -15h-38c-10.667 0 -16 5 -16 15v208c0 6.66699 -3.33301 10 -10 10h-116v-45c0 -47.333 -13.5 -84.166 -40.5 -110.499
s-64.167 -39.5 -111.5 -39.5h-120c-10.667 0 -16 5 -16 15v32c0 9.33301 5.33301 14 16 14h116c59.333 0 89 29.667 89 89v33c0 57.333 -29.667 86 -89 86h-57c-10.667 0 -16 5 -16 15v31c0 10 5 15 15 15h58c59.333 0 89 29 89 87v20c0 58.667 -29.667 88 -89 88h-83
c-10.667 0 -16 5 -16 15v30c0 10 5.33301 15 16 15h90c48 0 84.833 -12.833 110.5 -38.5s38.5 -62.5 38.5 -110.5v-22c0 -56.667 -21.333 -94 -64 -112v-4c22.667 -8 39.334 -22.333 50.001 -43h130c6.66699 0 10 3.66699 10 11v289c0 8.66699 2.66699 15.834 8 21.501
s12.333 8.5 21 8.5z" />
    <glyph glyph-name="uni0906" unicode="&#x906;" horiz-adv-x="833" 
d="M478 623l357.999 -0.00195312c10.667 0 16 -5 16 -15v-30c0 -10 -5.33301 -15 -16 -15h-75c-6.66699 0 -10 -3.33301 -10 -10v-538c0 -10 -5 -15 -15 -15h-39c-10 0 -15 5 -15 15v538c0 6.66699 -3.33301 10 -10 10h-144c-6.66699 0 -10 -3.33301 -10 -10v-538
c0 -10 -5 -15 -15 -15h-38c-10.667 0 -16 5 -16 15v208c0 6.66699 -3.33301 10 -10 10h-116v-45c0 -47.333 -13.5 -84.166 -40.5 -110.499s-64.167 -39.5 -111.5 -39.5h-120c-10.667 0 -16 5 -16 15v32c0 9.33301 5.33301 14 16 14h116c59.333 0 89 29.667 89 89v33
c0 57.333 -29.667 86 -89 86h-57c-10.667 0 -16 5 -16 15v31c0 10 5 15 15 15h58c59.333 0 89 29 89 87v20c0 58.667 -29.667 88 -89 88h-83c-10.667 0 -16 5 -16 15v30c0 10 5.33301 15 16 15h90c48 0 84.833 -12.833 110.5 -38.5s38.5 -62.5 38.5 -110.5v-22
c0 -56.667 -21.333 -94 -64 -112v-4c22.667 -8 39.334 -22.333 50.001 -43h130c6.66699 0 10 3.66699 10 11v289c0 8.66699 2.66699 15.834 8 21.501s12.333 8.5 21 8.5z" />
    <glyph glyph-name="uni0907" unicode="&#x907;" horiz-adv-x="475" 
d="M284 225h-90.001c-86 0 -129 38.333 -129 115v16c0 37.333 11.333 65.5 34 84.5s54.334 28.5 95.001 28.5h117c6.66699 0 10 3.33301 10 10v74c0 6.66699 -3.33301 10 -10 10h-314c-10.667 0 -16 5 -16 15v30c0 10 5.33301 15 16 15h481c10.667 0 16 -5 16 -15v-30
c0 -10 -5.33301 -15 -16 -15h-79c-6.66699 0 -10 -3.33301 -10 -10v-111c0 -22.667 -11.667 -34 -35 -34h-156c-24 0 -41 -4.33301 -51 -13s-15 -23.667 -15 -45v-10c0 -20.667 5.16699 -35.167 15.5 -43.5s27.166 -12.5 50.499 -12.5h93c84.667 0 127 -36.667 127 -110v-47
c0 -38 -11 -67 -33 -87s-53.333 -30 -94 -30h-81c-39.333 0 -65.333 11 -78 33h-4v-77c0 -10 -5 -15 -15 -15h-36c-10 0 -15 5 -15 15v189c0 10 5 15 15 15h36c10 0 15 -5 15 -15v-16c0 -46 24.333 -69 73 -69h83c24 0 41 4.5 51 13.5s15 24.167 15 45.5v41
c0 20 -5.16699 34.167 -15.5 42.5s-27.166 12.5 -50.499 12.5z" />
    <glyph glyph-name="uni0908" unicode="&#x908;" horiz-adv-x="475" 
d="M305 722v-52.999c0 -18 3.5 -30.167 10.5 -36.5s21.5 -9.5 43.5 -9.5h119c10.667 0 16 -5 16 -15v-30c0 -10 -5.33301 -15 -16 -15h-79c-6.66699 0 -10 -3.33301 -10 -10v-111c0 -22.667 -11.667 -34 -35 -34h-156c-24 0 -41 -4.33301 -51 -13s-15 -23.667 -15 -45v-10
c0 -20.667 5.16699 -35.167 15.5 -43.5s27.166 -12.5 50.499 -12.5h93c84.667 0 127 -36.667 127 -110v-47c0 -38 -11 -67 -33 -87s-53.333 -30 -94 -30h-81c-39.333 0 -65.333 11 -78 33h-4v-77c0 -10 -5 -15 -15 -15h-36c-10 0 -15 5 -15 15v189c0 10 5 15 15 15h36
c10 0 15 -5 15 -15v-16c0 -46 24.333 -69 73 -69h83c24 0 41 4.5 51 13.5s15 24.167 15 45.5v41c0 20 -5.16699 34.167 -15.5 42.5s-27.166 12.5 -50.499 12.5h-90c-86 0 -129 38.333 -129 115v16c0 37.333 11.333 65.5 34 84.5s54.334 28.5 95.001 28.5h117
c6.66699 0 10 3.33301 10 10v74c0 6.66699 -3.33301 10 -10 10h-314c-10.667 0 -16 5 -16 15v30c0 10 5.33301 15 16 15h260v4c-13.333 7.33301 -20 23.666 -20 48.999v48c0 46.667 13.167 82.5 39.5 107.5s61.166 37.5 104.499 37.5h59c10 0 15 -5 15 -15v-31
c0 -10 -5 -15 -15 -15h-56c-52.667 0 -79 -28.667 -79 -86z" />
    <glyph glyph-name="uni0909" unicode="&#x909;" horiz-adv-x="468" 
d="M406 211v-57c0 -48 -13.167 -85.667 -39.5 -113s-63.5 -41 -111.5 -41h-61c-47.333 0 -84.5 13.667 -111.5 41s-40.5 65 -40.5 113v50c0 12 5 18 15 18h38c9.33301 0 14 -6 14 -18v-50c0 -62 30.667 -93 92 -93h49c59.333 0 89 32 89 96v41c0 61.333 -29.667 92 -89 92
h-52c-10 0 -15 5 -15 15v31c0 10 5 15 15 15h50c58 0 87 28.333 87 85v40c0 58 -28.333 87 -85 87h-253c-10.667 0 -16 5 -16 15v30c0 10 5.33301 15 16 15h474c10.667 0 16 -5 16 -15v-30c0 -10 -5.33301 -15 -16 -15h-110v-4c28 -14 42 -42.333 42 -85v-43
c0 -55.333 -20.333 -91.333 -61 -108v-4c42.667 -18 64 -54 64 -108z" />
    <glyph glyph-name="uni090A" unicode="&#x90a;" horiz-adv-x="659" 
d="M-3 623h665c10.667 0 16 -5 16 -15v-30c0 -10 -5.33301 -15 -16 -15h-301v-4c28 -14 42 -42.333 42 -85v-43c0 -55.333 -20.333 -91.333 -61 -108v-4h156c40.667 0 73 -11.333 97 -34s36 -55.334 36 -98.001v-51c0 -42 -12 -74 -36 -96s-56.333 -33 -97 -33h-26
c-10.667 0 -16 5 -16 15v32c0 9.33301 5.33301 14 16 14h12c53.333 0 80 27.333 80 82v26c0 54 -26.667 81 -80 81h-85c4.66699 -13.333 7 -28.666 7 -45.999v-55c0 -48 -13.167 -86 -39.5 -114s-63.5 -42 -111.5 -42h-61c-47.333 0 -84.5 13.667 -111.5 41
s-40.5 65 -40.5 113v50c0 12 5 18 15 18h38c9.33301 0 14 -6 14 -18v-50c0 -62 30.667 -93 92 -93h49c59.333 0 89 32 89 96v41c0 61.333 -29.667 92 -89 92h-52c-10 0 -15 5 -15 15v31c0 10 5 15 15 15h50c58 0 87 28.333 87 85v40c0 58 -28.333 87 -85 87h-253
c-10.667 0 -16 5 -16 15v30c0 10 5.33301 15 16 15z" />
    <glyph glyph-name="uni090B" unicode="&#x90b;" horiz-adv-x="764" 
d="M-4 623h771c10 0 15 -5 15 -15v-30c0 -10 -5 -15 -15 -15h-341c-7.33301 0 -11 -3.33301 -11 -10v-255l152 118c12.667 9.33301 24.334 14 35.001 14h75c10 0 15 -5 15 -15v-191c0 -12.667 -7.66699 -19 -23 -19h-28c-45.333 0 -68 -19.667 -68 -59v-29
c0 -21.333 5.5 -36.333 16.5 -45s28.833 -13 53.5 -13h45c12.667 0 19 -5.66699 19 -17v-26c0 -10.667 -6.66699 -16 -20 -16h-51c-86.667 0 -130 37 -130 111v38c0 68.667 37.333 105 112 109c7.33301 0 11 3.33301 11 10v115l-214 -166v-202c0 -10 -5 -15 -15 -15h-38
c-10 0 -15 5 -15 15v148l-194 -152c-8.66699 -7.33301 -17.667 -11 -27 -11h-50c-8 0 -12 4 -12 12c0 6 5 13 15 21l183 143l83 61v50c0 55.333 -30.333 83 -91 83h-39c-60 0 -90 -27.667 -90 -83v-45c0 -10 -5 -15 -15 -15h-37c-10 0 -15 5 -15 15v48
c0 46.667 13.167 82.167 39.5 106.5s63.166 36.5 110.499 36.5h35c48 0 81.333 -14.333 100 -43h4v163c0 6.66699 -3.33301 10 -10 10h-341c-10 0 -15 5 -15 15v30c0 10 5 15 15 15z" />
    <glyph glyph-name="uni090C" unicode="&#x90c;" horiz-adv-x="666" 
d="M687 -133c3.33301 -3.33301 4.99902 -7.49902 4.99902 -12.499s-4.33301 -10.833 -13 -17.5c-34 -30.667 -79.333 -46 -136 -46c-98.667 0 -148 46.333 -148 139c0 85.333 40 130 120 134v229c0 31.333 -6.5 53.5 -19.5 66.5s-33.167 19.5 -60.5 19.5
s-47.5 -6.5 -60.5 -19.5s-19.5 -35.5 -19.5 -67.5v-77c0 -10.667 -5 -16 -15 -16h-36c-10 0 -15 5.33301 -15 16v80c0 30.667 -6.5 52.5 -19.5 65.5s-33 19.5 -60 19.5s-47.167 -7.16699 -60.5 -21.5s-20 -37.5 -20 -69.5v-103c0 -60.667 30.333 -91 91 -91h35
c10.667 0 16 -4.66699 16 -14v-32c0 -10 -5.33301 -15 -16 -15h-43c-48 0 -85 12.5 -111 37.5s-39 62.167 -39 111.5v110c0 49.333 12.833 86.666 38.5 111.999s60.834 38 105.501 38c60 0 98 -21.333 114 -64h4c13.333 42 48.333 63 105 63c40.667 0 68 -12 82 -36h4v147
c0 6.66699 -3 10 -9 10h-509c-10.667 0 -16 5 -16 15v30c0 10 5.33301 15 16 15h672c10.667 0 16 -5 16 -15v-30c0 -10 -5.33301 -15 -16 -15h-75c-7.33301 0 -11 -3.33301 -11 -10v-532c0 -10 -5.33301 -15 -16 -15h-38c-26 0 -44 -6 -54 -18s-15 -32 -15 -60
s6.83301 -47.833 20.5 -59.5s37.5 -17.5 71.5 -17.5s66 13.333 96 40c4.66699 3.33301 9.16699 5 13.5 5s7.83301 -2.66699 10.5 -8z" />
    <glyph glyph-name="uni090D" unicode="&#x90d;" horiz-adv-x="520" 
d="M-3 623h529.999c10.667 0 16 -5 16 -15v-30c0 -10 -5.33301 -15 -16 -15h-55c-7.33301 0 -11 -3.33301 -11 -10v-131c0 -48.667 -12.833 -85 -38.5 -109s-61.167 -36 -106.5 -36h-40c-10.667 0 -16 5 -16 15v31c0 10 5.33301 15 16 15h33
c26.667 0 47.334 6.33301 62.001 19s22 34.334 22 65.001v131c0 6.66699 -3.33301 10 -10 10h-222c-7.33301 0 -11 -3.33301 -11 -10v-358c0 -32.667 9.16699 -57.834 27.5 -75.501s44.5 -26.5 78.5 -26.5h160c10 0 15 -5 15 -15v-32c0 -10 -5 -15.333 -15 -16h-171
c-50 0 -89.667 15 -119 45s-44 69 -44 117v361c0 6.66699 -3.33301 10 -10 10h-75c-10.667 0 -16 5 -16 15v30c0 10 5.33301 15 16 15zM310.999 717h-82.002c-79.333 0 -119 41.333 -119 124v7c0 13.333 6 20 18 20h29c10.667 0 16 -6.33301 16 -19v-7
c0 -24.667 4.83301 -42 14.5 -52s26.834 -15 51.501 -15h62c24.667 0 41.834 5 51.501 15s14.5 27.333 14.5 52v7c0 12.667 5.33301 19 16 19h30c11.333 0 17 -6.66699 17 -20v-7c0 -82.667 -39.667 -124 -119 -124z" />
    <glyph glyph-name="uni090E" unicode="&#x90e;" horiz-adv-x="521" 
d="M476 623h50.999c10.667 0 16 -5 16 -15v-30c0 -10 -5.33301 -15 -16 -15h-55c-7.33301 0 -11 -3.33301 -11 -10v-131c0 -48.667 -12.833 -85 -38.5 -109s-61.167 -36 -106.5 -36h-40c-10.667 0 -16 5 -16 15v31c0 10 5.33301 15 16 15h33
c26.667 0 47.334 6.33301 62.001 19s22 34.334 22 65.001v131c0 6.66699 -3.33301 10 -10 10h-222c-7.33301 0 -11 -3.33301 -11 -10v-358c0 -32.667 9.16699 -57.834 27.5 -75.501s44.5 -26.5 78.5 -26.5h160c10 0 15 -5 15 -15v-32c0 -10 -5 -15.333 -15 -16h-171
c-50 0 -89.667 15 -119 45s-44 69 -44 117v361c0 6.66699 -3.33301 10 -10 10h-75c-10.667 0 -16 5 -16 15v30c0 10 5.33301 15 16 15h390c6.66699 0 10 4.16699 10 12.5s-4 15.833 -12 22.5c-8 7.33301 -46.667 28.666 -116 63.999
c-29.333 15.333 -50.5 32.166 -63.5 50.499s-19.5 41.833 -19.5 70.5v20c0 10 5 15 15 15h37c10 0 15 -5 15 -15v-16c0 -20.667 4.5 -36.167 13.5 -46.5s23.833 -20.5 44.5 -30.5l63 -32c32 -15.333 55.333 -30.166 70 -44.499s22 -34.166 22 -59.499
c0 -7.33301 3.33301 -11 10 -11z" />
    <glyph glyph-name="uni090F" unicode="&#x90f;" horiz-adv-x="524" 
d="M-3 623h529.999c10.667 0 16 -5 16 -15v-30c0 -10 -5.33301 -15 -16 -15h-55c-7.33301 0 -11 -3.33301 -11 -10v-131c0 -48.667 -12.833 -85 -38.5 -109s-61.167 -36 -106.5 -36h-40c-10.667 0 -16 5 -16 15v31c0 10 5.33301 15 16 15h33
c26.667 0 47.334 6.33301 62.001 19s22 34.334 22 65.001v131c0 6.66699 -3.33301 10 -10 10h-222c-7.33301 0 -11 -3.33301 -11 -10v-358c0 -32.667 9.16699 -57.834 27.5 -75.501s44.5 -26.5 78.5 -26.5h160c10 0 15 -5 15 -15v-32c0 -10 -5 -15.333 -15 -16h-171
c-50 0 -89.667 15 -119 45s-44 69 -44 117v361c0 6.66699 -3.33301 10 -10 10h-75c-10.667 0 -16 5 -16 15v30c0 10 5.33301 15 16 15z" />
    <glyph glyph-name="uni0910" unicode="&#x910;" horiz-adv-x="524" 
d="M469 623h58c10.667 0 16 -5 16 -15v-30c0 -10 -5.33301 -15 -16 -15h-55c-7.33301 0 -11 -3.33301 -11 -10v-131c0 -48.667 -12.833 -85 -38.5 -109s-61.167 -36 -106.5 -36h-40c-10.667 0 -16 5 -16 15v31c0 10 5.33301 15 16 15h33c26.667 0 47.334 6.33301 62.001 19
s22 34.334 22 65.001v131c0 6.66699 -3.33301 10 -10 10h-222c-7.33301 0 -11 -3.33301 -11 -10v-358c0 -32.667 9.16699 -57.834 27.5 -75.501s44.5 -26.5 78.5 -26.5h160c10 0 15 -5 15 -15v-32c0 -10 -5 -15.333 -15 -16h-171c-50 0 -89.667 15 -119 45s-44 69 -44 117
v361c0 6.66699 -3.33301 10 -10 10h-75c-10.667 0 -16 5 -16 15v30c0 10 5.33301 15 16 15h399c-36.667 40 -74 88.333 -112 145l-59 87c-2.66699 5.33301 -4 9 -4 11c0 8 4.33301 12 13 12h43c9.33301 0 16.666 -4.33301 21.999 -13l146 -226c6 -10.667 14 -16 24 -16z" />
    <glyph glyph-name="uni0911" unicode="&#x911;" horiz-adv-x="834" 
d="M479 623l357.999 -0.00195312c10.667 0 16 -5 16 -15v-30c0 -10 -5.33301 -15 -16 -15h-75c-6.66699 0 -10 -3.33301 -10 -10v-538c0 -10 -5 -15 -15 -15h-38c-10 0 -15 5 -15 15v538c0 6.66699 -3.66699 10 -11 10h-144c-6.66699 0 -10 -3.33301 -10 -10v-538
c0 -10 -5 -15 -15 -15h-38c-10.667 0 -16 5 -16 15v208c0 6.66699 -3.33301 10 -10 10h-116v-45c0 -47.333 -13.5 -84.166 -40.5 -110.499s-64.167 -39.5 -111.5 -39.5h-120c-10.667 0 -16 5 -16 15v32c0 9.33301 5.33301 14 16 14h116c59.333 0 89 29.667 89 89v33
c0 57.333 -29.667 86 -89 86h-57c-10.667 0 -16 5 -16 15v31c0 10 5 15 15 15h58c59.333 0 89 29 89 87v20c0 58.667 -29.667 88 -89 88h-83c-10.667 0 -16 5 -16 15v30c0 10 5.33301 15 16 15h90c48 0 84.833 -12.833 110.5 -38.5s38.5 -62.5 38.5 -110.5v-22
c0 -56.667 -21.333 -94 -64 -112v-4c22.667 -8 39.334 -22.333 50.001 -43h130c6.66699 0 10 3.66699 10 11v289c0 8.66699 2.66699 15.834 8 21.501s12.333 8.5 21 8.5zM648.999 689.998h-81.002c-80 0 -120 41.333 -120 124v7c0 13.333 6 20 18 20h29
c10.667 0 16 -6.33301 16 -19v-7c0 -24.667 4.83301 -42 14.5 -52s26.834 -15 51.501 -15h62c24.667 0 41.834 5 51.501 15s14.5 27.333 14.5 52v7c0 12.667 5.66699 19 17 19h28c11.333 0 17 -6.66699 17 -20v-5c0 -84 -39.333 -126 -118 -126z" />
    </font>
</defs>
</svg>
